SplineFontDB: 3.0
FontName: Ume-P-Gothic_Balsa
FullName: Ume P Gothic Balsa
FamilyName: Ume P Gothic Balsa
Weight: Book Italic
Copyright: Author: HORAI Wataru. License: This font is a free software. Unlimited permission is granted to use, copy, and distribute it, with or without modification, either commercially and noncommercially. THIS FONT IS PROVIDED "AS IS" WITHOUT WARRANTY.\nItalicized by OSP and Fontforge.
UComments: "May 2012+AAoA-Italicized by OSP and Fontforge." 
Version: Look update time of this file.
ItalicAngle: -13
UnderlinePosition: -72
UnderlineWidth: 48
Ascent: 3520
Descent: 576
sfntRevision: 0x00000000
LayerCount: 2
Layer: 0 1 "Back"  1
Layer: 1 1 "Fore"  0
XUID: [1021 32 786411109 11744668]
FSType: 8
OS2Version: 1
OS2_WeightWidthSlopeOnly: 0
OS2_UseTypoMetrics: 1
CreationTime: -2082844800
ModificationTime: 1336834269
PfmFamily: 17
TTFWeight: 400
TTFWidth: 5
LineGap: 0
VLineGap: 0
Panose: 2 0 6 0 0 0 0 0 0 0
OS2TypoAscent: 0
OS2TypoAOffset: 1
OS2TypoDescent: 0
OS2TypoDOffset: 1
OS2TypoLinegap: 0
OS2WinAscent: -224
OS2WinAOffset: 1
OS2WinDescent: -112
OS2WinDOffset: 1
HheadAscent: -224
HheadAOffset: 1
HheadDescent: 112
HheadDOffset: 1
OS2SubXSize: 2048
OS2SubYSize: 2048
OS2SubXOff: 0
OS2SubYOff: 1472
OS2SupXSize: 2048
OS2SupYSize: 2048
OS2SupXOff: 0
OS2SupYOff: 1760
OS2StrikeYSize: 208
OS2StrikeYPos: 1056
OS2Vendor: 'Take'
OS2CodePages: 4002009f.dfd70000
OS2UnicodeRanges: a00002bf.68c7fcfb.00000010.00000000
Lookup: 1 1 0 "'vert' Vertical Alternates (obs) in Hiragana & Katakana lookup 0"  {"'vert' Vertical Alternates (obs) in Hiragana & Katakana lookup 0 subtable"  } ['vert' ('kana' <'JAN ' 'dflt' > ) ]
MarkAttachClasses: 1
DEI: 91125
TtTable: prep
PUSHW_1
 511
SCANCTRL
PUSHB_1
 1
SCANTYPE
PUSHB_2
 1
 129
RCVT
WCVTP
PUSHB_2
 2
 130
RCVT
WCVTP
PUSHB_2
 3
 131
RCVT
WCVTP
PUSHB_2
 4
 132
RCVT
WCVTP
PUSHB_2
 5
 133
RCVT
WCVTP
PUSHB_2
 6
 134
RCVT
WCVTP
PUSHB_2
 7
 135
RCVT
WCVTP
PUSHB_2
 8
 136
RCVT
WCVTP
PUSHB_2
 9
 137
RCVT
WCVTP
PUSHB_2
 10
 138
RCVT

StartChar: .notdef
Encoding: 65536 -1 0
Width: 3731
Flags: W
LayerCount: 2
Fore
SplineSet
456 400 m 1,0,-1
 507 620 l 1,1,-1
 712 620 l 1,2,-1
 661 400 l 1,3,-1
 456 400 l 1,0,-1
EndSplineSet
EndChar

StartChar: exclam
Encoding: 33 33 4
Width: 823
GlyphClass: 2
Flags: W
LayerCount: 2
Fore
SplineSet
545 0 m 1,0,-1
 278 0 l 1,1,-1
 399 528 l 1,2,-1
 667 528 l 1,3,-1
 545 0 l 1,0,-1
1307 3104 m 1,4,-1
 741 976 l 1,5,-1
 518 976 l 1,6,-1
 950 3104 l 1,7,-1
 1307 3104 l 1,4,-1
EndSplineSet
EndChar

StartChar: quotedbl
Encoding: 34 34 5
Width: 1887
GlyphClass: 2
Flags: W
LayerCount: 2
Fore
SplineSet
2095 3104 m 1,0,-1
 1958 2512 l 2,1,2
 1784 1760 1784 1760 1346 1728 c 1,3,-1
 1412 2016 l 1,4,5
 1620 2016 1620 2016 1739 2528 c 1,6,-1
 1531 2528 l 1,7,-1
 1663 3104 l 1,8,-1
 2095 3104 l 1,0,-1
1396 3104 m 1,9,-1
 1259 2512 l 2,10,11
 1085 1760 1085 1760 646 1728 c 1,12,-1
 713 2016 l 1,13,14
 921 2016 921 2016 1039 2528 c 1,15,-1
 831 2528 l 1,16,-1
 964 3104 l 1,17,-1
 1396 3104 l 1,9,-1
EndSplineSet
EndChar

StartChar: numbersign
Encoding: 35 35 6
Width: 1902
GlyphClass: 2
Flags: W
LayerCount: 2
Fore
SplineSet
1260 2080 m 1,0,-1
 903 1152 l 1,1,-1
 1394 1152 l 1,2,-1
 1751 2080 l 1,3,-1
 1260 2080 l 1,0,-1
2339 2080 m 1,4,-1
 2018 2080 l 1,5,-1
 1662 1152 l 1,6,-1
 1991 1152 l 1,7,-1
 1939 928 l 1,8,-1
 1576 928 l 1,9,-1
 1219 0 l 1,10,-1
 951 0 l 1,11,-1
 1308 928 l 1,12,-1
 817 928 l 1,13,-1
 460 0 l 1,14,-1
 192 0 l 1,15,-1
 549 928 l 1,16,-1
 258 928 l 1,17,-1
 310 1152 l 1,18,-1
 635 1152 l 1,19,-1
 992 2080 l 1,20,-1
 643 2080 l 1,21,-1
 695 2304 l 1,22,-1
 1078 2304 l 1,23,-1
 1385 3104 l 1,24,-1
 1653 3104 l 1,25,-1
 1346 2304 l 1,26,-1
 1837 2304 l 1,27,-1
 2144 3104 l 1,28,-1
 2412 3104 l 1,29,-1
 2105 2304 l 1,30,-1
 2391 2304 l 1,31,-1
 2339 2080 l 1,4,-1
EndSplineSet
EndChar

StartChar: dollar
Encoding: 36 36 7
Width: 1898
GlyphClass: 2
Flags: W
LayerCount: 2
Fore
SplineSet
1445 408 m 0,0,1
 1607 528 1607 528 1673 816 c 0,2,3
 1694.11170213 907.14893617 1694.11170213 907.14893617 1694.11170213 983.025577184 c 0,4,5
 1694.11170213 1133.57446809 1694.11170213 1133.57446809 1611 1224 c 0,6,7
 1502 1343 1502 1343 1402 1383 c 1,8,-1
 1152 297 l 1,9,10
 1327 320 1327 320 1445 408 c 0,0,1
1153 2688 m 0,11,12
 1016 2544 1016 2544 953 2272 c 0,13,14
 927.058823529 2160 927.058823529 2160 927.058823529 2072.41522491 c 0,15,16
 927.058823529 1947.29411765 927.058823529 1947.29411765 980 1872 c 0,17,18
 1062 1755 1062 1755 1212 1718 c 1,19,-1
 1467 2824 l 1,20,21
 1259 2799 1259 2799 1153 2688 c 0,11,12
1628 3520 m 1,22,-1
 1896 3520 l 1,23,-1
 1798 3097 l 1,24,25
 1954 3079 1954 3079 2077 3016 c 0,26,27
 2250 2928 2250 2928 2373 2752 c 1,28,-1
 2273 2320 l 1,29,30
 2127 2592 2127 2592 1992 2712 c 0,31,32
 1894 2799 1894 2799 1735 2823 c 1,33,-1
 1463 1645 l 1,34,35
 1626 1611 1626 1611 1765 1504 c 0,36,37
 1910 1392 1910 1392 1953 1224 c 0,38,39
 1971.86734694 1150.28571429 1971.86734694 1150.28571429 1971.86734694 1062.70970429 c 0,40,41
 1971.86734694 950.693877551 1971.86734694 950.693877551 1941 816 c 0,42,43
 1845 400 1845 400 1613 200 c 0,44,45
 1419 33 1419 33 1084 5 c 1,46,-1
 950 -576 l 1,47,-1
 682 -576 l 1,48,-1
 818 11 l 1,49,50
 686 32 686 32 547 96 c 0,51,52
 339 192 339 192 231 368 c 1,53,-1
 319 752 l 1,54,55
 479 480 479 480 666 384 c 0,56,57
 780 325 780 325 885 302 c 1,58,-1
 1149 1444 l 1,59,60
 1029 1476 1029 1476 896 1544 c 0,61,62
 756 1616 756 1616 680 1800 c 0,63,64
 639.323943662 1898.47887324 639.323943662 1898.47887324 639.323943662 2026.74866098 c 0,65,66
 639.323943662 2138.14084507 639.323943662 2138.14084507 670 2272 c 0,67,68
 755 2640 755 2640 972 2872 c 0,69,70
 1157 3070 1157 3070 1531 3099 c 1,71,-1
 1628 3520 l 1,22,-1
EndSplineSet
EndChar

StartChar: percent
Encoding: 37 37 8
Width: 1902
GlyphClass: 2
Flags: W
LayerCount: 2
Fore
SplineSet
2490 3248 m 1,0,-1
 435 -176 l 1,1,-1
 152 -176 l 1,2,-1
 2207 3248 l 1,3,-1
 2490 3248 l 1,0,-1
1152 2928 m 1,4,5
 1148.36363636 2928.36363636 1148.36363636 2928.36363636 1144.72778926 2928.36363636 c 0,6,7
 988.386363636 2928.36363636 988.386363636 2928.36363636 833 2256 c 0,8,9
 754.730650155 1917.3250774 754.730650155 1917.3250774 754.730650155 1745.36629317 c 0,10,11
 754.730650155 1568 754.730650155 1568 838 1568 c 0,12,13
 1002 1568 1002 1568 1160 2256 c 1,14,15
 1236.05 2583.6 1236.05 2583.6 1236.05 2751.495 c 0,16,17
 1236.05 2928 1236.05 2928 1152 2928 c 1,4,5
1214 3200 m 0,18,19
 1452 3200 1452 3200 1490 2944 c 0,20,21
 1500.46376812 2873.50724638 1500.46376812 2873.50724638 1500.46376812 2789.66939719 c 0,22,23
 1500.46376812 2569.04347826 1500.46376812 2569.04347826 1428 2256 c 0,24,25
 1310 1744 1310 1744 1148.5 1528 c 128,-1,26
 987 1312 987 1312 778 1312 c 0,27,28
 525 1312 525 1312 486 1560 c 0,29,30
 475.288732394 1628.11267606 475.288732394 1628.11267606 475.288732394 1711.31164451 c 0,31,32
 475.288732394 1931.04225352 475.288732394 1931.04225352 550 2256 c 0,33,34
 661 2736 661 2736 826 2968 c 128,-1,35
 991 3200 991 3200 1214 3200 c 0,18,19
1712 1360 m 0,36,37
 1563 1360 1563 1360 1412 704 c 0,38,39
 1338.24915825 385.077441077 1338.24915825 385.077441077 1338.24915825 225.079254951 c 0,40,41
 1338.24915825 64 1338.24915825 64 1413 64 c 0,42,43
 1592 64 1592 64 1739 704 c 1,44,45
 1808.80060423 1005.24471299 1808.80060423 1005.24471299 1808.80060423 1168.15348527 c 0,46,47
 1808.80060423 1360 1808.80060423 1360 1712 1360 c 0,36,37
1775 1632 m 128,-1,49
 1998 1632 1998 1632 2054 1392 c 0,50,51
 2073.72327044 1307.47169811 2073.72327044 1307.47169811 2073.72327044 1197.14188521 c 0,52,53
 2073.72327044 994.213836478 2073.72327044 994.213836478 2007 704 c 0,54,55
 1889 192 1889 192 1723.5 -8 c 128,-1,56
 1558 -208 1558 -208 1350 -208 c 0,57,58
 1112 -208 1112 -208 1069 24 c 0,59,60
 1056.33561644 92.3287671233 1056.33561644 92.3287671233 1056.33561644 179.39388253 c 0,61,62
 1056.33561644 387.945205479 1056.33561644 387.945205479 1129 704 c 0,63,64
 1240 1184 1240 1184 1396 1408 c 128,-1,48
 1552 1632 1552 1632 1775 1632 c 128,-1,49
EndSplineSet
EndChar

StartChar: ampersand
Encoding: 38 38 9
Width: 2255
GlyphClass: 2
Flags: W
LayerCount: 2
Fore
SplineSet
937 1232 m 0,0,1
 640 1040 640 1040 562 768 c 1,2,3
 540.011080332 673.063711911 540.011080332 673.063711911 540.011080332 598.59356512 c 0,4,5
 540.011080332 459.700831025 540.011080332 459.700831025 616.5 392 c 0,6,7
 734 288 734 288 927 288 c 0,8,9
 1147 288 1147 288 1428 521 c 1,10,11
 1209 958 1209 958 1084 1327 c 1,12,13
 1013 1281 1013 1281 937 1232 c 0,0,1
1508 1904 m 0,14,15
 1831 2144 1831 2144 1909 2480 c 0,16,17
 1924.56481481 2546.81481481 1924.56481481 2546.81481481 1924.56481481 2602.10013717 c 0,18,19
 1924.56481481 2692.44444444 1924.56481481 2692.44444444 1883 2752 c 0,20,21
 1816 2848 1816 2848 1667 2848 c 0,22,23
 1488 2848 1488 2848 1365.5 2736 c 128,-1,24
 1243 2624 1243 2624 1199 2432 c 1,25,26
 1177.10691824 2317.33962264 1177.10691824 2317.33962264 1177.10691824 2188.91001147 c 0,27,28
 1177.10691824 1971.2327044 1177.10691824 1971.2327044 1240 1714 c 1,29,30
 1367 1799 1367 1799 1508 1904 c 0,14,15
846 0 m 0,31,32
 519 0 519 0 362 192 c 0,33,34
 261.800813008 314.536585366 261.800813008 314.536585366 261.800813008 515.277414238 c 0,35,36
 261.800813008 629.073170732 261.800813008 629.073170732 294 768 c 0,37,38
 349 1008 349 1008 520 1200 c 128,-1,39
 691 1392 691 1392 938 1528 c 0,40,41
 973 1547 973 1547 1010 1569 c 1,42,43
 910.784688995 1929.34449761 910.784688995 1929.34449761 910.784688995 2202.81625879 c 0,44,45
 910.784688995 2326.25837321 910.784688995 2326.25837321 931 2432 c 1,46,47
 1027 2784 1027 2784 1244.5 2952 c 0,48,49
 1443.08695652 3105.39130435 1443.08695652 3105.39130435 1680.43856333 3105.39130435 c 0,50,51
 1703.04347826 3105.39130435 1703.04347826 3105.39130435 1726 3104 c 1,52,53
 2009 3104 2009 3104 2126.5 2936 c 0,54,55
 2201.33062331 2829.00813008 2201.33062331 2829.00813008 2201.33062331 2673.34593606 c 0,56,57
 2201.33062331 2584.58536585 2201.33062331 2584.58536585 2177 2480 c 0,58,59
 2111 2192 2111 2192 1891.5 1952 c 128,-1,60
 1672 1712 1672 1712 1453 1568 c 0,61,62
 1386 1524 1386 1524 1311 1475 c 1,63,64
 1415 1175 1415 1175 1655 744 c 1,65,66
 1791 900 1791 900 1884 1080 c 0,67,68
 2045 1392 2045 1392 2171 1808 c 1,69,-1
 2453 1808 l 1,70,71
 2301 1280 2301 1280 2072 896 c 0,72,73
 1945 683 1945 683 1791 509 c 1,74,75
 1933 272 1933 272 2110 0 c 1,76,-1
 1709 0 l 1,77,78
 1628 142 1628 142 1555 277 c 1,79,80
 1542 266 1542 266 1530 256 c 0,81,82
 1218 0 1218 0 846 0 c 0,31,32
EndSplineSet
EndChar

StartChar: quotesingle
Encoding: 39 39 10
Width: 766
GlyphClass: 2
Flags: W
LayerCount: 2
Fore
SplineSet
1338 3104 m 1,0,-1
 1201 2512 l 2,1,2
 1027 1760 1027 1760 574 1728 c 1,3,-1
 640 2016 l 1,4,5
 848 2016 848 2016 967 2528 c 1,6,-1
 758 2528 l 1,7,-1
 891 3104 l 1,8,-1
 1338 3104 l 1,0,-1
EndSplineSet
EndChar

StartChar: parenleft
Encoding: 40 40 11
Width: 1153
GlyphClass: 2
Flags: W
LayerCount: 2
Fore
SplineSet
919 -384 m 1,0,-1
 696 -512 l 1,1,2
 424.471248247 -18.3113604488 424.471248247 -18.3113604488 424.471248247 621.614362796 c 0,3,4
 424.471248247 1018.65918654 424.471248247 1018.65918654 529 1472 c 0,5,6
 795 2624 795 2624 1608 3440 c 1,7,-1
 1772 3312 l 1,8,9
 1048 2496 1048 2496 812 1472 c 0,10,11
 710.00331675 1031.11111111 710.00331675 1031.11111111 710.00331675 638.937056013 c 0,12,13
 710.00331675 77.5588723051 710.00331675 77.5588723051 919 -384 c 1,0,-1
EndSplineSet
EndChar

StartChar: parenright
Encoding: 41 41 12
Width: 1153
GlyphClass: 2
Flags: W
LayerCount: 2
Fore
SplineSet
1133 3440 m 1,0,1
 1428.68137931 2908.66758621 1428.68137931 2908.66758621 1428.68137931 2253.3529113 c 0,2,3
 1428.68137931 1882.52689655 1428.68137931 1882.52689655 1334 1472 c 0,4,5
 1061 288 1061 288 221 -512 c 1,6,-1
 57 -384 l 1,7,8
 789 400 789 400 1036 1472 c 0,9,10
 1129.13712375 1876.12040134 1129.13712375 1876.12040134 1129.13712375 2247.84528137 c 0,11,12
 1129.13712375 2818.03344482 1129.13712375 2818.03344482 910 3312 c 1,13,-1
 1133 3440 l 1,0,1
EndSplineSet
EndChar

StartChar: asterisk
Encoding: 42 42 13
Width: 1898
GlyphClass: 2
Flags: W
LayerCount: 2
Fore
SplineSet
2004 1024 m 1,0,-1
 1718 688 l 1,1,-1
 1367 1296 l 1,2,-1
 1113 0 l 1,3,-1
 785 0 l 1,4,-1
 1129 1296 l 1,5,-1
 513 688 l 1,6,-1
 382 1024 l 1,7,-1
 1084 1552 l 1,8,-1
 629 2096 l 1,9,-1
 912 2416 l 1,10,-1
 1255 1840 l 1,11,-1
 1502 3104 l 1,12,-1
 1829 3104 l 1,13,-1
 1493 1840 l 1,14,-1
 2117 2416 l 1,15,-1
 2237 2096 l 1,16,-1
 1546 1552 l 1,17,-1
 2004 1024 l 1,0,-1
EndSplineSet
EndChar

StartChar: plus
Encoding: 43 43 14
Width: 1899
GlyphClass: 2
Flags: W
LayerCount: 2
Fore
SplineSet
2097 1360 m 1,0,-1
 1398 1360 l 1,1,-1
 1084 0 l 1,2,-1
 816 0 l 1,3,-1
 1130 1360 l 1,4,-1
 416 1360 l 1,5,-1
 479 1632 l 1,6,-1
 1193 1632 l 1,7,-1
 1496 2944 l 1,8,-1
 1764 2944 l 1,9,-1
 1461 1632 l 1,10,-1
 2160 1632 l 1,11,-1
 2097 1360 l 1,0,-1
EndSplineSet
EndChar

StartChar: comma
Encoding: 44 44 15
Width: 767
GlyphClass: 2
Flags: W
LayerCount: 2
Fore
SplineSet
806 800 m 1,0,-1
 673 224 l 2,1,2
 492 -560 492 -560 27 -576 c 1,3,-1
 94 -288 l 1,4,5
 317 -288 317 -288 435 224 c 1,6,-1
 212 224 l 1,7,-1
 345 800 l 1,8,-1
 806 800 l 1,0,-1
EndSplineSet
EndChar

StartChar: hyphen
Encoding: 45 45 16
Width: 1892
GlyphClass: 2
Flags: W
LayerCount: 2
Fore
SplineSet
1852 1088 m 1,0,-1
 528 1088 l 1,1,-1
 580 1312 l 1,2,-1
 1904 1312 l 1,3,-1
 1852 1088 l 1,0,-1
EndSplineSet
EndChar

StartChar: period
Encoding: 46 46 17
Width: 765
GlyphClass: 2
Flags: W
LayerCount: 2
Fore
SplineSet
591 0 m 1,0,-1
 189 0 l 1,1,-1
 374 800 l 1,2,-1
 776 800 l 1,3,-1
 591 0 l 1,0,-1
EndSplineSet
EndChar

StartChar: slash
Encoding: 47 47 18
Width: 1895
GlyphClass: 2
Flags: W
LayerCount: 2
Fore
SplineSet
2438 3232 m 1,0,-1
 368 -384 l 1,1,-1
 141 -272 l 1,2,-1
 2192 3328 l 1,3,-1
 2438 3232 l 1,0,-1
EndSplineSet
EndChar

StartChar: zero
Encoding: 48 48 19
Width: 1895
GlyphClass: 2
Flags: W
CounterMasks: 1 38
LayerCount: 2
Fore
SplineSet
1161 1568 m 0,0,1
 1209 1776 1209 1776 1270 1880 c 128,-1,2
 1331 1984 1331 1984 1406 1984 c 0,3,4
 1480 1984 1480 1984 1493.5 1880 c 0,5,6
 1496.46341463 1857.17073171 1496.46341463 1857.17073171 1496.46341463 1829.33016062 c 0,7,8
 1496.46341463 1730.34146341 1496.46341463 1730.34146341 1459 1568 c 0,9,10
 1411 1360 1411 1360 1349.5 1256 c 128,-1,11
 1288 1152 1288 1152 1214 1152 c 128,-1,12
 1140 1152 1140 1152 1126.5 1256 c 0,13,14
 1123.53658537 1278.82926829 1123.53658537 1278.82926829 1123.53658537 1306.66983938 c 0,15,16
 1123.53658537 1405.65853659 1123.53658537 1405.65853659 1161 1568 c 0,0,1
859 0 m 2,17,18
 606 0 606 0 493.5 384 c 0,19,20
 450.957983193 529.210084034 450.957983193 529.210084034 450.957983193 733.907492409 c 0,21,22
 450.957983193 1070.5210084 450.957983193 1070.5210084 566 1568 c 0,23,24
 754 2384 754 2384 1045.5 2744 c 128,-1,25
 1337 3104 1337 3104 1575 3104 c 2,26,-1
 1754 3104 l 2,27,28
 1992 3104 1992 3104 2117 2744 c 0,29,30
 2166.9201278 2600.23003195 2166.9201278 2600.23003195 2166.9201278 2383.73297676 c 0,31,32
 2166.9201278 2058.12140575 2166.9201278 2058.12140575 2054 1568 c 0,33,34
 1873 784 1873 784 1581.5 392 c 128,-1,35
 1290 0 1290 0 1037 0 c 2,36,-1
 859 0 l 2,17,18
1014 288 m 128,-1,38
 1222 288 1222 288 1441.5 624 c 128,-1,39
 1661 960 1661 960 1786 1568 c 1,40,41
 1880.34133333 1976.576 1880.34133333 1976.576 1880.34133333 2268.42032356 c 0,42,43
 1880.34133333 2388.01066667 1880.34133333 2388.01066667 1864.5 2488 c 0,44,45
 1810 2832 1810 2832 1602 2832 c 128,-1,46
 1394 2832 1394 2832 1180.5 2488 c 128,-1,47
 967 2144 967 2144 837 1584 c 0,48,49
 730.927360775 1125.30750605 730.927360775 1125.30750605 730.927360775 826.879726093 c 0,50,51
 730.927360775 708.920096852 730.927360775 708.920096852 747.5 616 c 0,52,37
 806 288 806 288 1014 288 c 128,-1,38
EndSplineSet
EndChar

StartChar: one
Encoding: 49 49 20
Width: 1888
GlyphClass: 2
Flags: W
LayerCount: 2
Fore
SplineSet
1795 3104 m 1,0,-1
 1137 256 l 1,1,-1
 1584 256 l 1,2,-1
 1525 0 l 1,3,-1
 364 0 l 1,4,-1
 423 256 l 1,5,-1
 870 256 l 1,6,-1
 1368 2416 l 1,7,-1
 922 2416 l 1,8,-1
 981 2672 l 1,9,-1
 1130 2672 l 2,10,11
 1368 2672 1368 2672 1572 3104 c 1,12,-1
 1795 3104 l 1,0,-1
EndSplineSet
EndChar

StartChar: two
Encoding: 50 50 21
Width: 1893
GlyphClass: 2
Flags: W
LayerCount: 2
Fore
SplineSet
1631 0 m 1,0,-1
 262 0 l 1,1,-1
 325 272 l 1,2,3
 540 752 540 752 1017.5 1144 c 128,-1,4
 1495 1536 1495 1536 1667.5 1800 c 128,-1,5
 1840 2064 1840 2064 1906 2352 c 0,6,7
 1927.28066914 2444.28252788 1927.28066914 2444.28252788 1927.28066914 2518.2114675 c 0,8,9
 1927.28066914 2816 1927.28066914 2816 1582 2816 c 0,10,11
 1374 2816 1374 2816 1240 2656 c 128,-1,12
 1106 2496 1106 2496 1058 2288 c 1,13,-1
 790 2288 l 1,14,15
 871 2640 871 2640 1088.5 2872 c 128,-1,16
 1306 3104 1306 3104 1544 3104 c 2,17,-1
 1752 3104 l 2,18,19
 2005 3104 2005 3104 2128.5 2896 c 0,20,21
 2204.19354839 2768.51612903 2204.19354839 2768.51612903 2204.19354839 2592.94901145 c 0,22,23
 2204.19354839 2482.06451613 2204.19354839 2482.06451613 2174 2352 c 0,24,25
 2078 1936 2078 1936 1859 1632 c 128,-1,26
 1640 1328 1640 1328 1188.5 952 c 128,-1,27
 737 576 737 576 637 272 c 1,28,-1
 1694 272 l 1,29,-1
 1631 0 l 1,0,-1
EndSplineSet
EndChar

StartChar: three
Encoding: 51 51 22
Width: 1893
GlyphClass: 2
Flags: W
LayerCount: 2
Fore
SplineSet
1442 1952 m 1,0,1
 1598 1920 1598 1920 1713.5 1808 c 128,-1,2
 1829 1696 1829 1696 1879.5 1496 c 0,3,4
 1900.66390041 1412.18257261 1900.66390041 1412.18257261 1900.66390041 1310.09920628 c 0,5,6
 1900.66390041 1168.59751037 1900.66390041 1168.59751037 1860 992 c 0,7,8
 1749 512 1749 512 1481.5 256 c 128,-1,9
 1214 0 1214 0 813 0 c 0,10,11
 649 0 649 0 511.5 48 c 128,-1,12
 374 96 374 96 299 160 c 1,13,-1
 369 464 l 1,14,15
 496 368 496 368 626 320 c 128,-1,16
 756 272 756 272 875 272 c 0,17,18
 1173 272 1173 272 1342 456 c 128,-1,19
 1511 640 1511 640 1592 992 c 0,20,21
 1621.44086022 1119.31182796 1621.44086022 1119.31182796 1621.44086022 1226.36327899 c 0,22,23
 1621.44086022 1388.38709677 1621.44086022 1388.38709677 1554 1504 c 0,24,25
 1442 1696 1442 1696 1204 1696 c 0,26,27
 1115 1696 1115 1696 1033 1664 c 1,28,-1
 1092 1920 l 1,29,-1
 1961 2848 l 1,30,-1
 920 2848 l 1,31,-1
 979 3104 l 1,32,-1
 2348 3104 l 1,33,-1
 2289 2848 l 1,34,-1
 1442 1952 l 1,0,1
EndSplineSet
EndChar

StartChar: four
Encoding: 52 52 23
Width: 1898
GlyphClass: 2
Flags: W
LayerCount: 2
Fore
SplineSet
1926 688 m 1,0,-1
 1539 688 l 1,1,-1
 1381 0 l 1,2,-1
 1128 0 l 1,3,-1
 1287 688 l 1,4,-1
 304 688 l 1,5,-1
 360 928 l 1,6,-1
 1844 3104 l 1,7,-1
 2097 3104 l 1,8,-1
 1599 944 l 1,9,-1
 1985 944 l 1,10,-1
 1926 688 l 1,0,-1
1346 944 m 1,11,-1
 1708 2512 l 1,12,-1
 646 944 l 1,13,-1
 1346 944 l 1,11,-1
EndSplineSet
EndChar

StartChar: five
Encoding: 53 53 24
Width: 1893
GlyphClass: 2
Flags: W
LayerCount: 2
Fore
SplineSet
1010 2080 m 1,0,1
 1118 2096 1118 2096 1192 2096 c 0,2,3
 1624 2096 1624 2096 1808.5 1832 c 0,4,5
 1921.02975207 1670.98181818 1921.02975207 1670.98181818 1921.02975207 1417.70783963 c 0,6,7
 1921.02975207 1255.72231405 1921.02975207 1255.72231405 1875 1056 c 0,8,9
 1772 608 1772 608 1478.5 304 c 128,-1,10
 1185 0 1185 0 738 0 c 0,11,12
 455 0 455 0 281 80 c 1,13,-1
 347 368 l 1,14,15
 563 272 563 272 801 272 c 0,16,17
 1099 272 1099 272 1308.5 504 c 128,-1,18
 1518 736 1518 736 1592 1056 c 0,19,20
 1628.248394 1213.60171306 1628.248394 1213.60171306 1628.248394 1338.91363618 c 0,21,22
 1628.248394 1531.64882227 1628.248394 1531.64882227 1542.5 1648 c 0,23,24
 1401 1840 1401 1840 1133 1840 c 0,25,26
 910 1840 910 1840 668 1760 c 1,27,-1
 979 3104 l 1,28,-1
 2348 3104 l 1,29,-1
 2289 2848 l 1,30,-1
 1187 2848 l 1,31,-1
 1010 2080 l 1,0,1
EndSplineSet
EndChar

StartChar: six
Encoding: 54 54 25
Width: 1893
GlyphClass: 2
Flags: W
LayerCount: 2
Fore
SplineSet
1357 1712 m 128,-1,1
 1178 1712 1178 1712 1013 1512 c 128,-1,2
 848 1312 848 1312 774 992 c 0,3,4
 733.134328358 815.28358209 733.134328358 815.28358209 733.134328358 677.603029628 c 0,5,6
 733.134328358 565.970149254 733.134328358 565.970149254 760 480 c 0,7,8
 820 288 820 288 1028 288 c 0,9,10
 1207 288 1207 288 1362.5 480 c 128,-1,11
 1518 672 1518 672 1592 992 c 0,12,13
 1631.39568345 1162.35971223 1631.39568345 1162.35971223 1631.39568345 1298.70876249 c 0,14,15
 1631.39568345 1418.47482014 1631.39568345 1418.47482014 1601 1512 c 0,16,0
 1536 1712 1536 1712 1357 1712 c 128,-1,1
1107 1920 m 1,17,18
 1248 2016 1248 2016 1382 2016 c 2,19,-1
 1486 2016 l 2,20,21
 1739 2016 1739 2016 1857 1752 c 0,22,23
 1916.75965665 1618.30042918 1916.75965665 1618.30042918 1916.75965665 1425.09768093 c 0,24,25
 1916.75965665 1236.80686695 1916.75965665 1236.80686695 1860 992 c 0,26,27
 1753 528 1753 528 1513.5 264 c 128,-1,28
 1274 0 1274 0 1021 0 c 2,29,-1
 887 0 l 2,30,31
 634 0 634 0 511 272 c 0,32,33
 444.057522124 420.03539823 444.057522124 420.03539823 444.057522124 620.20299162 c 0,34,35
 444.057522124 787.82300885 444.057522124 787.82300885 491 992 c 0,36,37
 639 1632 639 1632 947 2128 c 128,-1,38
 1255 2624 1255 2624 1663 3104 c 1,39,-1
 1991 3104 l 1,40,41
 1426 2464 1426 2464 1107 1920 c 1,17,18
EndSplineSet
EndChar

StartChar: seven
Encoding: 55 55 26
Width: 1893
GlyphClass: 2
Flags: W
LayerCount: 2
Fore
SplineSet
2289 2848 m 1,0,1
 1458 1376 1458 1376 857 0 c 1,2,-1
 575 0 l 1,3,4
 1186 1424 1186 1424 2006 2848 c 1,5,-1
 920 2848 l 1,6,-1
 979 3104 l 1,7,-1
 2348 3104 l 1,8,-1
 2289 2848 l 1,0,1
EndSplineSet
EndChar

StartChar: eight
Encoding: 56 56 27
Width: 1893
GlyphClass: 2
Flags: W
LayerCount: 2
Fore
SplineSet
1279 1440 m 1,0,1
 837 1200 837 1200 729 800 c 1,2,3
 718.528846154 734 718.528846154 734 718.528846154 674.443786982 c 0,4,5
 718.528846154 546.307692308 718.528846154 546.307692308 767 448 c 0,6,7
 838 304 838 304 1017 304 c 0,8,9
 1210 304 1210 304 1345.5 440 c 128,-1,10
 1481 576 1481 576 1537 816 c 1,11,12
 1550.19059406 885.386138614 1550.19059406 885.386138614 1550.19059406 950.070679345 c 0,13,14
 1550.19059406 1243.36633663 1550.19059406 1243.36633663 1279 1440 c 1,0,1
1338 1696 m 1,15,16
 1743 1904 1743 1904 1839 2320 c 0,17,18
 1866.62698413 2439.87301587 1866.62698413 2439.87301587 1866.62698413 2531.68052406 c 0,19,20
 1866.62698413 2635.93650794 1866.62698413 2635.93650794 1831 2704 c 0,21,22
 1764 2832 1764 2832 1600 2832 c 128,-1,23
 1436 2832 1436 2832 1301 2696 c 128,-1,24
 1166 2560 1166 2560 1110 2320 c 1,25,26
 1091.84673367 2227.73869347 1091.84673367 2227.73869347 1091.84673367 2146.4240802 c 0,27,28
 1091.84673367 1846.99497487 1091.84673367 1846.99497487 1338 1696 c 1,15,16
1621 1568 m 1,29,30
 1844.12562814 1328.40201005 1844.12562814 1328.40201005 1844.12562814 1026.01489861 c 0,31,32
 1844.12562814 924.542713568 1844.12562814 924.542713568 1819 816 c 0,33,34
 1738 464 1738 464 1498.5 232 c 128,-1,35
 1259 0 1259 0 1036 0 c 2,36,-1
 857 0 l 2,37,38
 649 0 649 0 505.5 216 c 0,39,40
 415.380743982 351.649890591 415.380743982 351.649890591 415.380743982 547.247820195 c 0,41,42
 415.380743982 663.107221007 415.380743982 663.107221007 447 800 c 0,43,44
 554 1264 554 1264 996 1568 c 1,45,46
 797.107049608 1775.54046997 797.107049608 1775.54046997 797.107049608 2074.47822263 c 0,47,48
 797.107049608 2190.37075718 797.107049608 2190.37075718 827 2320 c 0,49,50
 908 2672 908 2672 1129.5 2888 c 128,-1,51
 1351 3104 1351 3104 1589 3104 c 2,52,-1
 1752 3104 l 2,53,54
 1975 3104 1975 3104 2089 2888 c 0,55,56
 2155.64615385 2761.72307692 2155.64615385 2761.72307692 2155.64615385 2588.96473373 c 0,57,58
 2155.64615385 2466.21538462 2155.64615385 2466.21538462 2122 2320 c 0,59,60
 2011 1840 2011 1840 1621 1568 c 1,29,30
EndSplineSet
EndChar

StartChar: nine
Encoding: 57 57 28
Width: 1893
GlyphClass: 2
Flags: W
LayerCount: 2
Fore
SplineSet
1253 1392 m 128,-1,1
 1432 1392 1432 1392 1597 1592 c 128,-1,2
 1762 1792 1762 1792 1836 2112 c 0,3,4
 1876.86567164 2288.71641791 1876.86567164 2288.71641791 1876.86567164 2426.39697037 c 0,5,6
 1876.86567164 2538.02985075 1876.86567164 2538.02985075 1850 2624 c 0,7,8
 1790 2816 1790 2816 1582 2816 c 0,9,10
 1403 2816 1403 2816 1247 2624 c 128,-1,11
 1091 2432 1091 2432 1018 2112 c 0,12,13
 978.604316547 1941.64028777 978.604316547 1941.64028777 978.604316547 1805.29123751 c 0,14,15
 978.604316547 1685.52517986 978.604316547 1685.52517986 1009 1592 c 0,16,0
 1074 1392 1074 1392 1253 1392 c 128,-1,1
1518 1184 m 1,17,18
 1362 1088 1362 1088 1242 1088 c 2,19,-1
 1123 1088 l 2,20,21
 870 1088 870 1088 752.5 1352 c 0,22,23
 693.11827957 1485.41935484 693.11827957 1485.41935484 693.11827957 1678.09272748 c 0,24,25
 693.11827957 1866.66666667 693.11827957 1866.66666667 750 2112 c 0,26,27
 861 2592 861 2592 1098.5 2848 c 128,-1,28
 1336 3104 1336 3104 1589 3104 c 2,29,-1
 1723 3104 l 2,30,31
 1991 3104 1991 3104 2106.5 2832 c 0,32,33
 2167.55377574 2688.21967963 2167.55377574 2688.21967963 2167.55377574 2495.2610319 c 0,34,35
 2167.55377574 2323.18535469 2167.55377574 2323.18535469 2119 2112 c 0,36,37
 1971 1472 1971 1472 1670.5 976 c 128,-1,38
 1370 480 1370 480 947 0 c 1,39,-1
 619 0 l 1,40,41
 1199 640 1199 640 1518 1184 c 1,17,18
EndSplineSet
EndChar

StartChar: colon
Encoding: 58 58 29
Width: 766
GlyphClass: 2
Flags: W
LayerCount: 2
Fore
SplineSet
673 352 m 1,0,-1
 256 352 l 1,1,-1
 415 1040 l 1,2,-1
 831 1040 l 1,3,-1
 673 352 l 1,0,-1
1009 1808 m 1,4,-1
 592 1808 l 1,5,-1
 747 2480 l 1,6,-1
 1164 2480 l 1,7,-1
 1009 1808 l 1,4,-1
EndSplineSet
EndChar

StartChar: semicolon
Encoding: 59 59 30
Width: 766
GlyphClass: 2
Flags: W
LayerCount: 2
Fore
SplineSet
1009 1808 m 1,0,-1
 592 1808 l 1,1,-1
 747 2480 l 1,2,-1
 1164 2480 l 1,3,-1
 1009 1808 l 1,0,-1
783 832 m 1,4,-1
 632 176 l 2,5,6
 462 -560 462 -560 42 -576 c 1,7,-1
 108 -288 l 1,8,9
 316 -288 316 -288 424 176 c 1,10,-1
 215 176 l 1,11,-1
 367 832 l 1,12,-1
 783 832 l 1,4,-1
EndSplineSet
EndChar

StartChar: less
Encoding: 60 60 31
Width: 1896
GlyphClass: 2
Flags: W
LayerCount: 2
Fore
SplineSet
1855 576 m 1,0,-1
 1603 320 l 1,1,-1
 492 1376 l 1,2,-1
 548 1616 l 1,3,-1
 2138 2640 l 1,4,-1
 2276 2400 l 1,5,-1
 849 1504 l 1,6,-1
 1855 576 l 1,0,-1
EndSplineSet
EndChar

StartChar: equal
Encoding: 61 61 32
Width: 1898
GlyphClass: 2
Flags: W
LayerCount: 2
Fore
SplineSet
1945 768 m 1,0,-1
 308 768 l 1,1,-1
 360 992 l 1,2,-1
 1997 992 l 1,3,-1
 1945 768 l 1,0,-1
2122 1536 m 1,4,-1
 486 1536 l 1,5,-1
 537 1760 l 1,6,-1
 2174 1760 l 1,7,-1
 2122 1536 l 1,4,-1
EndSplineSet
EndChar

StartChar: greater
Encoding: 62 62 33
Width: 1896
GlyphClass: 2
Flags: W
LayerCount: 2
Fore
SplineSet
711 2384 m 1,0,-1
 963 2640 l 1,1,-1
 2073 1584 l 1,2,-1
 2018 1344 l 1,3,-1
 427 320 l 1,4,-1
 289 560 l 1,5,-1
 1716 1456 l 1,6,-1
 711 2384 l 1,0,-1
EndSplineSet
EndChar

StartChar: question
Encoding: 63 63 34
Width: 1717
GlyphClass: 2
Flags: W
LayerCount: 2
Fore
SplineSet
1008 0 m 1,0,-1
 665 0 l 1,1,-1
 787 528 l 1,2,-1
 1130 528 l 1,3,-1
 1008 0 l 1,0,-1
865 2928 m 1,4,5
 1084 3040 1084 3040 1225.5 3072 c 128,-1,6
 1367 3104 1367 3104 1575 3104 c 0,7,8
 2104.98819362 3104 2104.98819362 3104 2104.98819362 2623.44399917 c 0,9,10
 2104.98819362 2496.49114522 2104.98819362 2496.49114522 2068 2336 c 0,11,12
 1953 1840 1953 1840 1541 1536 c 1,13,14
 1240 1264 1240 1264 1211 1072 c 1,15,-1
 1188 976 l 1,16,-1
 921 976 l 1,17,-1
 943 1072 l 1,18,19
 1002 1392 1002 1392 1340 1696 c 1,20,21
 1689 1984 1689 1984 1770 2336 c 0,22,23
 1795.50931677 2446.31055901 1795.50931677 2446.31055901 1795.50931677 2531.2702442 c 0,24,25
 1795.50931677 2816 1795.50931677 2816 1509 2816 c 0,26,27
 1330 2816 1330 2816 1189 2784 c 128,-1,28
 1048 2752 1048 2752 791 2608 c 1,29,-1
 865 2928 l 1,4,5
EndSplineSet
EndChar

StartChar: at
Encoding: 64 64 35
Width: 2540
GlyphClass: 2
Flags: W
LayerCount: 2
Fore
SplineSet
1713 2272 m 0,0,1
 1579 2272 1579 2272 1471.5 2096 c 128,-1,2
 1364 1920 1364 1920 1264 1552 c 1,3,4
 1203.80733945 1290.42201835 1203.80733945 1290.42201835 1203.80733945 1130.45366552 c 0,5,6
 1203.80733945 1075.1559633 1203.80733945 1075.1559633 1211 1032 c 0,7,8
 1239 864 1239 864 1388 864 c 0,9,10
 1552 864 1552 864 1722 1024 c 1,11,-1
 1977 2128 l 1,12,13
 1877 2272 1877 2272 1713 2272 c 0,0,1
2193 96 m 1,14,15
 1784 0 1784 0 1308 0 c 0,16,17
 713 0 713 0 483.5 360 c 0,18,19
 353.929889299 563.247232472 353.929889299 563.247232472 353.929889299 896.542694135 c 0,20,21
 353.929889299 1153.59409594 353.929889299 1153.59409594 431 1488 c 0,22,23
 601 2224 601 2224 1022.5 2664 c 128,-1,24
 1444 3104 1444 3104 2039 3104 c 0,25,26
 2515 3104 2515 3104 2753.5 2752 c 0,27,28
 2898.05463787 2538.65311309 2898.05463787 2538.65311309 2898.05463787 2207.752264 c 0,29,30
 2898.05463787 1992.70139771 2898.05463787 1992.70139771 2837 1728 c 0,31,32
 2645 896 2645 896 2229 576 c 1,33,-1
 1634 576 l 1,34,-1
 1667 720 l 1,35,36
 1489 592 1489 592 1325 592 c 0,37,38
 1057 592 1057 592 965.5 840 c 0,39,40
 923.322418136 954.317380353 923.322418136 954.317380353 923.322418136 1114.53076918 c 0,41,42
 923.322418136 1301.88413098 923.322418136 1301.88413098 981 1552 c 0,43,44
 1084 2000 1084 2000 1298 2280 c 128,-1,45
 1512 2560 1512 2560 1780 2560 c 0,46,47
 1959 2560 1959 2560 2059 2416 c 1,48,-1
 2092 2560 l 1,49,-1
 2360 2560 l 1,50,-1
 1961 832 l 1,51,-1
 2184 832 l 1,52,53
 2444 1184 2444 1184 2570 1728 c 0,54,55
 2624.65024631 1965.24137931 2624.65024631 1965.24137931 2624.65024631 2150.79385571 c 0,56,57
 2624.65024631 2403.23152709 2624.65024631 2403.23152709 2523.5 2560 c 0,58,59
 2348 2832 2348 2832 1976 2832 c 0,60,61
 1500 2832 1500 2832 1169.5 2464 c 128,-1,62
 839 2096 839 2096 699 1488 c 0,63,64
 627.535073409 1178.96247961 627.535073409 1178.96247961 627.535073409 953.864187839 c 0,65,66
 627.535073409 712.796084829 627.535073409 712.796084829 709.5 568 c 0,67,68
 868 288 868 288 1370 272 c 1,69,70
 1816 272 1816 272 2259 384 c 1,71,-1
 2193 96 l 1,14,15
EndSplineSet
EndChar

StartChar: A
Encoding: 65 65 36
Width: 2404
GlyphClass: 2
Flags: W
LayerCount: 2
Fore
SplineSet
1845 2784 m 1,0,-1
 1120 1344 l 1,1,-1
 1897 1344 l 1,2,-1
 1845 2784 l 1,0,-1
146 0 m 1,3,-1
 1755 3104 l 1,4,-1
 2097 3104 l 1,5,-1
 2259 0 l 1,6,-1
 1946 0 l 1,7,-1
 1907 1072 l 1,8,-1
 983 1072 l 1,9,-1
 443 0 l 1,10,-1
 146 0 l 1,3,-1
EndSplineSet
EndChar

StartChar: B
Encoding: 66 66 37
Width: 2415
GlyphClass: 2
Flags: W
LayerCount: 2
Fore
SplineSet
976 1808 m 1,0,-1
 1825 1808 l 2,1,2
 2004 1808 2004 1808 2161.5 1944 c 128,-1,3
 2319 2080 2319 2080 2382 2352 c 0,4,5
 2401.70684039 2437.99348534 2401.70684039 2437.99348534 2401.70684039 2508.58097168 c 0,6,7
 2401.70684039 2634.99674267 2401.70684039 2634.99674267 2338.5 2712 c 0,8,9
 2240 2832 2240 2832 2061 2832 c 2,10,-1
 1213 2832 l 1,11,-1
 976 1808 l 1,0,-1
2171 1696 m 1,12,13
 2476.81818182 1467.01298701 2476.81818182 1467.01298701 2476.81818182 1083.69843144 c 0,14,15
 2476.81818182 958.12987013 2476.81818182 958.12987013 2444 816 c 0,16,17
 2352 416 2352 416 2095.5 208 c 128,-1,18
 1839 0 1839 0 1511 0 c 2,19,-1
 291 0 l 1,20,-1
 1008 3104 l 1,21,-1
 2124 3104 l 2,22,23
 2407 3104 2407 3104 2576.5 2904 c 0,24,25
 2690.73558648 2769.20874751 2690.73558648 2769.20874751 2690.73558648 2565.37650439 c 0,26,27
 2690.73558648 2466.76739563 2690.73558648 2466.76739563 2664 2352 c 1,28,29
 2565 1920 2565 1920 2171 1696 c 1,12,13
626 288 m 1,30,-1
 1578 288 l 2,31,32
 1771 288 1771 288 1942 416 c 128,-1,33
 2113 544 2113 544 2176 816 c 0,34,35
 2207.34490239 951.704989154 2207.34490239 951.704989154 2207.34490239 1061.30055853 c 0,36,37
 2207.34490239 1248.90238612 2207.34490239 1248.90238612 2115.5 1360 c 0,38,39
 1970 1536 1970 1536 1762 1536 c 2,40,-1
 914 1536 l 1,41,-1
 626 288 l 1,30,-1
EndSplineSet
EndChar

StartChar: C
Encoding: 67 67 38
Width: 2520
GlyphClass: 2
Flags: W
LayerCount: 2
Fore
SplineSet
2582 1152 m 1,0,1
 2471 672 2471 672 2118.5 336 c 128,-1,2
 1766 0 1766 0 1290 0 c 0,3,4
 769 0 769 0 591.5 424 c 0,5,6
 501.86628734 638.110953058 501.86628734 638.110953058 501.86628734 935.863037703 c 0,7,8
 501.86628734 1227.74395448 501.86628734 1227.74395448 588 1600 c 0,9,10
 747 2288 747 2288 1123.5 2696 c 128,-1,11
 1500 3104 1500 3104 1917 3104 c 2,12,-1
 2111 3104 l 2,13,14
 2438 3104 2438 3104 2673 2832 c 0,15,16
 2832.60982659 2647.26011561 2832.60982659 2647.26011561 2832.60982659 2366.56981523 c 0,17,18
 2832.60982659 2233.98843931 2832.60982659 2233.98843931 2797 2080 c 1,19,-1
 2529 2080 l 1,20,21
 2539.30872483 2165.90604027 2539.30872483 2165.90604027 2539.30872483 2241.48029368 c 0,22,23
 2539.30872483 2517.79865772 2539.30872483 2517.79865772 2401.5 2656 c 0,24,25
 2226 2832 2226 2832 1944 2832 c 0,26,27
 1557 2832 1557 2832 1269 2488 c 128,-1,28
 981 2144 981 2144 856 1600 c 0,29,30
 784.467153285 1289.34306569 784.467153285 1289.34306569 784.467153285 1045.51974 c 0,31,32
 784.467153285 812.145985401 784.467153285 812.145985401 850 640 c 0,33,34
 984 288 984 288 1356 288 c 0,35,36
 1654 288 1654 288 1912 504 c 128,-1,37
 2170 720 2170 720 2315 1152 c 1,38,-1
 2582 1152 l 1,0,1
EndSplineSet
EndChar

StartChar: D
Encoding: 68 68 39
Width: 2458
GlyphClass: 2
Flags: W
LayerCount: 2
Fore
SplineSet
640 288 m 1,0,-1
 1012 288 l 2,1,2
 1503 288 1503 288 1852.5 640 c 128,-1,3
 2202 992 2202 992 2335 1568 c 0,4,5
 2392.30992366 1815.64580153 2392.30992366 1815.64580153 2392.30992366 2018.49361692 c 0,6,7
 2392.30992366 2300.55572519 2392.30992366 2300.55572519 2281.5 2496 c 0,8,9
 2091 2832 2091 2832 1600 2832 c 2,10,-1
 1228 2832 l 1,11,-1
 640 288 l 1,0,-1
1008 3104 m 1,12,-1
 1663 3104 l 2,13,14
 2273 3104 2273 3104 2511.5 2688 c 0,15,16
 2658.67270375 2431.29624838 2658.67270375 2431.29624838 2658.67270375 2064.92693744 c 0,17,18
 2658.67270375 1837.57826649 2658.67270375 1837.57826649 2602 1568 c 1,19,20
 2436 848 2436 848 1996 424 c 128,-1,21
 1556 0 1556 0 946 0 c 2,22,-1
 291 0 l 1,23,-1
 1008 3104 l 1,12,-1
EndSplineSet
EndChar

StartChar: E
Encoding: 69 69 40
Width: 2144
GlyphClass: 2
Flags: W
LayerCount: 2
Fore
SplineSet
1854 0 m 1,0,-1
 291 0 l 1,1,-1
 1008 3104 l 1,2,-1
 2570 3104 l 1,3,-1
 2504 2816 l 1,4,-1
 1209 2816 l 1,5,-1
 976 1808 l 1,6,-1
 2122 1808 l 1,7,-1
 2059 1536 l 1,8,-1
 914 1536 l 1,9,-1
 629 304 l 1,10,-1
 1924 304 l 1,11,-1
 1854 0 l 1,0,-1
EndSplineSet
EndChar

StartChar: F
Encoding: 70 70 41
Width: 2086
GlyphClass: 2
Flags: W
LayerCount: 2
Fore
SplineSet
2504 2816 m 1,0,-1
 1209 2816 l 1,1,-1
 976 1808 l 1,2,-1
 1988 1808 l 1,3,-1
 1925 1536 l 1,4,-1
 914 1536 l 1,5,-1
 559 0 l 1,6,-1
 291 0 l 1,7,-1
 1008 3104 l 1,8,-1
 2570 3104 l 1,9,-1
 2504 2816 l 1,0,-1
EndSplineSet
EndChar

StartChar: G
Encoding: 71 71 42
Width: 2577
GlyphClass: 2
Flags: W
LayerCount: 2
Fore
SplineSet
2287 0 m 1,0,-1
 2019 0 l 1,1,-1
 2063 192 l 1,2,3
 1691 0 1691 0 1320 0 c 0,4,5
 829 0 829 0 610.5 376 c 0,6,7
 489.786346397 583.726927939 489.786346397 583.726927939 489.786346397 911.09924706 c 0,8,9
 489.786346397 1176.29329962 489.786346397 1176.29329962 569 1520 c 0,10,11
 743 2272 743 2272 1151.5 2688 c 128,-1,12
 1560 3104 1560 3104 1947 3104 c 2,13,-1
 2125 3104 l 2,14,15
 2452 3104 2452 3104 2672.5 2864 c 0,16,17
 2831.6497545 2690.77577741 2831.6497545 2690.77577741 2831.6497545 2450.87015196 c 0,18,19
 2831.6497545 2358.38952537 2831.6497545 2358.38952537 2808 2256 c 1,20,-1
 2525 2256 l 1,21,22
 2525.30625 2268.6 2525.30625 2268.6 2525.30625 2280.924375 c 0,23,24
 2525.30625 2550.3 2525.30625 2550.3 2379 2688 c 0,25,26
 2226 2832 2226 2832 1958 2832 c 0,27,28
 1601 2832 1601 2832 1282 2448 c 128,-1,29
 963 2064 963 2064 852 1520 c 1,30,31
 778.864774624 1203.73956594 778.864774624 1203.73956594 778.864774624 975.387916979 c 0,32,33
 778.864774624 741.6360601 778.864774624 741.6360601 855.5 600 c 0,34,35
 1007 320 1007 320 1390 304 c 1,36,37
 1747 304 1747 304 2137 512 c 1,38,-1
 2340 1392 l 1,39,-1
 1775 1392 l 1,40,-1
 1838 1664 l 1,41,-1
 2671 1664 l 1,42,-1
 2287 0 l 1,0,-1
EndSplineSet
EndChar

StartChar: H
Encoding: 72 72 43
Width: 2427
GlyphClass: 2
Flags: W
LayerCount: 2
Fore
SplineSet
2136 0 m 1,0,-1
 1854 0 l 1,1,-1
 2208 1536 l 1,2,-1
 914 1536 l 1,3,-1
 559 0 l 1,4,-1
 291 0 l 1,5,-1
 1008 3104 l 1,6,-1
 1276 3104 l 1,7,-1
 976 1808 l 1,8,-1
 2271 1808 l 1,9,-1
 2570 3104 l 1,10,-1
 2853 3104 l 1,11,-1
 2136 0 l 1,0,-1
EndSplineSet
EndChar

StartChar: I
Encoding: 73 73 44
Width: 933
GlyphClass: 2
Flags: W
LayerCount: 2
Fore
SplineSet
847 0 m 1,0,-1
 73 0 l 1,1,-1
 136 272 l 1,2,-1
 389 272 l 1,3,-1
 983 2848 l 1,4,-1
 730 2848 l 1,5,-1
 789 3104 l 1,6,-1
 1563 3104 l 1,7,-1
 1504 2848 l 1,8,-1
 1251 2848 l 1,9,-1
 656 272 l 1,10,-1
 909 272 l 1,11,-1
 847 0 l 1,0,-1
EndSplineSet
EndChar

StartChar: J
Encoding: 74 74 45
Width: 2057
GlyphClass: 2
Flags: W
LayerCount: 2
Fore
SplineSet
2483 3104 m 1,0,-1
 2002 1024 l 2,1,2
 1766 0 1766 0 739 0 c 0,3,4
 471 0 471 0 241 96 c 1,5,-1
 314 416 l 1,6,7
 556 304 556 304 809 304 c 0,8,9
 1538 304 1538 304 1720 1024 c 1,10,-1
 2200 3104 l 1,11,-1
 2483 3104 l 1,0,-1
EndSplineSet
EndChar

StartChar: K
Encoding: 75 75 46
Width: 2266
GlyphClass: 2
Flags: W
LayerCount: 2
Fore
SplineSet
559 0 m 1,0,-1
 291 0 l 1,1,-1
 1008 3104 l 1,2,-1
 1276 3104 l 1,3,-1
 975 1801 l 1,4,-1
 2451 3104 l 1,5,-1
 2823 3104 l 1,6,-1
 1492 1942 l 1,7,-1
 2107 0 l 1,8,-1
 1749 0 l 1,9,-1
 1258 1737 l 1,10,-1
 885 1412 l 1,11,-1
 559 0 l 1,0,-1
EndSplineSet
EndChar

StartChar: L
Encoding: 76 76 47
Width: 2040
GlyphClass: 2
Flags: W
LayerCount: 2
Fore
SplineSet
1749 0 m 1,0,-1
 291 0 l 1,1,-1
 1008 3104 l 1,2,-1
 1276 3104 l 1,3,-1
 622 272 l 1,4,-1
 1812 272 l 1,5,-1
 1749 0 l 1,0,-1
EndSplineSet
EndChar

StartChar: M
Encoding: 77 77 48
Width: 2814
GlyphClass: 2
Flags: W
LayerCount: 2
Fore
SplineSet
2508 0 m 1,0,-1
 2240 0 l 1,1,-1
 2868 2720 l 1,2,-1
 1737 848 l 1,3,-1
 1410 848 l 1,4,-1
 1202 2720 l 1,5,-1
 574 0 l 1,6,-1
 291 0 l 1,7,-1
 1008 3104 l 1,8,-1
 1454 3104 l 1,9,-1
 1654 1200 l 1,10,-1
 2793 3104 l 1,11,-1
 3225 3104 l 1,12,-1
 2508 0 l 1,0,-1
EndSplineSet
EndChar

StartChar: N
Encoding: 78 78 49
Width: 2427
GlyphClass: 2
Flags: W
LayerCount: 2
Fore
SplineSet
2121 0 m 1,0,-1
 1705 0 l 1,1,-1
 1180 2688 l 1,2,-1
 559 0 l 1,3,-1
 291 0 l 1,4,-1
 1008 3104 l 1,5,-1
 1380 3104 l 1,6,-1
 1939 368 l 1,7,-1
 2570 3104 l 1,8,-1
 2838 3104 l 1,9,-1
 2121 0 l 1,0,-1
EndSplineSet
EndChar

StartChar: O
Encoding: 79 79 50
Width: 2683
GlyphClass: 2
Flags: W
LayerCount: 2
Fore
SplineSet
2003 2832 m 128,-1,1
 1646 2832 1646 2832 1323 2496 c 128,-1,2
 1000 2160 1000 2160 856 1536 c 0,3,4
 787.901477833 1240.90640394 787.901477833 1240.90640394 787.901477833 1017.37775729 c 0,5,6
 787.901477833 768.236453202 787.901477833 768.236453202 872.5 608 c 0,7,8
 1033 304 1033 304 1416 288 c 1,9,10
 1773 288 1773 288 2072 584 c 128,-1,11
 2371 880 2371 880 2522 1536 c 0,12,13
 2591.81818182 1838.54545455 2591.81818182 1838.54545455 2591.81818182 2073.38842975 c 0,14,15
 2591.81818182 2322.90909091 2591.81818182 2322.90909091 2513 2496 c 0,16,0
 2360 2832 2360 2832 2003 2832 c 128,-1,1
2170 3104 m 2,17,18
 2542 3104 2542 3104 2758.5 2688 c 0,19,20
 2879.77360931 2454.97542044 2879.77360931 2454.97542044 2879.77360931 2121.54319539 c 0,21,22
 2879.77360931 1859.72574386 2879.77360931 1859.72574386 2805 1536 c 0,23,24
 2635 800 2635 800 2237.5 400 c 128,-1,25
 1840 0 1840 0 1334 0 c 0,26,27
 813 0 813 0 615.5 432 c 0,28,29
 504.843971631 674.042553191 504.843971631 674.042553191 504.843971631 991.425381017 c 0,30,31
 504.843971631 1240.5106383 504.843971631 1240.5106383 573 1536 c 0,32,33
 739 2256 739 2256 1149.5 2680 c 128,-1,34
 1560 3104 1560 3104 1962 3104 c 2,35,-1
 2170 3104 l 2,17,18
EndSplineSet
EndChar

StartChar: P
Encoding: 80 80 51
Width: 2339
GlyphClass: 2
Flags: W
LayerCount: 2
Fore
SplineSet
991 1808 m 1,0,-1
 1587 1808 l 2,1,2
 1944 1808 1944 1808 2139 1944 c 128,-1,3
 2334 2080 2334 2080 2393 2336 c 0,4,5
 2410.85128205 2413.45641026 2410.85128205 2413.45641026 2410.85128205 2478.4626956 c 0,6,7
 2410.85128205 2628.30769231 2410.85128205 2628.30769231 2316 2712 c 0,8,9
 2180 2832 2180 2832 1823 2832 c 2,10,-1
 1228 2832 l 1,11,-1
 991 1808 l 1,0,-1
1008 3104 m 1,12,-1
 1886 3104 l 2,13,14
 2347 3104 2347 3104 2548 2912 c 0,15,16
 2687.79584775 2778.46366782 2687.79584775 2778.46366782 2687.79584775 2552.05258558 c 0,17,18
 2687.79584775 2452.92733564 2687.79584775 2452.92733564 2661 2336 c 0,19,20
 2572 1952 2572 1952 2278.5 1744 c 128,-1,21
 1985 1536 1985 1536 1524 1536 c 2,22,-1
 929 1536 l 1,23,-1
 574 0 l 1,24,-1
 291 0 l 1,25,-1
 1008 3104 l 1,12,-1
EndSplineSet
EndChar

StartChar: Q
Encoding: 81 81 52
Width: 2688
GlyphClass: 2
Flags: W
LayerCount: 2
Fore
SplineSet
2170 3104 m 2,0,1
 2542 3104 2542 3104 2758.5 2688 c 0,2,3
 2879.77360931 2454.97542044 2879.77360931 2454.97542044 2879.77360931 2121.54319539 c 0,4,5
 2879.77360931 1859.72574386 2879.77360931 1859.72574386 2805 1536 c 0,6,7
 2635 800 2635 800 2238 400 c 0,8,9
 1988 149 1988 149 1696 55 c 1,10,11
 1710 -9 1710 -9 1734 -72 c 0,12,13
 1818 -288 1818 -288 2101 -288 c 0,14,15
 2280 -288 2280 -288 2358 -272 c 128,-1,16
 2436 -256 2436 -256 2644 -192 c 1,17,-1
 2574 -496 l 1,18,19
 2396 -560 2396 -560 2297 -568 c 128,-1,20
 2198 -576 2198 -576 2035 -576 c 0,21,22
 1693 -576 1693 -576 1541 -360 c 0,23,24
 1439 -214 1439 -214 1414 3 c 1,25,26
 1374 0 1374 0 1334 0 c 0,27,28
 813 0 813 0 615.5 432 c 0,29,30
 504.843971631 674.042553191 504.843971631 674.042553191 504.843971631 991.425381017 c 0,31,32
 504.843971631 1240.5106383 504.843971631 1240.5106383 573 1536 c 0,33,34
 739 2256 739 2256 1149.5 2680 c 128,-1,35
 1560 3104 1560 3104 1962 3104 c 2,36,-1
 2170 3104 l 2,0,1
1809 1024 m 1,37,38
 1717 624 1717 624 1683 384 c 0,39,40
 1680 357 1680 357 1677 330 c 1,41,42
 1886 400 1886 400 2072 584 c 0,43,44
 2371 880 2371 880 2537 1536 c 1,45,46
 2605.09852217 1831.09359606 2605.09852217 1831.09359606 2605.09852217 2061.77873765 c 0,47,48
 2605.09852217 2318.89655172 2605.09852217 2318.89655172 2520.5 2496 c 0,49,50
 2360 2832 2360 2832 2003 2832 c 128,-1,51
 1646 2832 1646 2832 1323 2496 c 128,-1,52
 1000 2160 1000 2160 856 1536 c 1,53,54
 778.688073394 1232.58715596 778.688073394 1232.58715596 778.688073394 1004.83124316 c 0,55,56
 778.688073394 764.183486239 778.688073394 764.183486239 865 608 c 0,57,58
 1032 305 1032 305 1412 288 c 1,59,60
 1435 629 1435 629 1526 1024 c 1,61,-1
 1809 1024 l 1,37,38
EndSplineSet
EndChar

StartChar: R
Encoding: 82 82 53
Width: 2370
GlyphClass: 2
Flags: W
LayerCount: 2
Fore
SplineSet
991 1808 m 1,0,-1
 1587 1808 l 2,1,2
 1944 1808 1944 1808 2139 1944 c 128,-1,3
 2334 2080 2334 2080 2393 2336 c 0,4,5
 2410.85128205 2413.45641026 2410.85128205 2413.45641026 2410.85128205 2478.4626956 c 0,6,7
 2410.85128205 2628.30769231 2410.85128205 2628.30769231 2316 2712 c 0,8,9
 2180 2832 2180 2832 1823 2832 c 2,10,-1
 1228 2832 l 1,11,-1
 991 1808 l 1,0,-1
2196 0 m 1,12,-1
 1854 0 l 1,13,-1
 1430 1536 l 1,14,-1
 929 1536 l 1,15,-1
 574 0 l 1,16,-1
 291 0 l 1,17,-1
 1008 3104 l 1,18,-1
 1886 3104 l 2,19,20
 2347 3104 2347 3104 2548 2912 c 0,21,22
 2687.79584775 2778.46366782 2687.79584775 2778.46366782 2687.79584775 2552.05258558 c 0,23,24
 2687.79584775 2452.92733564 2687.79584775 2452.92733564 2661 2336 c 0,25,26
 2572 1952 2572 1952 2279 1744 c 0,27,28
 2050 1582 2050 1582 1719 1546 c 1,29,-1
 2196 0 l 1,12,-1
EndSplineSet
EndChar

StartChar: S
Encoding: 83 83 54
Width: 2281
GlyphClass: 2
Flags: W
LayerCount: 2
Fore
SplineSet
2242 2192 m 1,0,1
 2249.20526316 2260.54736842 2249.20526316 2260.54736842 2249.20526316 2321.20686981 c 0,2,3
 2249.20526316 2572.04210526 2249.20526316 2572.04210526 2126 2688 c 0,4,5
 1973 2832 1973 2832 1750 2832 c 0,6,7
 1512 2832 1512 2832 1302 2696 c 128,-1,8
 1092 2560 1092 2560 1026 2272 c 0,9,10
 1009.70020534 2201.62628337 1009.70020534 2201.62628337 1009.70020534 2141.42738722 c 0,11,12
 1009.70020534 1968.95277207 1009.70020534 1968.95277207 1143.5 1880 c 0,13,14
 1324 1760 1324 1760 1436 1728 c 1,15,-1
 1640 1648 l 1,16,17
 1767 1616 1767 1616 1957 1504 c 128,-1,18
 2147 1392 2147 1392 2219.5 1224 c 0,19,20
 2257.45126354 1136.05776173 2257.45126354 1136.05776173 2257.45126354 1015.23356228 c 0,21,22
 2257.45126354 905.241877256 2257.45126354 905.241877256 2226 768 c 0,23,24
 2134 368 2134 368 1831 184 c 128,-1,25
 1528 0 1528 0 1141 0 c 0,26,27
 724 0 724 0 539.5 264 c 0,28,29
 404.151093439 457.669980119 404.151093439 457.669980119 404.151093439 698.698623369 c 0,30,31
 404.151093439 786.226640159 404.151093439 786.226640159 422 880 c 1,32,-1
 704 880 l 1,33,34
 703.100371747 860.371747212 703.100371747 860.371747212 703.100371747 841.171570321 c 0,35,36
 703.100371747 625.605947955 703.100371747 625.605947955 816.5 464 c 0,37,38
 940 288 940 288 1207 288 c 0,39,40
 1460 288 1460 288 1681.5 408 c 128,-1,41
 1903 528 1903 528 1958 768 c 0,42,43
 1978.05860806 854.73992674 1978.05860806 854.73992674 1978.05860806 927.960498598 c 0,44,45
 1978.05860806 1124.86446886 1978.05860806 1124.86446886 1833 1224 c 0,46,47
 1634 1360 1634 1360 1522 1392 c 1,48,-1
 1328 1456 l 1,49,50
 1179 1520 1179 1520 1024.5 1592 c 128,-1,51
 870 1664 870 1664 773 1824 c 0,52,53
 715.62804878 1918.63414634 715.62804878 1918.63414634 715.62804878 2058.04640095 c 0,54,55
 715.62804878 2154.34146341 715.62804878 2154.34146341 743 2272 c 0,56,57
 835 2672 835 2672 1145.5 2888 c 128,-1,58
 1456 3104 1456 3104 1694 3104 c 2,59,-1
 1917 3104 l 2,60,61
 2244 3104 2244 3104 2430.5 2848 c 0,62,63
 2562.50094877 2666.80834915 2562.50094877 2666.80834915 2562.50094877 2413.47955741 c 0,64,65
 2562.50094877 2308.88804554 2562.50094877 2308.88804554 2540 2192 c 1,66,-1
 2242 2192 l 1,0,1
EndSplineSet
EndChar

StartChar: T
Encoding: 84 84 55
Width: 2240
GlyphClass: 2
Flags: W
LayerCount: 2
Fore
SplineSet
2734 2832 m 1,0,-1
 1901 2832 l 1,1,-1
 1247 0 l 1,2,-1
 979 0 l 1,3,-1
 1633 2832 l 1,4,-1
 799 2832 l 1,5,-1
 862 3104 l 1,6,-1
 2797 3104 l 1,7,-1
 2734 2832 l 1,0,-1
EndSplineSet
EndChar

StartChar: U
Encoding: 85 85 56
Width: 2427
GlyphClass: 2
Flags: W
LayerCount: 2
Fore
SplineSet
2853 3104 m 1,0,-1
 2362 976 l 2,1,2
 2255 512 2255 512 1957.5 256 c 128,-1,3
 1660 0 1660 0 1229 0 c 0,4,5
 753 0 753 0 583 264 c 0,6,7
 478.667870036 426.02166065 478.667870036 426.02166065 478.667870036 663.373379035 c 0,8,9
 478.667870036 812.76534296 478.667870036 812.76534296 520 992 c 2,10,-1
 1008 3104 l 1,11,-1
 1276 3104 l 1,12,-1
 788 992 l 2,13,14
 757.503759398 860.631578947 757.503759398 860.631578947 757.503759398 752.498388829 c 0,15,16
 757.503759398 584.060150376 757.503759398 584.060150376 831.5 472 c 0,17,18
 953 288 953 288 1295 288 c 0,19,20
 1622 288 1622 288 1821 472 c 128,-1,21
 2020 656 2020 656 2094 976 c 2,22,-1
 2585 3104 l 1,23,-1
 2853 3104 l 1,0,-1
EndSplineSet
EndChar

StartChar: V
Encoding: 86 86 57
Width: 2404
GlyphClass: 2
Flags: W
LayerCount: 2
Fore
SplineSet
2990 3104 m 1,0,-1
 1410 0 l 1,1,-1
 1009 0 l 1,2,-1
 862 3104 l 1,3,-1
 1160 3104 l 1,4,-1
 1269 288 l 1,5,-1
 2692 3104 l 1,6,-1
 2990 3104 l 1,0,-1
EndSplineSet
EndChar

StartChar: W
Encoding: 87 87 58
Width: 2820
GlyphClass: 2
Flags: W
LayerCount: 2
Fore
SplineSet
3392 3104 m 1,0,-1
 2229 0 l 1,1,-1
 1797 0 l 1,2,-1
 2046 2688 l 1,3,-1
 1009 0 l 1,4,-1
 547 0 l 1,5,-1
 862 3104 l 1,6,-1
 1175 3104 l 1,7,-1
 867 352 l 1,8,-1
 1934 3104 l 1,9,-1
 2335 3104 l 1,10,-1
 2083 336 l 1,11,-1
 3079 3104 l 1,12,-1
 3392 3104 l 1,0,-1
EndSplineSet
EndChar

StartChar: X
Encoding: 88 88 59
Width: 2285
GlyphClass: 2
Flags: W
LayerCount: 2
Fore
SplineSet
488 0 m 1,0,-1
 146 0 l 1,1,-1
 1335 1559 l 1,2,-1
 877 3104 l 1,3,-1
 1204 3104 l 1,4,-1
 1575 1874 l 1,5,-1
 2514 3104 l 1,6,-1
 2841 3104 l 1,7,-1
 1670 1559 l 1,8,-1
 2140 0 l 1,9,-1
 1797 0 l 1,10,-1
 1429 1242 l 1,11,-1
 488 0 l 1,0,-1
EndSplineSet
EndChar

StartChar: Y
Encoding: 89 89 60
Width: 2240
GlyphClass: 2
Flags: W
LayerCount: 2
Fore
SplineSet
2811 3104 m 1,0,-1
 1557 1280 l 1,1,-1
 1262 0 l 1,2,-1
 979 0 l 1,3,-1
 1274 1280 l 1,4,-1
 862 3104 l 1,5,-1
 1204 3104 l 1,6,-1
 1490 1632 l 1,7,-1
 2484 3104 l 1,8,-1
 2811 3104 l 1,0,-1
EndSplineSet
EndChar

StartChar: Z
Encoding: 90 90 61
Width: 2144
GlyphClass: 2
Flags: W
LayerCount: 2
Fore
SplineSet
1854 0 m 1,0,-1
 291 0 l 1,1,-1
 358 288 l 1,2,-1
 2210 2832 l 1,3,-1
 945 2832 l 1,4,-1
 1008 3104 l 1,5,-1
 2570 3104 l 1,6,-1
 2507 2832 l 1,7,-1
 655 288 l 1,8,-1
 1920 288 l 1,9,-1
 1854 0 l 1,0,-1
EndSplineSet
EndChar

StartChar: bracketleft
Encoding: 91 91 62
Width: 1271
GlyphClass: 2
Flags: W
LayerCount: 2
Fore
SplineSet
979 -384 m 1,0,-1
 101 -384 l 1,1,-1
 958 3328 l 1,2,-1
 1865 3328 l 1,3,-1
 1806 3072 l 1,4,-1
 1151 3072 l 1,5,-1
 413 -128 l 1,6,-1
 1038 -128 l 1,7,-1
 979 -384 l 1,0,-1
EndSplineSet
EndChar

StartChar: backslash
Encoding: 92 92 63
Width: 1910
GlyphClass: 2
Flags: W
LayerCount: 2
Fore
SplineSet
1644 -272 m 1,0,-1
 1362 -400 l 1,1,-1
 932 3216 l 1,2,-1
 1229 3344 l 1,3,-1
 1644 -272 l 1,0,-1
EndSplineSet
EndChar

StartChar: bracketright
Encoding: 93 93 64
Width: 1269
GlyphClass: 2
Flags: W
LayerCount: 2
Fore
SplineSet
918 -384 m 1,0,-1
 130 -384 l 1,1,-1
 193 -112 l 1,2,-1
 713 -112 l 1,3,-1
 1452 3088 l 1,4,-1
 931 3088 l 1,5,-1
 987 3328 l 1,6,-1
 1775 3328 l 1,7,-1
 918 -384 l 1,0,-1
EndSplineSet
EndChar

StartChar: asciicircum
Encoding: 94 94 65
Width: 1569
GlyphClass: 2
Flags: W
LayerCount: 2
Fore
SplineSet
2037 2784 m 1,0,-1
 1949 2400 l 1,1,-1
 1483 3024 l 1,2,-1
 751 2432 l 1,3,-1
 839 2816 l 1,4,-1
 1571 3408 l 1,5,-1
 2037 2784 l 1,0,-1
EndSplineSet
EndChar

StartChar: underscore
Encoding: 95 95 66
Width: 1160
GlyphClass: 2
Flags: W
LayerCount: 2
Fore
SplineSet
1028 -576 m 1,0,-1
 -133 -576 l 1,1,-1
 -66 -288 l 1,2,-1
 1094 -288 l 1,3,-1
 1028 -576 l 1,0,-1
EndSplineSet
EndChar

StartChar: grave
Encoding: 96 96 67
Width: 1557
GlyphClass: 2
Flags: W
LayerCount: 2
Fore
SplineSet
1661 2528 m 1,0,-1
 1378 2528 l 1,1,-1
 1161 3200 l 1,2,-1
 1533 3200 l 1,3,-1
 1661 2528 l 1,0,-1
EndSplineSet
EndChar

StartChar: a
Encoding: 97 97 68
Width: 1764
GlyphClass: 2
Flags: W
LayerCount: 2
Fore
SplineSet
1349 452 m 1,0,-1
 1652 1767 l 1,1,2
 1488 1946 1488 1946 1310 1946 c 0,3,4
 1077 1946 1077 1946 947 1737 c 128,-1,5
 817 1528 817 1528 737 1184 c 1,6,-1
 703 1035 l 1,7,8
 652.16838488 814.237113402 652.16838488 814.237113402 652.16838488 658.71686683 c 0,9,10
 652.16838488 288 652.16838488 288 941 288 c 0,11,12
 1133 288 1133 288 1349 452 c 1,0,-1
1616 566 m 2,13,14
 1557 309 1557 309 1540 225 c 1,15,16
 1539 198 1539 198 1556.5 172 c 128,-1,17
 1574 146 1574 146 1594.5 146 c 128,-1,18
 1615 146 1615 146 1653.5 170 c 128,-1,19
 1692 194 1692 194 1714 228 c 2,20,-1
 1906 534 l 1,21,-1
 1939 484 l 1,22,23
 1787 190 1787 190 1673 64.5 c 128,-1,24
 1559 -61 1559 -61 1448 -61 c 0,25,26
 1284 -61 1284 -61 1274 128 c 1,27,28
 1094 0 1094 0 875 0 c 0,29,30
 383.409944751 0 383.409944751 0 383.409944751 561.662007875 c 0,31,32
 383.409944751 762.075138122 383.409944751 762.075138122 446 1034 c 2,33,-1
 481 1186 l 2,34,35
 614 1764 614 1764 823.5 1999 c 128,-1,36
 1033 2234 1033 2234 1268 2234 c 2,37,-1
 1391 2234 l 2,38,39
 1569 2234 1569 2234 1723 2074 c 1,40,-1
 1746 2172 l 1,41,-1
 2001 2234 l 1,42,-1
 1616 566 l 2,13,14
EndSplineSet
EndChar

StartChar: b
Encoding: 98 98 69
Width: 1787
GlyphClass: 2
Flags: W
LayerCount: 2
Fore
SplineSet
466 147 m 1,0,-1
 465.5 146.5 l 1,1,-1
 465 146 l 1,2,-1
 464 144 l 2,3,4
 463 141 463 141 464 141 c 1,5,6
 464 139 464 139 463 138 c 0,7,8
 463 137 463 137 462.5 135.5 c 128,-1,9
 462 134 462 134 462 133 c 2,10,-1
 461 130 l 1,11,-1
 460 127 l 1,12,-1
 460 125 l 1,13,-1
 460 124 l 1,14,15
 461 124 461 124 464 135 c 0,16,17
 465 140 465 140 466 147 c 1,0,-1
461 163 m 1,18,19
 455 161 455 161 450 159 c 1,20,-1
 445 137 l 1,21,-1
 455 137 l 1,22,-1
 461 163 l 1,18,19
474 166 m 1,23,-1
 465 127 l 1,24,-1
 469 127 l 1,25,-1
 478 166 l 1,26,-1
 474 166 l 1,23,-1
444 185 m 1,27,-1
 424 99 l 1,28,-1
 433 99 l 1,29,-1
 451 179 l 1,30,31
 447 184 447 184 444 185 c 1,27,-1
475 198 m 1,32,-1
 473 189 l 1,33,-1
 476 189 l 1,34,-1
 478 198 l 1,35,-1
 475 198 l 1,32,-1
505 210 m 1,36,-1
 487 134 l 1,37,-1
 488 135 l 2,38,39
 490 136 490 136 492.5 137 c 128,-1,40
 495 138 495 138 498 140 c 1,41,-1
 513 204 l 1,42,43
 510 208 510 208 505 210 c 1,36,-1
491 210 m 1,44,-1
 475 141 l 2,45,46
 473 131 473 131 476.5 124 c 128,-1,47
 480 117 480 117 487 114 c 1,48,-1
 490 125 l 1,49,50
 486 129 486 129 484.5 132.5 c 128,-1,51
 483 136 483 136 485 142 c 2,52,-1
 491 170 l 1,53,-1
 494 182 l 1,54,-1
 497 193 l 1,55,-1
 500 210 l 1,56,-1
 491 210 l 1,44,-1
484 210 m 1,57,-1
 474 169 l 1,58,-1
 479 169 l 1,59,-1
 488 210 l 1,60,-1
 484 210 l 1,57,-1
463 210 m 1,61,-1
 459 194 l 2,62,63
 456 182 456 182 459.5 172.5 c 128,-1,64
 463 163 463 163 469 159 c 1,65,-1
 472 169 l 1,66,67
 469 172 469 172 468 178 c 128,-1,68
 467 184 467 184 469 194 c 2,69,-1
 470 200 l 1,70,-1
 479 200 l 1,71,-1
 479 202 l 2,72,73
 479 203 479 203 480 205.5 c 128,-1,74
 481 208 481 208 480 210 c 1,75,-1
 463 210 l 1,61,-1
522 210 m 1,76,77
 519 209 519 209 517 208 c 1,78,-1
 499 127 l 1,79,-1
 508 127 l 1,80,-1
 526 208 l 1,81,82
 525 209 525 209 522 210 c 1,76,77
560 220 m 1,83,-1
 559.5 219.5 l 2,84,85
 559 219 559 219 559 218 c 1,86,87
 558 218 558 218 557.5 217.5 c 128,-1,88
 557 217 557 217 557 214 c 0,89,90
 557 213 557 213 556.5 212 c 128,-1,91
 556 211 556 211 556 210.5 c 2,92,-1
 556 210 l 1,93,-1
 555.5 207.5 l 2,94,95
 555 205 555 205 555 204.5 c 128,-1,96
 555 204 555 204 554.5 204 c 128,-1,97
 554 204 554 204 553 199 c 0,98,99
 552 195 552 195 552 193 c 128,-1,100
 552 191 552 191 552 190.5 c 128,-1,101
 552 190 552 190 552 189.5 c 128,-1,102
 552 189 552 189 552 188.5 c 128,-1,103
 552 188 552 188 552 187 c 128,-1,104
 552 186 552 186 552 184.5 c 2,105,-1
 552 183 l 1,106,-1
 552.5 183 l 2,107,108
 553 183 553 183 553.5 182 c 128,-1,109
 554 181 554 181 553.5 180.5 c 128,-1,110
 553 180 553 180 553.5 180 c 2,111,-1
 554 180 l 1,112,-1
 554.5 180 l 2,113,114
 555 180 555 180 555.5 179.5 c 128,-1,115
 556 179 556 179 556 178 c 1,116,-1
 557 178 l 1,117,-1
 558 177 l 1,118,-1
 558.5 177 l 2,119,120
 559 177 559 177 559 176.5 c 128,-1,121
 559 176 559 176 559.5 176 c 2,122,-1
 560 176 l 1,123,-1
 560.5 175.5 l 2,124,125
 561 175 561 175 562 175 c 128,-1,126
 563 175 563 175 563 174.5 c 128,-1,127
 563 174 563 174 563.5 174 c 2,128,-1
 564 174 l 1,129,-1
 565.5 173.5 l 2,130,131
 567 173 567 173 568.5 173 c 2,132,-1
 570 173 l 1,133,-1
 572 173 l 2,134,135
 573 173 573 173 574.5 173 c 128,-1,136
 576 173 576 173 577.5 173 c 128,-1,137
 579 173 579 173 581 173 c 0,138,139
 587 173 587 173 588 174 c 1,140,141
 588 173 588 173 589 173 c 2,142,-1
 592 174 l 2,143,144
 594 174 594 174 594 173.5 c 128,-1,145
 594 173 594 173 595 173.5 c 2,146,-1
 596 174 l 1,147,-1
 598.5 173.5 l 2,148,149
 601 173 601 173 601.5 173 c 2,150,-1
 602 173 l 1,151,-1
 613 173 l 1,152,-1
 624 173 l 1,153,-1
 625.5 173.5 l 2,154,155
 627 174 627 174 627.5 174 c 2,156,-1
 628 174 l 1,157,-1
 629 174 l 1,158,-1
 629.5 174 l 2,159,160
 630 174 630 174 630.5 174 c 128,-1,161
 631 174 631 174 632 174.5 c 128,-1,162
 633 175 633 175 633.5 175 c 2,163,-1
 634 175 l 1,164,-1
 634.5 175.5 l 1,165,-1
 635 176 l 1,166,-1
 635.5 176 l 2,167,168
 636 176 636 176 637 176.5 c 2,169,-1
 638 177 l 1,170,-1
 638.5 177.5 l 1,171,-1
 639 178 l 1,172,-1
 639.5 178.5 l 2,173,174
 640 179 640 179 640.5 179 c 2,175,-1
 641 179 l 1,176,-1
 642 179.5 l 2,177,178
 643 180 643 180 643.5 181 c 2,179,-1
 644 182 l 1,180,-1
 644.5 182.5 l 2,181,182
 645 183 645 183 645.5 183.5 c 128,-1,183
 646 184 646 184 646.5 184.5 c 128,-1,184
 647 185 647 185 647 185.5 c 2,185,-1
 647 186 l 1,186,-1
 647.5 186.5 l 2,187,188
 648 187 648 187 649 188.5 c 128,-1,189
 650 190 650 190 650 190.5 c 128,-1,190
 650 191 650 191 650 191.5 c 128,-1,191
 650 192 650 192 650.5 193.5 c 2,192,-1
 651 195 l 1,193,-1
 651 195.5 l 2,194,195
 651 196 651 196 651 198 c 1,196,-1
 651.5 198 l 2,197,198
 652 198 652 198 652 198.5 c 2,199,-1
 652 199 l 1,200,-1
 652.5 202.5 l 2,201,202
 653 206 653 206 653.5 207 c 128,-1,203
 654 208 654 208 653.5 208.5 c 128,-1,204
 653 209 653 209 652.5 209.5 c 2,205,-1
 652 210 l 1,206,-1
 651.5 206.5 l 1,207,-1
 651 203 l 1,208,-1
 651 202.5 l 2,209,210
 651 202 651 202 650.5 201 c 2,211,-1
 650 200 l 1,212,-1
 649.5 197 l 1,213,-1
 649 194 l 1,214,-1
 648.5 193.5 l 2,215,216
 648 193 648 193 648 192.5 c 128,-1,217
 648 192 648 192 647.5 190.5 c 128,-1,218
 647 189 647 189 646.5 188.5 c 2,219,-1
 646 188 l 1,220,-1
 645.5 187.5 l 2,221,222
 645 187 645 187 645 186.5 c 128,-1,223
 645 186 645 186 644.5 186 c 128,-1,224
 644 186 644 186 644 185.5 c 128,-1,225
 644 185 644 185 643.5 184.5 c 128,-1,226
 643 184 643 184 643 183.5 c 128,-1,227
 643 183 643 183 642.5 182.5 c 2,228,-1
 642 182 l 1,229,-1
 641 181 l 1,230,-1
 640 180 l 1,231,-1
 639.5 180 l 2,232,233
 639 180 639 180 638.5 179.5 c 128,-1,234
 638 179 638 179 637.5 179 c 2,235,-1
 637 179 l 1,236,-1
 636.5 179 l 1,237,-1
 636 179 l 1,238,-1
 635 179 l 1,239,-1
 634 178 l 1,240,-1
 633.5 177.5 l 2,241,242
 633 177 633 177 632.5 177 c 128,-1,243
 632 177 632 177 631.5 177 c 128,-1,244
 631 177 631 177 630 177 c 128,-1,245
 629 177 629 177 628 177 c 1,246,247
 628 176 628 176 627 176 c 2,248,-1
 626 176 l 1,249,-1
 616 176 l 1,250,-1
 605 176 l 1,251,-1
 603 176 l 1,252,-1
 602 176 l 1,253,-1
 601 176 l 1,254,-1
 600.5 176 l 2,255,256
 600 176 600 176 599 176 c 2,257,-1
 598 176 l 2,258,259
 597 176 597 176 593 176 c 0,260,261
 591 176 591 176 590 176 c 2,262,-1
 588 176 l 1,263,-1
 586.5 176 l 2,264,265
 585 176 585 176 584 176 c 2,266,-1
 582 176 l 1,267,-1
 578.5 176 l 1,268,-1
 575 176 l 1,269,-1
 571.5 176 l 1,270,-1
 568 176 l 1,271,-1
 567 177 l 1,272,-1
 566 177 l 2,273,274
 565 177 565 177 564 177 c 128,-1,275
 563 177 563 177 563.5 177.5 c 128,-1,276
 564 178 564 178 563.5 178 c 2,277,-1
 563 178 l 1,278,-1
 562.5 178 l 1,279,-1
 562 178 l 1,280,-1
 561.5 178.5 l 1,281,-1
 561 179 l 1,282,-1
 560.5 179 l 2,283,284
 560 179 560 179 558.5 179.5 c 128,-1,285
 557 180 557 180 556 181 c 1,286,-1
 556 183 l 1,287,-1
 555 184 l 1,288,-1
 555 184.5 l 1,289,-1
 555 185 l 1,290,-1
 555 185.5 l 1,291,-1
 555 186 l 1,292,-1
 554.5 186.5 l 2,293,294
 554 187 554 187 554 187.5 c 128,-1,295
 554 188 554 188 554.5 188.5 c 128,-1,296
 555 189 555 189 554.5 189.5 c 2,297,-1
 554 190 l 1,298,-1
 554 190.5 l 1,299,-1
 554 191 l 1,300,-1
 554 191.5 l 1,301,-1
 555 194 l 1,302,-1
 557 203 l 1,303,-1
 560 215 l 1,304,-1
 560 216 l 2,305,306
 560 217 560 217 560 217.5 c 128,-1,307
 560 218 560 218 560.5 218.5 c 128,-1,308
 561 219 561 219 561 219.5 c 128,-1,309
 561 220 561 220 560.5 220 c 2,310,-1
 560 220 l 1,83,-1
548 223 m 1,311,-1
 537 180 l 2,312,313
 534 167 534 167 539.5 156.5 c 128,-1,314
 545 146 545 146 556 143 c 1,315,-1
 559 153 l 1,316,317
 554 154 554 154 550 158 c 0,318,319
 549 159 549 159 549 160 c 0,320,321
 548 161 548 161 547.5 162 c 128,-1,322
 547 163 547 163 546 164 c 0,323,324
 545 167 545 167 545 169 c 0,325,326
 545 173 545 173 546 179 c 2,327,-1
 553 209 l 1,328,-1
 555 219 l 1,329,330
 552 222 552 222 548 223 c 1,311,-1
535 229 m 1,331,-1
 519 161 l 2,332,333
 517 151 517 151 520.5 144 c 128,-1,334
 524 137 524 137 531 133 c 1,335,-1
 534 145 l 1,336,337
 530 148 530 148 528.5 151.5 c 128,-1,338
 527 155 527 155 529 161 c 2,339,-1
 535 189 l 1,340,-1
 538 202 l 1,341,-1
 540 212 l 1,342,-1
 544 229 l 1,343,-1
 535 229 l 1,331,-1
523.5 235 m 128,-1,345
 525 235 525 235 525.5 233.5 c 128,-1,346
 526 232 526 232 525 229 c 1,347,-1
 519 229 l 1,348,349
 520 232 520 232 521 233.5 c 128,-1,344
 522 235 522 235 523.5 235 c 128,-1,345
524 238 m 2,350,351
 521 238 521 238 519 235.5 c 128,-1,352
 517 233 517 233 516 229 c 2,353,-1
 515.960960961 228.921921922 l 1,354,-1
 529 229 l 1,355,356
 530 233 530 233 528.5 235.5 c 128,-1,357
 527 238 527 238 525 238 c 2,358,-1
 524 238 l 2,350,351
369 253 m 1,359,-1
 368.5 252.5 l 1,360,-1
 368 252 l 1,361,-1
 367.5 251.5 l 2,362,363
 367.40756974 251.40756974 367.40756974 251.40756974 367.280966067 251.11009927 c 1,364,365
 367.668779086 251.11009927 367.668779086 251.11009927 368.055515665 251.110791907 c 0,366,367
 368.166606821 252.000000003 368.166606821 252.000000003 368.5 252 c 128,-1,368
 369 252 369 252 369 252.5 c 2,369,-1
 369 253 l 1,359,-1
459 261 m 1,370,-1
 457 256 l 2,371,372
 456.56321955 254.835252133 456.56321955 254.835252133 456.084044175 253.670504265 c 1,373,-1
 448.084340992 253.622506046 l 1,374,-1
 450.660377358 265 l 1,375,-1
 440.681818182 265 l 1,376,-1
 438.082385071 253.56249431 l 1,377,-1
 431.430066891 253.522580401 l 1,378,-1
 434 264 l 2,379,380
 434.116075566 264.502994119 434.116075566 264.502994119 434.226911423 265 c 2,381,-1
 424 265 l 1,382,-1
 421 254 l 1,383,-1
 420.87424313 253.459245459 l 1,384,-1
 416.901595567 253.435409573 l 1,385,-1
 419.6 265 l 1,386,-1
 410.6 265 l 1,387,-1
 407.888977902 253.381333867 l 1,388,-1
 404.129272434 253.358775635 l 1,389,-1
 405 257 l 2,390,391
 406.04554885 261.1821954 406.04554885 261.1821954 406.423047901 265 c 1,392,-1
 396.550518366 265 l 1,393,394
 396.051863265 261.207453062 396.051863265 261.207453062 395 257 c 2,395,-1
 394.114903993 253.298689424 l 1,396,-1
 390.608557123 253.277651343 l 1,397,-1
 391 255 l 2,398,399
 392.05572809 260.27864045 392.05572809 260.27864045 392.12073458 265 c 1,400,-1
 384.24 265 l 1,401,402
 384.4 261 384.4 261 382 257 c 1,403,-1
 381.173352525 253.221040115 l 1,404,-1
 335.408201017 252.946449206 l 1,405,-1
 338.191502463 265 l 1,406,-1
 94 265 l 1,407,408
 244.392362375 266.122331062 244.392362375 266.122331062 338.661343355 267.034724289 c 1,409,-1
 339.956885197 272.645284162 l 1,410,411
 356.738250637 272.336823325 356.738250637 272.336823325 382 272 c 1,412,413
 382.880186141 269.359441576 382.880186141 269.359441576 383.760372282 267.493610895 c 1,414,415
 387.9996391 267.539234568 387.9996391 267.539234568 392.080207167 267.584264705 c 1,416,417
 391.750864193 274.723185195 391.750864193 274.723185195 389 280.5 c 0,418,419
 384 291 384 291 372 293 c 1,420,-1
 370 284 l 1,421,422
 375 283 375 283 378 279 c 0,423,424
 379 278 379 278 380 276 c 2,425,-1
 381 275 l 1,426,427
 356.749547693 274.837245287 356.749547693 274.837245287 340.419335316 274.648001476 c 1,428,-1
 1027 3248 l 1,429,-1
 1294 3248 l 1,430,-1
 1015 2042 l 1,431,432
 1252 2234 1252 2234 1390 2234 c 2,433,-1
 1553 2234 l 2,434,435
 1733 2234 1733 2234 1847 2029 c 0,436,437
 1897.56809339 1938.06614786 1897.56809339 1938.06614786 1897.56809339 1764.88535784 c 0,438,439
 1897.56809339 1547.64980545 1897.56809339 1547.64980545 1818 1201 c 1,440,-1
 1779 1034 l 1,441,442
 1540 0 1540 0 928 0 c 0,443,444
 722 0 722 0 577 143 c 1,445,-1
 544 0 l 1,446,-1
 277 0 l 1,447,-1
 306.44990508 127.537722268 l 1,448,-1
 42 194 l 1,449,-1
 321.79679803 194 l 1,450,-1
 327.107758621 217 l 1,451,-1
 359.166666667 217 l 1,452,-1
 359 216 l 1,453,-1
 358.5 213.5 l 1,454,-1
 358 211 l 1,455,-1
 357.5 210.5 l 2,456,457
 357 210 357 210 357 208.5 c 2,458,-1
 357 207 l 1,459,-1
 356.5 205.5 l 2,460,461
 356 204 356 204 356 203.5 c 2,462,-1
 356 203 l 1,463,-1
 355 200 l 1,464,-1
 355 198 l 1,465,-1
 357 198 l 1,466,-1
 360 198 l 1,467,-1
 361 198 l 1,468,-1
 362 198 l 1,469,-1
 363 198 l 1,470,-1
 366 198 l 2,471,472
 369 198 369 198 370 198 c 2,473,-1
 371 198 l 1,474,-1
 372 198 l 1,475,-1
 375 198 l 1,476,-1
 382 198 l 1,477,-1
 384 198 l 2,478,479
 386 198 386 198 387 198 c 2,480,-1
 388 198 l 1,481,-1
 389 198 l 1,482,-1
 391 198 l 1,483,-1
 392.5 198 l 2,484,485
 394 198 394 198 396 198 c 128,-1,486
 398 198 398 198 400 198 c 0,487,488
 403 198 403 198 407 198 c 2,489,-1
 410 198 l 1,490,-1
 413 198 l 1,491,-1
 414 198 l 1,492,-1
 415 198 l 1,493,-1
 433 198 l 2,494,495
 437 198 437 198 441.5 198 c 128,-1,496
 446 198 446 198 448.5 198 c 2,497,-1
 451 198 l 2,498,499
 454 198 454 198 454.5 198 c 2,500,-1
 455 198 l 1,501,-1
 455.5 198 l 2,502,503
 456 198 456 198 456.5 198 c 128,-1,504
 457 198 457 198 458.5 205.5 c 2,505,-1
 460 213 l 1,506,-1
 461 217 l 1,507,-1
 464.700340171 217 l 1,508,509
 464.183503419 215 464.183503419 215 465 215 c 2,510,-1
 464 214 l 2,511,512
 464 213 464 213 464.5 213 c 128,-1,513
 465 213 465 213 466 213 c 128,-1,514
 467 213 467 213 467.5 213 c 128,-1,515
 468 213 468 213 470 213.5 c 2,516,-1
 472 214 l 1,517,-1
 474 213.5 l 2,518,519
 476 213 476 213 476.5 213 c 128,-1,520
 477 213 477 213 477.5 213 c 2,521,-1
 478 213 l 1,522,-1
 478.5 213 l 2,523,524
 479 213 479 213 480 212.5 c 128,-1,525
 481 212 481 212 482 212 c 128,-1,526
 483 212 483 212 483.5 212 c 128,-1,527
 484 212 484 212 484.5 212 c 128,-1,528
 485 212 485 212 486 212 c 128,-1,529
 487 212 487 212 487.5 212 c 128,-1,530
 488 212 488 212 488.5 212 c 2,531,-1
 489 212 l 1,532,-1
 490 212 l 1,533,-1
 492 212 l 1,534,535
 493 213 493 213 493.5 213 c 128,-1,536
 494 213 494 213 494.5 213 c 128,-1,537
 495 213 495 213 497 213 c 2,538,-1
 498 213 l 1,539,-1
 499 213 l 1,540,-1
 499.5 213 l 2,541,542
 500 213 500 213 500 212.5 c 128,-1,543
 500 212 500 212 501 212 c 2,544,-1
 503 212 l 1,545,-1
 507 212 l 2,546,547
 511 212 511 212 513 212.5 c 128,-1,548
 515 213 515 213 515.5 213 c 128,-1,549
 516 213 516 213 518 213 c 128,-1,550
 520 213 520 213 521 213 c 128,-1,551
 522 213 522 213 524 213 c 128,-1,552
 526 213 526 213 526.5 213 c 128,-1,553
 527 213 527 213 527.5 213 c 128,-1,554
 528 213 528 213 528.5 213.5 c 128,-1,555
 529 214 529 214 529 215.5 c 128,-1,556
 529 217 529 217 529.5 217 c 128,-1,557
 530 217 530 217 529.5 217.5 c 128,-1,558
 529 218 529 218 529.5 218 c 128,-1,559
 530 218 530 218 530 218.5 c 128,-1,560
 530 219 530 219 530 220 c 128,-1,561
 530 221 530 221 530.5 221.5 c 128,-1,562
 531 222 531 222 531.5 226 c 128,-1,563
 532 230 532 230 532.5 231 c 2,564,-1
 533 232 l 1,565,-1
 533 233 l 2,566,567
 533 234 533 234 533.5 234.5 c 128,-1,568
 534 235 534 235 534 235.5 c 128,-1,569
 534 236 534 236 534 236.5 c 128,-1,570
 534 237 534 237 534.5 239 c 128,-1,571
 535 241 535 241 535.5 241 c 128,-1,572
 536 241 536 241 536.5 241 c 2,573,-1
 537 241 l 1,574,-1
 537 240.5 l 2,575,576
 537 240 537 240 537 239.5 c 128,-1,577
 537 239 537 239 537.5 238.5 c 2,578,-1
 538 238 l 1,579,-1
 538.5 238 l 2,580,581
 539 238 539 238 538.5 237.5 c 128,-1,582
 538 237 538 237 539 236 c 2,583,-1
 540 235 l 1,584,-1
 540 235.5 l 2,585,586
 540 236 540 236 541 240.5 c 2,587,-1
 542 245 l 1,588,-1
 542.5 248 l 2,589,590
 543 251 543 251 544 255 c 128,-1,591
 545 259 545 259 545.5 260 c 2,592,-1
 546 261 l 1,593,-1
 546 261.5 l 2,594,595
 546 262 546 262 546 263 c 0,596,597
 546 265 546 265 547 267 c 0,598,599
 548 270 548 270 548 271.5 c 128,-1,600
 548 273 548 273 549 275 c 128,-1,601
 550 277 550 277 550 279 c 2,602,-1
 550 281 l 1,603,-1
 550 282 l 1,604,-1
 549 281 l 1,605,-1
 548 281 l 1,606,607
 548 282 548 282 548.5 282 c 2,608,-1
 547 282 l 2,609,610
 546 282 546 282 544 282 c 2,611,-1
 540 281 l 2,612,613
 538 281 538 281 537.5 281 c 128,-1,614
 537 281 537 281 536.5 281 c 128,-1,615
 536 281 536 281 535.5 281 c 128,-1,616
 535 281 535 281 534.5 281 c 2,617,-1
 534 281 l 2,618,619
 533 281 533 281 533 281.5 c 128,-1,620
 533 282 533 282 531.5 282 c 2,621,-1
 530 282 l 1,622,-1
 529 282 l 1,623,-1
 528.5 282 l 2,624,625
 528 282 528 282 527.5 282 c 2,626,-1
 527 282 l 1,627,-1
 525 282 l 2,628,629
 523 282 523 282 523 282.5 c 128,-1,630
 523 283 523 283 521 283 c 128,-1,631
 519 283 519 283 519 282.5 c 128,-1,632
 519 282 519 282 518 282 c 128,-1,633
 517 282 517 282 516.5 282 c 2,634,-1
 516 282 l 1,635,-1
 514 282 l 2,636,637
 511 282 511 282 509 282 c 128,-1,638
 507 282 507 282 506.5 282 c 2,639,-1
 506 282 l 1,640,-1
 502.5 282 l 2,641,642
 499 282 499 282 498.5 282 c 128,-1,643
 498 282 498 282 496 282 c 128,-1,644
 494 282 494 282 492 282 c 2,645,-1
 485 282 l 1,646,-1
 481 282 l 2,647,648
 480 282 480 282 479.5 282 c 128,-1,649
 479 282 479 282 478.5 282 c 128,-1,650
 478 282 478 282 478 281.5 c 128,-1,651
 478 281 478 281 478 279.5 c 128,-1,652
 478 278 478 278 477.5 276 c 128,-1,653
 477 274 477 274 476 273 c 1,654,-1
 476 272 l 1,655,-1
 476 271.5 l 2,656,657
 476 271 476 271 475 269 c 1,658,-1
 475.2704701 268.7295299 l 1,659,660
 478.251790064 268.788467147 478.251790064 268.788467147 480.824115962 268.84587449 c 1,661,-1
 483 279 l 1,662,-1
 486 279 l 1,663,-1
 484 270 l 1,664,665
 486 271 486 271 487 271 c 2,666,-1
 488 271 l 2,667,668
 488.974783011 271 488.974783011 271 490.424666988 269.099595923 c 1,669,670
 496.874417382 269.311626326 496.874417382 269.311626326 497 269.5 c 0,671,672
 498 271 498 271 501 271 c 2,673,-1
 502 271 l 2,674,675
 504 271 504 271 505 270 c 128,-1,676
 506 269 506 269 505 265 c 2,677,-1
 502.632098412 253.94979259 l 1,678,-1
 491.525810202 253.883154861 l 1,679,680
 491.38639938 255.15919814 491.38639938 255.15919814 492 257 c 0,681,682
 493 260 493 260 495.5 262 c 128,-1,683
 498 264 498 264 503 264 c 1,684,-1
 503 265 l 2,685,686
 503 267 503 267 502.5 267.5 c 128,-1,687
 502 268 502 268 500.5 268 c 128,-1,688
 499 268 499 268 498.5 267.5 c 128,-1,689
 498 267 498 267 497 265 c 1,690,-1
 491.388888889 265 l 1,691,692
 491.333333333 263.666666667 491.333333333 263.666666667 491 262 c 2,693,-1
 490 260 l 1,694,695
 489.188444032 255.942220162 489.188444032 255.942220162 487.718264976 253.86030959 c 1,696,-1
 477.599914175 253.799599485 l 1,697,-1
 480 265 l 1,698,-1
 475 265 l 1,699,700
 475 264 475 264 475 263.5 c 128,-1,701
 475 263 475 263 475 262.5 c 128,-1,702
 475 262 475 262 475.5 262 c 128,-1,703
 476 262 476 262 475.5 260.5 c 128,-1,704
 475 259 475 259 475 258 c 2,705,-1
 474 256 l 1,706,-1
 474 255 l 1,707,-1
 474 254.5 l 2,708,709
 474 254.281566727 474 254.281566727 473.809147621 253.776854886 c 2,710,-1
 466.249775035 253.73149865 l 1,711,712
 466.642754888 254.85681564 466.642754888 254.85681564 467 256 c 1,713,-1
 459 261 l 1,370,-1
553 270 m 1,714,-1
 552.5 270 l 1,715,-1
 552 270 l 1,716,-1
 552 269.5 l 2,717,718
 552 269 552 269 550 262.5 c 128,-1,719
 548 256 548 256 548.5 255.5 c 2,720,-1
 549 255 l 2,721,722
 549 254 549 254 548.5 253.5 c 2,723,-1
 548 253 l 2,724,725
 547 252 547 252 547.5 251.5 c 2,726,-1
 548 251 l 1,727,-1
 547 248 l 1,728,-1
 546 245 l 1,729,-1
 546 244.5 l 2,730,731
 546 244 546 244 545.5 242.5 c 128,-1,732
 545 241 545 241 545 239.5 c 128,-1,733
 545 238 545 238 545 236.5 c 128,-1,734
 545 235 545 235 545.5 234.5 c 128,-1,735
 546 234 546 234 545.5 233.5 c 2,736,-1
 545 233 l 1,737,-1
 545.5 232.5 l 1,738,-1
 546 232 l 1,739,-1
 546 231.5 l 2,740,741
 546 231 546 231 547 229.5 c 128,-1,742
 548 228 548 228 548 227.5 c 128,-1,743
 548 227 548 227 548.5 226.5 c 128,-1,744
 549 226 549 226 550 225.5 c 128,-1,745
 551 225 551 225 551.5 225 c 128,-1,746
 552 225 552 225 552.5 224.5 c 2,747,-1
 553 224 l 1,748,-1
 554 224 l 1,749,-1
 555 224 l 1,750,-1
 555.5 224 l 2,751,752
 556 224 556 224 556.5 223.5 c 128,-1,753
 557 223 557 223 560 223 c 0,754,755
 561 223 561 223 561.5 223 c 128,-1,756
 562 223 562 223 563 223 c 0,757,758
 565 223 565 223 569 223 c 0,759,760
 572 223 572 223 574 223 c 0,761,762
 577 223 577 223 584 223 c 0,763,764
 593 223 593 223 594 223 c 128,-1,765
 595 223 595 223 596.5 223 c 128,-1,766
 598 223 598 223 598.5 223 c 128,-1,767
 599 223 599 223 599.5 223 c 2,768,-1
 600 223 l 1,769,-1
 602.5 223 l 2,770,771
 605 223 605 223 605 223.5 c 128,-1,772
 605 224 605 224 606 224 c 2,773,-1
 607 224 l 1,774,-1
 607.5 224 l 2,775,776
 608 224 608 224 608.5 224 c 128,-1,777
 609 224 609 224 609.5 224 c 128,-1,778
 610 224 610 224 611 224.5 c 128,-1,779
 612 225 612 225 612.5 225.5 c 2,780,-1
 613 226 l 1,781,-1
 613.5 226 l 2,782,783
 614 226 614 226 615 226.5 c 128,-1,784
 616 227 616 227 616 227.5 c 128,-1,785
 616 228 616 228 616.5 228 c 128,-1,786
 617 228 617 228 618 228.5 c 2,787,-1
 619 229 l 1,788,-1
 619 229.5 l 1,789,-1
 619 230 l 1,790,-1
 620 231 l 1,791,-1
 621 232 l 1,792,-1
 621.5 232.5 l 2,793,794
 622 233 622 233 622 233.5 c 128,-1,795
 622 234 622 234 622.5 234 c 128,-1,796
 623 234 623 234 623 234.5 c 2,797,-1
 623 235 l 1,798,-1
 623.5 236 l 1,799,-1
 624 237 l 1,800,-1
 624.5 237.5 l 2,801,802
 625 238 625 238 626 240 c 128,-1,803
 627 242 627 242 628 247 c 2,804,-1
 629 254 l 1,805,-1
 629.5 256 l 2,806,807
 630 258 630 258 630 259 c 2,808,-1
 630 263 l 1,809,-1
 629 262 l 1,810,-1
 629 261 l 2,811,812
 629 260 629 260 629 259 c 0,813,814
 628 256 628 256 628 255.5 c 128,-1,815
 628 255 628 255 627.5 254.5 c 128,-1,816
 627 254 627 254 627 253 c 2,817,-1
 627 252 l 1,818,-1
 627 250 l 1,819,-1
 626.5 249.5 l 2,820,821
 626 249 626 249 626 248.5 c 2,822,-1
 626 248 l 1,823,-1
 625.5 246 l 2,824,825
 625 244 625 244 625 243.5 c 128,-1,826
 625 243 625 243 625 242.5 c 128,-1,827
 625 242 625 242 624.5 241 c 128,-1,828
 624 240 624 240 623.5 239.5 c 128,-1,829
 623 239 623 239 623 238.5 c 128,-1,830
 623 238 623 238 622.5 237 c 128,-1,831
 622 236 622 236 621 235 c 1,832,-1
 621 234 l 1,833,834
 620 233 620 233 620 232.5 c 2,835,-1
 620 232 l 1,836,-1
 619.5 231.5 l 1,837,-1
 619 231 l 1,838,-1
 618.5 230.5 l 2,839,840
 618 230 618 230 617 229.5 c 2,841,-1
 616 229 l 1,842,-1
 615 228.5 l 1,843,-1
 614 228 l 1,844,-1
 613.5 227.5 l 2,845,846
 613 227 613 227 612.5 227 c 2,847,-1
 612 227 l 1,848,-1
 611 226.5 l 2,849,850
 610 226 610 226 609 226 c 2,851,-1
 608 226 l 2,852,853
 607 226 607 226 607 225 c 1,854,-1
 606 225 l 2,855,856
 605 225 605 225 604.5 225 c 128,-1,857
 604 225 604 225 603.5 225 c 128,-1,858
 603 225 603 225 601 225 c 2,859,-1
 599 225 l 1,860,-1
 595 225 l 1,861,-1
 591 225 l 1,862,-1
 583.5 225 l 1,863,-1
 576 225 l 1,864,-1
 575.5 225 l 2,865,866
 575 225 575 225 567 225 c 2,867,-1
 566 225 l 2,868,869
 560 225 560 225 558.5 225 c 128,-1,870
 557 225 557 225 556 226 c 1,871,-1
 554 226 l 2,872,873
 553 226 553 226 553 227 c 1,874,-1
 552 227 l 1,875,876
 551 228 551 228 550.5 228 c 2,877,-1
 550 228 l 1,878,-1
 549.5 228.5 l 1,879,-1
 549 229 l 1,880,-1
 548.5 230 l 2,881,882
 548 231 548 231 547.5 232 c 128,-1,883
 547 233 547 233 547 233.5 c 2,884,-1
 547 234 l 1,885,-1
 547 234.5 l 2,886,887
 547 235 547 235 546.5 235.5 c 128,-1,888
 546 236 546 236 546.5 237 c 128,-1,889
 547 238 547 238 547 238.5 c 128,-1,890
 547 239 547 239 546.5 240 c 2,891,-1
 546 241 l 1,892,-1
 547 244 l 2,893,894
 548 247 548 247 548 248 c 2,895,-1
 548 250 l 1,896,-1
 548.5 250.5 l 2,897,898
 549 251 549 251 549 251.5 c 128,-1,899
 549 252 549 252 549 252.5 c 128,-1,900
 549 253 549 253 550 255 c 0,901,902
 550 256 550 256 550 257 c 2,903,-1
 550 258 l 1,904,-1
 550 259 l 1,905,-1
 551 262 l 1,906,-1
 552 267 l 2,907,908
 552 268 552 268 552.5 268.5 c 128,-1,909
 553 269 553 269 553 270 c 1,714,-1
536 271 m 2,910,-1
 537 271 l 2,911,912
 539 271 539 271 540.5 270 c 128,-1,913
 542 269 542 269 541 265 c 2,914,-1
 538 251 l 1,915,-1
 537 251 l 1,916,-1
 535 251 l 1,917,-1
 535 252 l 1,918,919
 533 251 533 251 531 251 c 128,-1,920
 529 251 529 251 528 252.5 c 128,-1,921
 527 254 527 254 528 257 c 128,-1,922
 529 260 529 260 531.5 262 c 128,-1,923
 534 264 534 264 538 264 c 1,924,-1
 538 265 l 2,925,926
 538 267 538 267 538 267.5 c 128,-1,927
 538 268 538 268 536.5 268 c 128,-1,928
 535 268 535 268 534 267.5 c 128,-1,929
 533 267 533 267 532 265 c 1,930,-1
 530 265 l 1,931,932
 531 268 531 268 532 269.5 c 128,-1,933
 533 271 533 271 536 271 c 2,910,-1
522 271 m 0,934,935
 525 271 525 271 526 269.5 c 128,-1,936
 527 268 527 268 526 265 c 1,937,-1
 524 265 l 1,938,939
 524 266 524 266 523.5 267 c 128,-1,940
 523 268 523 268 522 268 c 0,941,942
 520 268 520 268 519.5 267.5 c 128,-1,943
 519 267 519 267 519 266 c 0,944,945
 519 264 519 264 519 263.5 c 128,-1,946
 519 263 519 263 520 262 c 1,947,-1
 521 262 l 2,948,949
 523 262 523 262 523.5 261 c 128,-1,950
 524 260 524 260 524.5 259 c 128,-1,951
 525 258 525 258 524 256 c 0,952,953
 523 253 523 253 522 252 c 128,-1,954
 521 251 521 251 518.5 251 c 128,-1,955
 516 251 516 251 514.5 252.5 c 128,-1,956
 513 254 513 254 514 257 c 1,957,-1
 517 257 l 1,958,959
 517 255 517 255 517.5 254.5 c 128,-1,960
 518 254 518 254 519 254 c 128,-1,961
 520 254 520 254 520.5 254.5 c 128,-1,962
 521 255 521 255 522 256 c 0,963,964
 522 257 522 257 522 257.5 c 128,-1,965
 522 258 522 258 522 258.5 c 128,-1,966
 522 259 522 259 520 259 c 2,967,-1
 519 259 l 1,968,969
 518 260 518 260 516.5 261 c 128,-1,970
 515 262 515 262 516 266 c 0,971,972
 516 268 516 268 518 269.5 c 128,-1,973
 520 271 520 271 522 271 c 0,934,935
559 279 m 1,974,-1
 549 236 l 1,975,-1
 553 236 l 1,976,-1
 563 279 l 1,977,-1
 559 279 l 1,974,-1
513 279 m 1,978,-1
 516 279 l 1,979,-1
 510 254 l 1,980,-1
 511 254 l 1,981,-1
 507 253.976 l 1,982,-1
 507 254 l 1,983,-1
 513 279 l 1,978,-1
396 292 m 1,984,-1
 393 281 l 1,985,986
 397 278 397 278 397 271.5 c 0,987,988
 397 269.630601377 397 269.630601377 396.834572724 267.637132297 c 1,989,990
 401.84772753 267.693311441 401.84772753 267.693311441 406.609986432 267.748552072 c 1,991,992
 406.809493923 273.285821876 406.809493923 273.285821876 405.5 278 c 0,993,994
 403 287 403 287 396 292 c 1,984,-1
540 295 m 1,995,-1
 538 286 l 1,996,-1
 551 286 l 1,997,-1
 554 295 l 1,998,-1
 540 295 l 1,995,-1
506 298 m 1,999,-1
 500 291 l 1,1000,-1
 503 286 l 1,1001,-1
 513 286 l 1,1002,-1
 508 298 l 1,1003,-1
 506 298 l 1,999,-1
408 309 m 1,1004,-1
 405 298 l 1,1005,-1
 405.5 297.5 l 2,1006,1007
 406 297 406 297 406.5 297 c 128,-1,1008
 407 297 407 297 407.5 296.5 c 128,-1,1009
 408 296 408 296 408 295.5 c 128,-1,1010
 408 295 408 295 409 294.5 c 128,-1,1011
 410 294 410 294 410 293.5 c 128,-1,1012
 410 293 410 293 411 292 c 0,1013,1014
 415 284 415 284 412 271 c 2,1015,-1
 411.254010569 267.802902437 l 1,1016,1017
 415.892118716 267.857677015 415.892118716 267.857677015 420.279353071 267.911513161 c 1,1018,-1
 421 271 l 2,1019,1020
 424 285 424 285 420 294 c 128,-1,1021
 416 303 416 303 408 309 c 1,1004,-1
429 309 m 1,1022,-1
 426 295 l 1,1023,1024
 428 292 428 292 427.5 285 c 0,1025,1026
 427.058623317 278.820726432 427.058623317 278.820726432 424.669112867 267.965931824 c 1,1027,1028
 429.967733189 268.032303003 429.967733189 268.032303003 434.878214909 268.097222291 c 1,1029,1030
 436.91919837 278.454429335 436.91919837 278.454429335 436.5 286 c 0,1031,1032
 436 295 436 295 434 300 c 128,-1,1033
 432 305 432 305 429 309 c 1,1022,-1
644 309 m 1,1034,1035
 631 307 631 307 621 296.5 c 128,-1,1036
 611 286 611 286 607 271 c 2,1037,-1
 598 228 l 1,1038,-1
 606 228 l 1,1039,-1
 616 272 l 2,1040,1041
 618 280 618 280 621.5 285.5 c 128,-1,1042
 625 291 625 291 631 295 c 0,1043,1044
 636 298 636 298 642 300 c 1,1045,-1
 644 309 l 1,1034,1035
519 313 m 1,1046,-1
 507 300 l 1,1047,-1
 517 300 l 1,1048,-1
 523 306 l 1,1049,-1
 528 313 l 1,1050,-1
 519 313 l 1,1046,-1
466 322 m 1,1051,-1
 464 312 l 1,1052,1053
 467 310 467 310 468 304 c 128,-1,1054
 469 298 469 298 467 288 c 1,1055,-1
 465 282 l 1,1056,-1
 457 282 l 1,1057,-1
 456 280 l 2,1058,1059
 456 279 456 279 455.5 276.5 c 128,-1,1060
 455 274 455 274 455 272 c 1,1061,-1
 473 272 l 1,1062,-1
 476 288 l 2,1063,1064
 479 299 479 299 476.5 308 c 128,-1,1065
 474 317 474 317 466 322 c 1,1051,-1
489 325 m 1,1066,-1
 487 315 l 1,1067,-1
 498 315 l 1,1068,-1
 500 325 l 1,1069,-1
 489 325 l 1,1066,-1
629 326 m 1,1070,1071
 618 321 618 321 609 311.5 c 128,-1,1072
 600 302 600 302 597 288 c 2,1073,-1
 583 228 l 1,1074,-1
 593 228 l 1,1075,-1
 607 288 l 2,1076,1077
 610 302 610 302 618 309 c 0,1078,1079
 619 310 619 310 619.5 310.5 c 128,-1,1080
 620 311 620 311 620.5 311.5 c 128,-1,1081
 621 312 621 312 621.5 312.5 c 128,-1,1082
 622 313 622 313 623 313.5 c 128,-1,1083
 624 314 624 314 625 314 c 2,1084,-1
 626 315 l 1,1085,-1
 629 326 l 1,1070,1071
608 326 m 1,1086,1087
 602 322 602 322 597.5 317.5 c 128,-1,1088
 593 313 593 313 589 303.5 c 128,-1,1089
 585 294 585 294 582 282 c 2,1090,-1
 570 228 l 1,1091,-1
 580 228 l 1,1092,-1
 590 272 l 1,1093,-1
 592 282 l 2,1094,1095
 595 296 595 296 598 302.5 c 128,-1,1096
 601 309 601 309 605 313 c 1,1097,-1
 608 326 l 1,1086,1087
593 326 m 1,1098,1099
 587 322 587 322 583.5 317.5 c 128,-1,1100
 580 313 580 313 575.5 303.5 c 128,-1,1101
 571 294 571 294 568 282 c 2,1102,-1
 556 228 l 1,1103,-1
 565 228 l 1,1104,-1
 576 272 l 1,1105,-1
 578 282 l 2,1106,1107
 581 296 581 296 584 302.5 c 128,-1,1108
 587 309 587 309 590 313 c 1,1109,-1
 593 326 l 1,1098,1099
526 336 m 1,1110,-1
 524 325 l 1,1111,1112
 528 322 528 322 529 316.5 c 128,-1,1113
 530 311 530 311 528 301 c 2,1114,-1
 526 294 l 1,1115,-1
 516 294 l 1,1116,-1
 516 293 l 2,1117,1118
 516 291 516 291 516 289 c 128,-1,1119
 516 287 516 287 516 286 c 1,1120,-1
 534 286 l 1,1121,-1
 537 301 l 2,1122,1123
 540 313 540 313 537 322 c 128,-1,1124
 534 331 534 331 526 336 c 1,1110,-1
452 338 m 1,1125,-1
 449 324 l 1,1126,1127
 451 320 451 320 450.5 313.5 c 128,-1,1128
 450 307 450 307 447 293 c 2,1129,-1
 445 284 l 1,1130,-1
 441.405735603 268.185236653 l 1,1131,1132
 446.657885801 268.257514764 446.657885801 268.257514764 451.413872506 268.327936901 c 1,1133,-1
 457 293 l 2,1134,1135
 460 306 460 306 460 315 c 128,-1,1136
 460 324 460 324 457.5 329 c 128,-1,1137
 455 334 455 334 452 338 c 1,1125,-1
492 339 m 1,1138,-1
 490 328 l 1,1139,-1
 508 328 l 1,1140,-1
 508 324 l 1,1141,1142
 506 314 506 314 498.5 306.5 c 128,-1,1143
 491 299 491 299 482 295 c 1,1144,-1
 479 285 l 1,1145,1146
 492 289 492 289 503 299.5 c 128,-1,1147
 514 310 514 310 517 324 c 2,1148,-1
 521 339 l 1,1149,-1
 492 339 l 1,1138,-1
478 343 m 1,1150,-1
 474 338 l 1,1151,-1
 481 301 l 1,1152,-1
 486 301 l 1,1153,-1
 478 343 l 1,1150,-1
465 350 m 1,1154,-1
 460 327 l 1,1155,-1
 469 327 l 1,1156,-1
 474 350 l 1,1157,-1
 465 350 l 1,1154,-1
530 351 m 1,1158,-1
 527 340 l 1,1159,-1
 529 340 l 1,1160,1161
 531 339 531 339 532.5 337.5 c 128,-1,1162
 534 336 534 336 535 334 c 0,1163,1164
 540 330 540 330 542 322.5 c 128,-1,1165
 544 315 544 315 543 307 c 1,1166,-1
 543 303 l 1,1167,-1
 553 307 l 1,1168,1169
 556 322 556 322 549.5 334.5 c 128,-1,1170
 543 347 543 347 530 351 c 1,1158,-1
515 353 m 1,1171,-1
 513 343 l 1,1172,-1
 524 343 l 1,1173,-1
 527 353 l 1,1174,-1
 515 353 l 1,1171,-1
501 353 m 1,1175,-1
 499 343 l 1,1176,-1
 509 343 l 1,1177,-1
 512 353 l 1,1178,-1
 501 353 l 1,1175,-1
480 353 m 1,1179,-1
 479 349 l 1,1180,-1
 497 349 l 1,1181,-1
 497 353 l 1,1182,-1
 480 353 l 1,1179,-1
599 354 m 1,1183,-1
 574 316 l 1,1184,-1
 578 316 l 1,1185,-1
 600 348 l 1,1186,-1
 599 354 l 1,1183,-1
489 376 m 1,1187,-1
 476 363 l 1,1188,-1
 488 363 l 1,1189,-1
 500 376 l 1,1190,-1
 489 376 l 1,1187,-1
504 376 m 1,1191,-1
 501 373 l 1,1192,-1
 520 373 l 1,1193,-1
 519 376 l 1,1194,-1
 504 376 l 1,1191,-1
559 378 m 1,1195,-1
 556 368 l 1,1196,-1
 557 368 l 2,1197,1198
 558 368 558 368 560.5 366.5 c 128,-1,1199
 563 365 563 365 565 363 c 0,1200,1201
 568 359 568 359 568.5 353 c 128,-1,1202
 569 347 569 347 567 340 c 2,1203,-1
 554 282 l 1,1204,-1
 564 282 l 1,1205,-1
 577 340 l 2,1206,1207
 581 355 581 355 576 365 c 128,-1,1208
 571 375 571 375 559 378 c 1,1195,-1
504 385 m 1,1209,-1
 503 381 l 1,1210,-1
 521 381 l 1,1211,-1
 522 385 l 1,1212,-1
 504 385 l 1,1209,-1
435 386 m 1,1213,-1
 425 343 l 2,1214,1215
 422 329 422 329 427 318.5 c 128,-1,1216
 432 308 432 308 444 306 c 1,1217,-1
 446 315 l 1,1218,1219
 442 316 442 316 438 320 c 0,1220,1221
 436 321 436 321 436 323 c 1,1222,1223
 435 324 435 324 435 325 c 1,1224,1225
 434 325 434 325 434 326 c 0,1226,1227
 433 329 433 329 433 332 c 0,1228,1229
 433 336 433 336 434 341 c 2,1230,-1
 441 373 l 1,1231,-1
 443 383 l 1,1232,1233
 439 385 439 385 435 386 c 1,1213,-1
471 401 m 1,1234,-1
 470.5 400.5 l 2,1235,1236
 470 400 470 400 469 396 c 0,1237,1238
 468 393 468 393 468 392 c 128,-1,1239
 468 391 468 391 467.5 389.5 c 2,1240,-1
 467 388 l 1,1241,-1
 466.5 386 l 1,1242,-1
 466 384 l 1,1243,-1
 466 383.5 l 2,1244,1245
 466 383 466 383 466 382 c 128,-1,1246
 466 381 466 381 465 377 c 0,1247,1248
 465 376 465 376 464.5 375 c 128,-1,1249
 464 374 464 374 464 373.5 c 2,1250,-1
 464 373 l 1,1251,-1
 463.5 371.5 l 2,1252,1253
 463 370 463 370 463 369 c 128,-1,1254
 463 368 463 368 463.5 367.5 c 128,-1,1255
 464 367 464 367 464 366.5 c 128,-1,1256
 464 366 464 366 464 365 c 128,-1,1257
 464 364 464 364 464.5 363.5 c 128,-1,1258
 465 363 465 363 465.5 362 c 128,-1,1259
 466 361 466 361 467 360.5 c 2,1260,-1
 468 360 l 1,1261,-1
 468 359.5 l 1,1262,-1
 468 359 l 1,1263,-1
 468.5 359 l 2,1264,1265
 469 359 469 359 469.5 359 c 128,-1,1266
 470 359 470 359 470.5 358.5 c 2,1267,-1
 471 358 l 1,1268,-1
 472 358 l 2,1269,1270
 473 358 473 358 474 358 c 128,-1,1271
 475 358 475 358 475 357 c 1,1272,-1
 476 357 l 2,1273,1274
 477 357 477 357 477.5 357 c 128,-1,1275
 478 357 478 357 478.5 357 c 2,1276,-1
 479 357 l 1,1277,-1
 480 357 l 1,1278,-1
 481 357 l 1,1279,-1
 482 357 l 2,1280,1281
 483 357 483 357 483.5 357 c 128,-1,1282
 484 357 484 357 484 357.5 c 128,-1,1283
 484 358 484 358 488 357 c 0,1284,1285
 490 357 490 357 492 357 c 2,1286,-1
 493 357 l 1,1287,-1
 497 357 l 1,1288,-1
 499 357 l 1,1289,-1
 499.5 357 l 2,1290,1291
 500 357 500 357 501 357 c 2,1292,-1
 502 357 l 2,1293,1294
 504 357 504 357 506 357 c 128,-1,1295
 508 357 508 357 508 357.5 c 128,-1,1296
 508 358 508 358 510 357 c 1,1297,-1
 513 357 l 1,1298,-1
 515 357 l 2,1299,1300
 517 357 517 357 518.5 357.5 c 128,-1,1301
 520 358 520 358 520.5 358 c 128,-1,1302
 521 358 521 358 521.5 358 c 128,-1,1303
 522 358 522 358 522.5 358.5 c 128,-1,1304
 523 359 523 359 523.5 359 c 128,-1,1305
 524 359 524 359 525 359.5 c 128,-1,1306
 526 360 526 360 527 360 c 2,1307,-1
 528 361 l 1,1308,-1
 529 362 l 1,1309,-1
 530 363 l 1,1310,-1
 530.5 363 l 2,1311,1312
 531 363 531 363 531 363.5 c 128,-1,1313
 531 364 531 364 531.5 364.5 c 128,-1,1314
 532 365 532 365 532.5 366 c 2,1315,-1
 533 367 l 1,1316,-1
 533.5 368 l 2,1317,1318
 534 369 534 369 534.5 369.5 c 2,1319,-1
 535 370 l 1,1320,-1
 535 371 l 2,1321,1322
 535 372 535 372 539 382 c 0,1323,1324
 539 384 539 384 539.5 386.5 c 128,-1,1325
 540 389 540 389 540.5 390.5 c 2,1326,-1
 541 392 l 1,1327,-1
 541 394 l 2,1328,1329
 541 396 541 396 541 396.5 c 128,-1,1330
 541 397 541 397 540.5 397.5 c 2,1331,-1
 540 398 l 1,1332,-1
 539 393.5 l 1,1333,-1
 538 389 l 1,1334,-1
 538 388.5 l 2,1335,1336
 538 388 538 388 536.5 380.5 c 2,1337,-1
 535 373 l 1,1338,-1
 534.5 371.5 l 2,1339,1340
 534 370 534 370 533.5 369.5 c 128,-1,1341
 533 369 533 369 532 368 c 1,1342,1343
 532 366 532 366 531 366 c 0,1344,1345
 530 365 530 365 529 364 c 2,1346,-1
 528 363 l 2,1347,1348
 528 362 528 362 527.5 362 c 2,1349,-1
 527 362 l 1,1350,-1
 526.5 362 l 2,1351,1352
 526 362 526 362 525 361 c 128,-1,1353
 524 360 524 360 523.5 360 c 128,-1,1354
 523 360 523 360 522.5 360 c 128,-1,1355
 522 360 522 360 521.5 360 c 128,-1,1356
 521 360 521 360 521 359.5 c 128,-1,1357
 521 359 521 359 520.5 359 c 2,1358,-1
 520 359 l 1,1359,-1
 519.5 359 l 2,1360,1361
 519 359 519 359 518 359 c 128,-1,1362
 517 359 517 359 514 359 c 2,1363,-1
 510 359 l 1,1364,-1
 509 359 l 1,1365,-1
 508 359 l 1,1366,-1
 507.5 359 l 2,1367,1368
 507 359 507 359 504.5 359 c 128,-1,1369
 502 359 502 359 501.5 359 c 128,-1,1370
 501 359 501 359 500 359 c 2,1371,-1
 499.5 359 l 2,1372,1373
 499 359 499 359 497.5 359 c 128,-1,1374
 496 359 496 359 495 359 c 2,1375,-1
 489 359 l 1,1376,-1
 488 359 l 1,1377,-1
 486 359 l 2,1378,1379
 484 359 484 359 483.5 359 c 2,1380,-1
 483 359 l 1,1381,-1
 482 359 l 1,1382,-1
 479 359 l 1,1383,-1
 477 359 l 1,1384,-1
 475 359 l 1,1385,-1
 474.5 359 l 1,1386,-1
 474 359 l 1,1387,-1
 473 359.5 l 2,1388,1389
 472 360 472 360 471 360.5 c 128,-1,1390
 470 361 470 361 469.5 361 c 2,1391,-1
 469 361 l 1,1392,-1
 468.5 361 l 2,1393,1394
 468 361 468 361 468 361.5 c 128,-1,1395
 468 362 468 362 467 362 c 1,1396,-1
 467 363 l 1,1397,1398
 468 363 468 363 467.5 363.5 c 128,-1,1399
 467 364 467 364 466.5 364 c 2,1400,-1
 466 364 l 1,1401,-1
 466 364.5 l 2,1402,1403
 466 365 466 365 466 365.5 c 128,-1,1404
 466 366 466 366 465.5 366.5 c 2,1405,-1
 465 367 l 1,1406,-1
 465 368 l 2,1407,1408
 465 369 465 369 465 369.5 c 2,1409,-1
 465 370 l 1,1410,-1
 465 371 l 2,1411,1412
 465 372 465 372 465.5 372.5 c 128,-1,1413
 466 373 466 373 465 374 c 1,1414,1415
 465 376 465 376 466 377 c 2,1416,-1
 467 383 l 1,1417,-1
 468 387 l 1,1418,-1
 468 387.5 l 2,1419,1420
 468 388 468 388 468 388.5 c 128,-1,1421
 468 389 468 389 468 390 c 128,-1,1422
 468 391 468 391 469 392 c 1,1423,1424
 469 394 469 394 470 396 c 0,1425,1426
 470 398 470 398 471 400 c 1,1427,-1
 471 401 l 1,1234,-1
513 403 m 1,1428,-1
 512 399 l 1,1429,-1
 520 399 l 2,1430,1431
 524 399 524 399 528 396 c 1,1432,1433
 531 391 531 391 529 383 c 128,-1,1434
 527 375 527 375 522 370 c 0,1435,1436
 520 368 520 368 517 367.5 c 128,-1,1437
 514 367 514 367 512 367 c 2,1438,-1
 504 367 l 1,1439,-1
 503 363 l 1,1440,-1
 511 363 l 2,1441,1442
 517 363 517 363 524 368 c 0,1443,1444
 532 374 532 374 534 383 c 0,1445,1446
 536 393 536 393 531 399 c 0,1447,1448
 527 403 527 403 521 403 c 2,1449,-1
 513 403 l 1,1428,-1
597 425 m 1,1450,1451
 584 422 584 422 573.5 410.5 c 128,-1,1452
 563 399 563 399 560 386 c 2,1453,-1
 559 382 l 1,1454,-1
 568 382 l 1,1455,-1
 569 386 l 2,1456,1457
 571 395 571 395 578.5 403.5 c 128,-1,1458
 586 412 586 412 594 414 c 1,1459,-1
 597 425 l 1,1450,1451
583 433 m 1,1460,1461
 569 428 569 428 558 415 c 128,-1,1462
 547 402 547 402 543 384.5 c 128,-1,1463
 539 367 539 367 543.5 354 c 128,-1,1464
 548 341 548 341 560 336 c 1,1465,-1
 563 347 l 1,1466,1467
 556 351 556 351 553 360 c 128,-1,1468
 550 369 550 369 552 380 c 2,1469,-1
 555 391 l 2,1470,1471
 558 402 558 402 565 410.5 c 128,-1,1472
 572 419 572 419 580 422 c 1,1473,-1
 583 433 l 1,1460,1461
948 1752 m 1,1474,-1
 648 449 l 1,1475,1476
 788 282 788 282 994 282 c 0,1477,1478
 1364 282 1364 282 1541 1047 c 1,1479,-1
 1575 1197 l 1,1480,1481
 1633.11456311 1448.94174757 1633.11456311 1448.94174757 1633.11456311 1616.13779244 c 0,1482,1483
 1633.11456311 1946.00133156 1633.11456311 1946.00133156 1406.9098725 1946.00133156 c 0,1484,-1
 1406 1946 l 1,1485,1486
 1405.01530612 1946.00510204 1405.01530612 1946.00510204 1404.02873803 1946.00510204 c 0,1487,1488
 1211.64795918 1946.00510204 1211.64795918 1946.00510204 948 1752 c 1,1474,-1
460 124 m 2,1489,1490
 460 123 460 123 459 121 c 0,1491,1492
 458 118 458 118 458 117.5 c 128,-1,1493
 458 117 458 117 458 116.5 c 128,-1,1494
 458 116 458 116 458 115.5 c 128,-1,1495
 458 115 458 115 458 114.5 c 128,-1,1496
 458 114 458 114 458 113.5 c 128,-1,1497
 458 113 458 113 458 112 c 2,1498,-1
 458 111 l 1,1499,-1
 459 110 l 1,1500,-1
 459 109 l 2,1501,1502
 459 108 459 108 460 107 c 128,-1,1503
 461 106 461 106 461 105.5 c 128,-1,1504
 461 105 461 105 461.5 104.5 c 128,-1,1505
 462 104 462 104 462.5 104 c 128,-1,1506
 463 104 463 104 463.5 103.5 c 128,-1,1507
 464 103 464 103 464 102.5 c 128,-1,1508
 464 102 464 102 464.5 102 c 128,-1,1509
 465 102 465 102 465.5 102 c 128,-1,1510
 466 102 466 102 467 102 c 2,1511,-1
 468 102 l 1,1512,-1
 467.5 101.5 l 2,1513,1514
 467 101 467 101 468.5 101 c 128,-1,1515
 470 101 470 101 471 101 c 128,-1,1516
 472 101 472 101 473 101 c 2,1517,-1
 474 101 l 1,1518,-1
 476 101 l 2,1519,1520
 477 101 477 101 478 101 c 2,1521,-1
 479 101 l 1,1522,-1
 483 101 l 2,1523,1524
 488 101 488 101 497 101 c 0,1525,1526
 507 101 507 101 507.5 101 c 2,1527,-1
 508 101 l 1,1528,-1
 511 101 l 2,1529,1530
 514 101 514 101 514.5 101 c 2,1531,-1
 515 101 l 1,1532,-1
 517 101 l 1,1533,-1
 518 101 l 1,1534,-1
 521 101 l 2,1535,1536
 524 101 524 101 525.5 101 c 128,-1,1537
 527 101 527 101 528.5 101.5 c 2,1538,-1
 530 102 l 1,1539,-1
 530.5 102 l 2,1540,1541
 531 102 531 102 531.5 102.5 c 128,-1,1542
 532 103 532 103 533 103 c 128,-1,1543
 534 103 534 103 534.5 103.5 c 2,1544,-1
 535 104 l 1,1545,-1
 535.5 104 l 2,1546,1547
 536 104 536 104 536.5 104.5 c 128,-1,1548
 537 105 537 105 537.5 105.5 c 2,1549,-1
 538 106 l 1,1550,-1
 538.5 106.5 l 2,1551,1552
 539 107 539 107 540 108 c 128,-1,1553
 541 109 541 109 541.5 109.5 c 128,-1,1554
 542 110 542 110 542.5 111.5 c 128,-1,1555
 543 113 543 113 544 113 c 1,1556,-1
 544 114 l 1,1557,-1
 544.5 114.5 l 1,1558,-1
 545 115 l 1,1559,-1
 545 115.5 l 2,1560,1561
 545 116 545 116 545.5 117.5 c 2,1562,-1
 546 119 l 2,1563,1564
 546 120 546 120 546.5 121 c 2,1565,-1
 547 122 l 1,1566,-1
 547 122.5 l 2,1567,1568
 547 123 547 123 548 127 c 0,1569,1570
 548 128 548 128 549 130 c 128,-1,1571
 550 132 550 132 550 133 c 0,1572,1573
 550.666666667 135.666666667 550.666666667 135.666666667 550.666666667 136.777777778 c 2,1574,-1
 550 138.5 l 2,1575,1576
 550 139 550 139 549.5 139 c 2,1577,-1
 549 139 l 1,1578,-1
 548.5 136.5 l 2,1579,1580
 548 134 548 134 548 133 c 2,1581,-1
 548 132 l 1,1582,-1
 547.5 131.5 l 2,1583,1584
 547 131 547 131 547 129 c 2,1585,-1
 546.5 127.5 l 2,1586,1587
 546 126 546 126 546 125 c 128,-1,1588
 546 124 546 124 546 123.5 c 2,1589,-1
 546 123 l 1,1590,-1
 545.5 121.5 l 2,1591,1592
 545 120 545 120 545 119.5 c 2,1593,-1
 545 119 l 1,1594,-1
 544 118 l 2,1595,1596
 543 117 543 117 543 115.5 c 128,-1,1597
 543 114 543 114 541.5 112.5 c 2,1598,-1
 540 111 l 1,1599,-1
 539.5 110.5 l 1,1600,-1
 539 110 l 1,1601,-1
 539 109.5 l 2,1602,1603
 539 109 539 109 538.5 109 c 2,1604,-1
 538 109 l 1,1605,-1
 538 108.5 l 2,1606,1607
 538 108 538 108 537 107.5 c 2,1608,-1
 536 107 l 1,1609,-1
 535.5 106.5 l 2,1610,1611
 535 106 535 106 534.5 106 c 2,1612,-1
 534 106 l 1,1613,-1
 533.5 105.5 l 2,1614,1615
 533 105 533 105 532.5 105 c 128,-1,1616
 532 105 532 105 531 104.5 c 2,1617,-1
 530 104 l 1,1618,-1
 529.5 104 l 1,1619,-1
 529 104 l 1,1620,-1
 528.5 104 l 2,1621,1622
 528 104 528 104 526.5 103.5 c 128,-1,1623
 525 103 525 103 516 103 c 0,1624,1625
 514 103 514 103 512 103 c 128,-1,1626
 510 103 510 103 509 103 c 2,1627,-1
 508 103 l 1,1628,-1
 506 103 l 2,1629,1630
 505 103 505 103 501 103 c 0,1631,1632
 498 103 498 103 495.5 103 c 128,-1,1633
 493 103 493 103 492.5 103 c 128,-1,1634
 492 103 492 103 491.5 103 c 2,1635,-1
 491 103 l 1,1636,-1
 489 103 l 2,1637,1638
 487 103 487 103 486.5 103 c 128,-1,1639
 486 103 486 103 485.5 103 c 128,-1,1640
 485 103 485 103 483 103 c 0,1641,1642
 482 103 482 103 479 103 c 0,1643,1644
 477 103 477 103 474 103 c 128,-1,1645
 471 103 471 103 470.5 103 c 128,-1,1646
 470 103 470 103 469.5 103.5 c 128,-1,1647
 469 104 469 104 468 104 c 128,-1,1648
 467 104 467 104 467.5 104.5 c 128,-1,1649
 468 105 468 105 467 105 c 2,1650,-1
 466 105 l 1,1651,-1
 465 105 l 1,1652,-1
 464 106 l 1,1653,-1
 463 107 l 1,1654,-1
 462 108 l 1,1655,-1
 461 109 l 1,1656,-1
 461.5 109.5 l 2,1657,1658
 462 110 462 110 461.5 110 c 128,-1,1659
 461 110 461 110 461 110.5 c 128,-1,1660
 461 111 461 111 460.5 111.5 c 2,1661,-1
 460 112 l 1,1662,-1
 460.5 112.5 l 2,1663,1664
 461 113 461 113 460.5 113.5 c 128,-1,1665
 460 114 460 114 460 115.5 c 2,1666,-1
 460 117 l 1,1667,-1
 460 117.5 l 1,1668,-1
 460 118 l 1,1669,-1
 460 118.5 l 1,1670,-1
 460 119 l 2,1671,1672
 460 120 460 120 461 122 c 1,1673,-1
 461 122.5 l 2,1674,1675
 461 123 461 123 460.5 123.5 c 2,1676,-1
 460 124 l 2,1489,1490
411.495 101.1375 m 1,1677,-1
 411 99 l 1,1678,-1
 420 99 l 1,1679,-1
 411.495 101.1375 l 1,1677,-1
408.631578947 101.857142857 m 1,1680,-1
 398.265 104.4625 l 1,1681,-1
 397 99 l 1,1682,-1
 408 99 l 1,1683,-1
 408.631578947 101.857142857 l 1,1680,-1
395.368421053 105.19047619 m 1,1684,-1
 386.842105263 107.333333333 l 1,1685,-1
 385 99 l 1,1686,-1
 394 99 l 1,1687,-1
 395.368421053 105.19047619 l 1,1684,-1
514.786299768 226 m 2,1688,-1
 511.133333333 226 l 1,1689,-1
 511.906037585 228.897640944 l 1,1690,-1
 515.960960961 228.921921922 l 1,1691,-1
 515 227 l 2,1692,1693
 514.872983346 226.491933385 514.872983346 226.491933385 514.786299768 226 c 2,1688,-1
514.786299768 226 m 1,1694,1695
 514.190524981 222.618950039 514.190524981 222.618950039 515.5 220 c 0,1696,1697
 517 217 517 217 520 217 c 0,1698,1699
 522 217 522 217 524 218 c 128,-1,1700
 526 219 526 219 526 222 c 1,1701,-1
 524 222 l 1,1702,1703
 524 221 524 221 522.5 220.5 c 128,-1,1704
 521 220 521 220 520 220 c 0,1705,1706
 518 220 518 220 518 222 c 128,-1,1707
 518 224 518 224 518 226 c 1,1708,-1
 514.786299768 226 l 1,1694,1695
511.133333333 226 m 1,1709,-1
 508.6 226 l 1,1710,-1
 507 218 l 1,1711,-1
 507 217 l 1,1712,-1
 509 217 l 1,1713,-1
 509 218 l 1,1714,-1
 511.133333333 226 l 1,1709,-1
511.906037585 228.897640944 m 1,1715,-1
 513 233 l 2,1716,1717
 513.5 234.5 513.5 234.5 513.5 235.5 c 128,-1,1718
 513.5 236.5 513.5 236.5 513 237 c 0,1719,1720
 512 238 512 238 511 238 c 2,1721,-1
 510 238 l 2,1722,1723
 508 238 508 238 507.5 237.5 c 128,-1,1724
 507 237 507 237 506 237 c 2,1725,-1
 490.96971005 237.03006058 l 2,1726,1727
 490.579148226 237.414707355 490.579148226 237.414707355 490.188586402 237.646815591 c 2,1728,-1
 484.745358854 237.364574163 l 2,1729,1730
 484.489590389 237.220407636 484.489590389 237.220407636 484.233821924 237.043532356 c 2,1731,-1
 481.951903808 237.048096192 l 1,1732,-1
 481.788732394 237.211267606 l 1,1733,-1
 478.764786795 237.054470426 l 1,1734,-1
 476.120438749 237.059759123 l 2,1735,1736
 476.060679627 237.030339813 476.060679627 237.030339813 476 237 c 2,1737,-1
 476 237.06 l 1,1738,-1
 470.149149622 237.071701701 l 2,1739,1740
 470.097754785 236.839632205 470.097754785 236.839632205 470.044932805 236.602329849 c 2,1741,-1
 465 236.340740741 l 1,1742,-1
 465 236.5 l 1,1743,-1
 465 237.082 l 1,1744,-1
 463.096724589 237.085806551 l 1,1745,-1
 462.899653979 236.23183391 l 1,1746,-1
 457.01197407 235.926546804 l 2,1747,1748
 457.427806858 236.50825439 457.427806858 236.50825439 457.830887149 237.096338226 c 1,1749,1750
 457.224934633 237.096338226 457.224934633 237.096338226 456.618982118 237.098762036 c 2,1751,-1
 446.671878585 236.582986297 l 2,1752,1753
 446.202290873 235.950802024 446.202290873 235.950802024 445.717831917 235.340924618 c 2,1754,-1
 437.211616973 234.899861621 l 2,1755,1756
 441.523501181 234.910530374 441.523501181 234.910530374 445.379588728 234.92006269 c 1,1757,1758
 445.371525877 234.910147107 445.371525877 234.910147107 445.363458994 234.900237551 c 1,1759,1760
 451.250497497 234.914803442 451.250497497 234.914803442 456.284729764 234.927242377 c 0,1761,1762
 456.292058669 234.937135933 456.292058669 234.937135933 456.299383815 234.947031485 c 0,1763,1764
 459.723118829 234.955477956 459.723118829 234.955477956 462.606748693 234.96257767 c 1,1765,-1
 462.602194711 234.942843746 l 1,1766,1767
 463.833492096 234.945882615 463.833492096 234.945882615 465 234.948759914 c 1,1768,-1
 465 234.968466714 l 1,1769,1770
 467.600531162 234.974862017 467.600531162 234.974862017 469.680949609 234.979960282 c 1,1771,1772
 469.678727475 234.970127518 469.678727475 234.970127518 469.676503213 234.960286947 c 1,1773,1774
 475.081276918 234.973598607 475.081276918 234.973598607 478.696782235 234.98244824 c 0,1775,1776
 480.093679693 234.906320317 480.093679693 234.906320317 480.5 234.5 c 128,-1,1777
 481 234 481 234 481 233 c 2,1778,-1
 479.854858057 228.705717713 l 1,1779,-1
 487.149880096 228.74940048 l 1,1780,-1
 486.6 226 l 1,1781,-1
 479.133333333 226 l 1,1782,-1
 477 218 l 1,1783,-1
 477 217.903797468 l 1,1784,-1
 465.133666458 218.534665834 l 1,1785,-1
 465 218 l 2,1786,1787
 464.9172991 217.751897301 464.9172991 217.751897301 464.848277078 217.524312918 c 2,1788,-1
 461.029676511 217.689074871 l 2,1789,1790
 461.075122955 218.216697584 461.075122955 218.216697584 461.190165831 218.744320298 c 2,1791,-1
 456.98393887 218.96794249 l 2,1792,1793
 456.660114865 218.322910737 456.660114865 218.322910737 456.389146311 217.889300794 c 2,1794,-1
 439.723373776 218.60838235 l 2,1795,1796
 440.548049071 219.185798787 440.548049071 219.185798787 441.364458478 219.798345245 c 2,1797,-1
 425.750626852 220.628447686 l 1,1798,-1
 425.49496337 219.222298535 l 1,1799,-1
 423.042742738 219.328105009 l 1,1800,-1
 423.392446247 220.753819313 l 1,1801,-1
 413.391974411 221.285489968 l 1,1802,-1
 413.0371669 219.759817672 l 1,1803,-1
 409.083759109 219.930396181 l 1,1804,-1
 409.448862216 221.495123781 l 1,1805,-1
 400.559139785 221.967741935 l 1,1806,-1
 400.173465114 220.31485049 l 1,1807,-1
 396.267762547 220.483370652 l 1,1808,-1
 396.672137384 222.174392696 l 1,1809,-1
 386.797674039 222.699364165 l 1,1810,-1
 386.369886953 220.91043635 l 1,1811,-1
 383.28264595 221.04364218 l 1,1812,-1
 383.69641842 222.864241046 l 1,1813,-1
 374.550136116 223.350499093 l 1,1814,-1
 374.029874572 221.442873432 l 1,1815,-1
 363.084880637 221.915119363 l 1,1816,-1
 363 222 l 1,1817,-1
 363 223 l 1,1818,-1
 363 223.964556962 l 1,1819,-1
 360.594117134 224.092464659 l 2,1820,1821
 360.328882551 223.151364266 360.328882551 223.151364266 360.013608676 222.047636174 c 1,1822,-1
 328.58642962 223.403631209 l 1,1823,-1
 329.131730717 225.765148494 l 1,1824,-1
 324.714285714 226 l 1,1825,-1
 268.411764706 226 l 1,1826,-1
 266.861468435 226.066890956 l 1,1827,-1
 265.571428571 226 l 1,1828,-1
 260.882352941 226 l 1,1829,-1
 250.876482213 226.430632411 l 1,1830,-1
 242.571428571 226 l 1,1831,-1
 59.1428571429 226 l 1,1832,-1
 93.3975903614 218.265060241 l 1,1833,-1
 69 217 l 1,1834,-1
 92 217 l 1,1835,-1
 99 217 l 1,1836,-1
 327.107758621 217 l 1,1837,-1
 359.166666667 217 l 1,1838,-1
 364.5 217 l 1,1839,-1
 372.818181818 217 l 1,1840,-1
 372 214 l 1,1841,1842
 376 212 376 212 381 211 c 1,1843,-1
 382.363636364 217 l 1,1844,-1
 385.434782609 217 l 1,1845,-1
 384 211 l 1,1846,-1
 394 211 l 1,1847,-1
 395.434782609 217 l 1,1848,-1
 399.4 217 l 1,1849,-1
 398 211 l 1,1850,-1
 407 211 l 1,1851,-1
 408.4 217 l 1,1852,-1
 412.395348837 217 l 1,1853,-1
 411 211 l 1,1854,-1
 421 211 l 1,1855,-1
 422.471698113 217 l 1,1856,-1
 425.090909091 217 l 1,1857,-1
 424 211 l 1,1858,1859
 430.893522212 212.969577775 430.893522212 212.969577775 437.302139849 217 c 1,1860,-1
 455 217 l 1,1861,-1
 454 216 l 1,1862,-1
 452.5 214.5 l 1,1863,-1
 451 213 l 1,1864,-1
 450.5 213 l 1,1865,-1
 450 213 l 1,1866,-1
 449.5 212.5 l 1,1867,-1
 449 212 l 1,1868,-1
 449 211 l 1,1869,-1
 448 211 l 1,1870,-1
 447 211 l 1,1871,-1
 446 210 l 1,1872,-1
 444.5 209.5 l 2,1873,1874
 443 209 443 209 442.5 208.5 c 2,1875,-1
 442 208 l 1,1876,-1
 441.5 208 l 1,1877,-1
 441 208 l 1,1878,-1
 440.5 208 l 2,1879,1880
 440 208 440 208 439 207.5 c 128,-1,1881
 438 207 438 207 437 207 c 128,-1,1882
 436 207 436 207 435 207 c 128,-1,1883
 434 207 434 207 433.5 206.5 c 128,-1,1884
 433 206 433 206 433 206.5 c 2,1885,-1
 433 207 l 1,1886,-1
 428 207 l 2,1887,1888
 427 207 427 207 426 207 c 128,-1,1889
 425 207 425 207 424 207 c 2,1890,-1
 423 207 l 2,1891,1892
 422 207 422 207 421 207 c 128,-1,1893
 420 207 420 207 412 207 c 0,1894,1895
 403 207 403 207 402.5 206.5 c 128,-1,1896
 402 206 402 206 401.5 206 c 128,-1,1897
 401 206 401 206 400.5 206 c 128,-1,1898
 400 206 400 206 400 206.5 c 128,-1,1899
 400 207 400 207 399 207 c 128,-1,1900
 398 207 398 207 397 207 c 2,1901,-1
 396 207 l 1,1902,-1
 395.5 206.5 l 2,1903,1904
 395 206 395 206 395 206.5 c 128,-1,1905
 395 207 395 207 394 207 c 128,-1,1906
 393 207 393 207 393 206.5 c 128,-1,1907
 393 206 393 206 392.5 206.5 c 2,1908,-1
 392 207 l 1,1909,-1
 385 207 l 2,1910,1911
 380 207 380 207 379.5 207 c 128,-1,1912
 379 207 379 207 378.5 207 c 2,1913,-1
 378 207 l 1,1914,-1
 377.5 207 l 2,1915,1916
 377 207 377 207 376 207.5 c 2,1917,-1
 375 208 l 1,1918,-1
 374 208 l 2,1919,1920
 373 208 373 208 373 208.5 c 128,-1,1921
 373 209 373 209 372.5 209 c 2,1922,-1
 372 209 l 1,1923,-1
 371 209 l 1,1924,-1
 370 210 l 1,1925,-1
 369.5 210 l 2,1926,1927
 369 210 369 210 369 210.5 c 128,-1,1928
 369 211 369 211 368.5 211 c 128,-1,1929
 368 211 368 211 367.5 211.5 c 2,1930,-1
 367 212 l 1,1931,-1
 367 212.5 l 1,1932,-1
 367 213 l 1,1933,-1
 366.5 214 l 2,1934,1935
 366 215 366 215 365.5 215.5 c 128,-1,1936
 365 216 365 216 364.5 217 c 1,1937,-1
 372.818181818 217 l 1,1938,-1
 382.363636364 217 l 1,1939,-1
 385.434782609 217 l 1,1940,-1
 395.434782609 217 l 1,1941,-1
 399.4 217 l 1,1942,-1
 408.4 217 l 1,1943,-1
 412.395348837 217 l 1,1944,-1
 422.471698113 217 l 1,1945,-1
 425.090909091 217 l 1,1946,-1
 437.302139849 217 l 1,1947,-1
 455 217 l 1,1948,-1
 455.5 217 l 1,1949,-1
 461 217 l 1,1950,-1
 464.700340171 217 l 1,1951,-1
 470 217 l 1,1952,-1
 477 217 l 1,1953,-1
 485 217 l 1,1954,-1
 487 217 l 1,1955,-1
 494 217 l 1,1956,-1
 500 217 l 1,1957,-1
 501 217 l 1,1958,-1
 502 218 l 1,1959,-1
 503.6 226 l 1,1960,-1
 489.6 226 l 1,1961,-1
 490.153477218 228.767386091 l 1,1962,-1
 504.170263789 228.851318945 l 1,1963,-1
 505 233 l 2,1964,1965
 505 234 505 234 506 234.5 c 128,-1,1966
 507 235 507 235 509 235 c 0,1967,1968
 510 235 510 235 510 234.5 c 128,-1,1969
 510 234 510 234 510 233 c 2,1970,-1
 509.176258993 228.881294964 l 1,1971,-1
 511.906037585 228.897640944 l 1,1715,-1
508.6 226 m 1,1972,-1
 503.6 226 l 1,1973,-1
 504.170263789 228.851318945 l 1,1974,-1
 509.176258993 228.881294964 l 1,1975,-1
 508.6 226 l 1,1972,-1
59.1428571429 226 m 1,1976,-1
 28 226 l 1,1977,-1
 58.3383333333 226.181666667 l 1,1978,-1
 59.1428571429 226 l 1,1976,-1
58.3383333333 226.181666667 m 1,1979,-1
 232.438157081 227.224180581 l 1,1980,-1
 75 234 l 1,1981,1982
 125.574971945 234.125808388 125.574971945 234.125808388 169.803015951 234.235789025 c 1,1983,-1
 102.635329045 237.806729342 l 1,1984,-1
 6 238 l 1,1985,-1
 58.3383333333 226.181666667 l 1,1979,-1
102.635329045 237.806729342 m 1,1986,-1
 99 238 l 1,1987,-1
 331.956896552 238 l 1,1988,-1
 332.418719212 240 l 1,1989,-1
 364.483119798 240 l 1,1990,1991
 364.18483807 238.63167732 364.18483807 238.63167732 364.070717682 238 c 2,1992,-1
 365.571428571 238 l 1,1993,-1
 365.857142857 240 l 1,1994,-1
 378.28125 240 l 1,1995,-1
 377.84375 238 l 1,1996,-1
 387.136363636 238 l 1,1997,-1
 387.590909091 240 l 1,1998,-1
 390.934782609 240 l 1,1999,-1
 390.456521739 238 l 1,2000,-1
 400.456521739 238 l 1,2001,-1
 400.934782609 240 l 1,2002,-1
 404.766666667 240 l 1,2003,-1
 404.3 238 l 1,2004,-1
 413.3 238 l 1,2005,-1
 413.766666667 240 l 1,2006,-1
 417.744186047 240 l 1,2007,-1
 417.279069767 238 l 1,2008,-1
 427.622641509 238 l 1,2009,-1
 428.113207547 240 l 1,2010,-1
 435 240 l 1,2011,-1
 445 240 l 1,2012,-1
 445.149326898 240.659527131 l 1,2013,-1
 435.177143895 240.77943314 l 1,2014,-1
 435 240 l 1,2015,-1
 445 240 l 1,2016,-1
 449 240 l 1,2017,2018
 448.359621843 238.975394949 448.359621843 238.975394949 447.686436952 238 c 2,2019,-1
 458.440244348 238 l 2,2020,2021
 459.097654743 238.991093441 459.097654743 238.991093441 459.719438902 240 c 1,2022,-1
 463.769230769 240 l 1,2023,-1
 463.307692308 238 l 1,2024,-1
 465 238 l 1,2025,-1
 465 238.5 l 2,2026,2027
 465 239 465 239 464.5 239 c 128,-1,2028
 464 239 464 239 464.5 239.5 c 2,2029,-1
 465 240 l 1,2030,-1
 470.785123967 240 l 2,2031,2032
 470.585729563 239.05999781 470.585729563 239.05999781 470.353609081 238 c 1,2033,-1
 474 238 l 1,2034,-1
 470.311677612 237.808753654 l 2,2035,2036
 470.232280528 237.447073019 470.232280528 237.447073019 470.149149622 237.071701701 c 2,2037,-1
 465 237.082 l 1,2038,-1
 465 237.5 l 1,2039,-1
 465 237.533333333 l 1,2040,-1
 463.178200692 237.438869666 l 1,2041,-1
 463.096724589 237.085806551 l 1,2042,-1
 457.830887149 237.096338226 l 2,2043,2044
 457.854069227 237.130160286 457.854069227 237.130160286 457.877209125 237.164003436 c 2,2045,-1
 456.618982118 237.098762036 l 1,2046,-1
 447.063648804 237.117872702 l 2,2047,2048
 446.869074933 236.848462642 446.869074933 236.848462642 446.671878585 236.582986297 c 2,2049,-1
 427.025198188 235.564269536 l 1,2050,-1
 427.415909177 237.157168182 l 1,2051,-1
 417.087866109 237.177824268 l 1,2052,-1
 416.586748038 235.023016565 l 1,2053,-1
 413.058003346 234.840044618 l 2,2054,2055
 414.82617504 234.8444267 414.82617504 234.8444267 416.546206682 234.848688732 c 1,2056,-1
 416.541593109 234.828850369 l 1,2057,2058
 421.90326963 234.842141018 421.90326963 234.842141018 426.851079142 234.85439958 c 1,2059,-1
 426.855942596 234.874227509 l 1,2060,2061
 432.326322001 234.887774096 432.326322001 234.887774096 437.211616973 234.899861621 c 2,2062,-1
 436.810588854 234.87906757 l 2,2063,2064
 441.291068669 234.890161283 441.291068669 234.890161283 445.363458994 234.900237551 c 1,2065,2066
 442.412993031 231.275821463 442.412993031 231.275821463 438.923052753 228.460617082 c 1,2067,-1
 450.973988362 228.532778373 l 1,2068,2069
 453.838744218 231.625317787 453.838744218 231.625317787 456.284729764 234.927242377 c 1,2070,2071
 459.631969219 234.935513143 459.631969219 234.935513143 462.602194711 234.942843746 c 1,2072,-1
 462.5 234.5 l 2,2073,2074
 461.652888186 230.829182141 461.652888186 230.829182141 461.124709006 228.593561132 c 1,2075,-1
 464 228.610778443 l 1,2076,-1
 464 230 l 1,2077,-1
 464 232 l 1,2078,-1
 464.5 232.5 l 2,2079,2080
 465 233 465 233 465 234 c 2,2081,-1
 465 234.948759914 l 1,2082,2083
 467.485298654 234.954890131 467.485298654 234.954890131 469.676503213 234.960286947 c 1,2084,2085
 469.359831376 233.559269297 469.359831376 233.559269297 469 232 c 128,-1,2086
 468.463072326 230.389216977 468.463072326 230.389216977 467.926144652 228.634288291 c 1,2087,-1
 479.854858057 228.705717713 l 1,2088,-1
 479.133333333 226 l 1,2089,-1
 467.143593539 226 l 2,2090,2091
 467.07179677 225.751288694 467.07179677 225.751288694 467 225.5 c 0,2092,2093
 466 222 466 222 465.5 220 c 2,2094,-1
 465.133666458 218.534665834 l 1,2095,-1
 461.190165831 218.744320298 l 1,2096,2097
 461.436080074 219.872160149 461.436080074 219.872160149 462 221 c 2,2098,-1
 463 225 l 1,2099,-1
 463 226 l 1,2100,-1
 460.5 226 l 1,2101,2102
 460 224 460 224 459.5 223.5 c 128,-1,2103
 459 223 459 223 459 222.5 c 128,-1,2104
 459 222 459 222 458.5 221.5 c 2,2105,-1
 458 221 l 1,2106,-1
 457 219 l 2,2107,2108
 456.991953247 218.983906495 456.991953247 218.983906495 456.98393887 218.96794249 c 2,2109,-1
 441.364458478 219.798345245 l 1,2110,2111
 445.026300999 222.545800932 445.026300999 222.545800932 448.52185096 226 c 1,2112,-1
 435.439492857 226 l 1,2113,2114
 430.342585459 222.868517092 430.342585459 222.868517092 426 222 c 1,2115,-1
 425.750626852 220.628447686 l 1,2116,-1
 423.392446247 220.753819313 l 1,2117,-1
 424.679245283 226 l 1,2118,-1
 414.488372093 226 l 1,2119,-1
 413.391974411 221.285489968 l 1,2120,-1
 409.448862216 221.495123781 l 1,2121,-1
 410.5 226 l 1,2122,-1
 401.5 226 l 1,2123,-1
 400.559139785 221.967741935 l 1,2124,-1
 396.672137384 222.174392696 l 1,2125,-1
 397.586956522 226 l 1,2126,-1
 387.586956522 226 l 1,2127,-1
 386.797674039 222.699364165 l 1,2128,-1
 383.69641842 222.864241046 l 1,2129,-1
 384.409090909 226 l 1,2130,-1
 375.21875 226 l 1,2131,-1
 375 225 l 1,2132,-1
 374.550136116 223.350499093 l 1,2133,-1
 363 223.964556962 l 1,2134,-1
 363 224 l 1,2135,-1
 364 225 l 1,2136,-1
 363.5 225.5 l 2,2137,2138
 363.292893219 225.707106781 363.292893219 225.707106781 363.171572875 226 c 2,2139,-1
 361.126429895 226 l 2,2140,2141
 360.891786463 225.148649413 360.891786463 225.148649413 360.594117134 224.092464659 c 1,2142,-1
 329.131730717 225.765148494 l 1,2143,-1
 329.185960591 226 l 1,2144,-1
 324.714285714 226 l 1,2145,-1
 295.5125 227.5525 l 1,2146,-1
 266.861468435 226.066890956 l 1,2147,-1
 254.307737977 226.608549377 l 1,2148,-1
 250.876482213 226.430632411 l 1,2149,-1
 232.438157081 227.224180581 l 1,2150,-1
 239.113207547 227.264150943 l 1,2151,-1
 83 234 l 1,2152,2153
 129.23209655 234.115005215 129.23209655 234.115005215 170.160487083 234.216784231 c 1,2154,-1
 169.803015951 234.235789025 l 1,2155,2156
 265.280798303 234.473210951 265.280798303 234.473210951 331.180312102 234.636871608 c 1,2157,-1
 331.806431759 237.348387136 l 1,2158,-1
 102.635329045 237.806729342 l 1,1986,-1
294.677857509 227.596873398 m 1,2159,-1
 284.15625 228.15625 l 1,2160,-1
 270.586073501 227.452611219 l 1,2161,-1
 294.677857509 227.596873398 l 1,2159,-1
296.588974855 227.608317215 m 1,2162,-1
 329.602987819 227.806005915 l 1,2163,-1
 329.956858943 229.338503797 l 1,2164,-1
 296.588974855 227.608317215 l 1,2162,-1
476 238 m 1,2165,-1
 479 238 l 2,2166,2167
 478.030339813 238 478.030339813 238 476.120438749 237.059759123 c 0,2168,2169
 476.060219375 237.059759123 476.060219375 237.059759123 476 237.06 c 2,2170,-1
 476 238 l 1,2165,-1
481.788732394 237.211267606 m 1,2171,-1
 481 238 l 1,2172,-1
 487 238 l 2,2173,2174
 485.872679427 238 485.872679427 238 484.745358854 237.364574163 c 2,2175,-1
 481.788732394 237.211267606 l 1,2171,-1
490.188586402 237.646815591 m 2,2176,2177
 489.594293201 238 489.594293201 238 489 238 c 2,2178,-1
 497 238 l 1,2179,-1
 490.188586402 237.646815591 l 2,2176,2177
276.558888889 242.686666667 m 1,2180,-1
 1 246 l 1,2181,-1
 333.804187192 246 l 1,2182,-1
 334.978255026 251.084496431 l 1,2183,2184
 351.968674058 251.096452152 351.968674058 251.096452152 367.280966067 251.11009927 c 1,2185,2186
 366.806458381 249.995185727 366.806458381 249.995185727 365.851905375 246 c 1,2187,-1
 368 246 l 1,2188,-1
 368 248 l 1,2189,-1
 368 250 l 2,2190,2191
 368 250.666427283 368 250.666427283 368.055515665 251.110791907 c 0,2192,2193
 374.536060358 251.11660208 374.536060358 251.11660208 380.714344334 251.122716953 c 1,2194,-1
 379.59375 246 l 1,2195,-1
 388.954545455 246 l 1,2196,-1
 390.120997883 251.132390684 l 1,2197,2198
 391.872511512 251.134262306 391.872511512 251.134262306 393.597777484 251.136160388 c 1,2199,-1
 392.369565217 246 l 1,2200,-1
 402.369565217 246 l 1,2201,-1
 403.600525436 251.147651823 l 1,2202,2203
 405.502178877 251.149933404 405.502178877 251.149933404 407.368858389 251.15225024 c 1,2204,-1
 406.166666667 246 l 1,2205,-1
 415.166666667 246 l 1,2206,-1
 416.371577446 251.163903341 l 1,2207,2208
 418.378875026 251.166613643 418.378875026 251.166613643 420.341713666 251.169368762 c 1,2209,-1
 419.139534884 246 l 1,2210,-1
 429.58490566 246 l 1,2211,-1
 430.856685308 251.184947793 l 1,2212,2213
 434.2774323 251.190300504 434.2774323 251.190300504 437.544501848 251.195808132 c 1,2214,-1
 436.363636364 246 l 1,2215,-1
 446.358490566 246 l 1,2216,-1
 447.538951397 251.213702005 l 1,2217,2218
 451.412071982 251.221074138 451.412071982 251.221074138 455.032908703 251.228700449 c 1,2219,2220
 453.857623519 248.614350295 453.857623519 248.614350295 452.46875 246 c 1,2221,-1
 463.025453515 246 l 1,2222,2223
 464.283674871 248.573632229 464.283674871 248.573632229 465.332099485 251.25216283 c 1,2224,2225
 469.360810084 251.262113446 469.360810084 251.262113446 473 251.272456725 c 1,2226,-1
 473 251 l 2,2227,2228
 473 250 473 250 472.5 249 c 128,-1,2229
 472 248 472 248 472 247 c 0,2230,2231
 472 246.659457573 472 246.659457573 471.913023142 246 c 2,2232,-1
 498 246 l 1,2233,-1
 471.857964792 245.608847354 l 1,2234,2235
 471.597464129 243.855536198 471.597464129 243.855536198 470.859190408 240.350390496 c 1,2236,-1
 464.05869122 240.432160025 l 2,2237,2238
 464 240.657388793 464 240.657388793 464 241 c 2,2239,-1
 463.869485012 240.43443505 l 1,2240,-1
 460.013121146 240.480804155 l 1,2241,2242
 461.492710157 242.924962691 461.492710157 242.924962691 462.764956878 245.472792372 c 1,2243,-1
 452.100213309 245.313220149 l 1,2244,2245
 450.825329659 242.960953553 450.825329659 242.960953553 449.377534818 240.608686956 c 1,2246,-1
 445.149326898 240.659527131 l 1,2247,-1
 446.182946981 245.224682498 l 1,2248,-1
 436.153321201 245.074613285 l 1,2249,-1
 435.177143895 240.77943314 l 1,2250,-1
 428.324599434 240.861828464 l 1,2251,-1
 429.332892562 244.972561983 l 1,2252,-1
 418.864168073 244.815922714 l 1,2253,-1
 417.973555793 240.98628991 l 1,2254,-1
 414.007926992 241.033972822 l 1,2255,-1
 414.876459793 244.756256256 l 1,2256,-1
 405.844928262 244.621121121 l 1,2257,-1
 405.033106848 241.141886491 l 1,2258,-1
 401.218809731 241.187749783 l 1,2259,-1
 402.02616975 244.56398259 l 1,2260,-1
 391.990261153 244.413819369 l 1,2261,-1
 391.247480452 241.307645526 l 1,2262,-1
 387.897256541 241.347928779 l 1,2263,-1
 388.582461328 244.362829845 l 1,2264,-1
 379.204925723 244.222517592 l 1,2265,-1
 378.600562149 241.45971268 l 1,2266,-1
 366.013886107 241.611055478 l 1,2267,2268
 366.083324988 243 366.083324988 243 366.5 243 c 128,-1,2269
 367 243 367 243 367 243.5 c 2,2270,-1
 367 244.039900249 l 1,2271,-1
 365.388424346 244.015786898 l 1,2272,2273
 365.082368728 242.685525916 365.082368728 242.685525916 364.843778105 241.625124913 c 1,2274,-1
 332.882718495 242.009426231 l 1,2275,-1
 333.234918502 243.53468706 l 1,2276,-1
 276.558888889 242.686666667 l 1,2180,-1
276.558888889 242.686666667 m 1,2277,-1
 97 240 l 1,2278,-1
 332.418719212 240 l 1,2279,-1
 332.882718495 242.009426231 l 1,2280,-1
 276.558888889 242.686666667 l 1,2277,-1
366.013886107 241.611055478 m 2,2281,-1
 364.843778105 241.625124913 l 2,2282,2283
 364.638471541 240.712652811 364.638471541 240.712652811 364.483119798 240 c 2,2284,-1
 365.857142857 240 l 1,2285,-1
 366 241 l 2,2286,2287
 366 241.333299954 366 241.333299954 366.013886107 241.611055478 c 2,2281,-1
365.103013624 234.721095367 m 2,2288,-1
 365.468723222 237.281062554 l 2,2289,2290
 364.734361611 237.281062554 364.734361611 237.281062554 364 237.284 c 2,2291,-1
 364 237 l 1,2292,-1
 363.238822757 234.716468271 l 2,2293,2294
 364.174734427 234.718791336 364.174734427 234.718791336 365.103013624 234.721095367 c 2,2288,-1
364.243291747 231.116318831 m 1,2295,-1
 362 231 l 1,2296,-1
 362 230 l 1,2297,-1
 362 229.5 l 2,2298,2299
 362 229.295050386 362 229.295050386 361.663965244 227.997987816 c 1,2300,-1
 363.327067729 228.007946513 l 1,2301,2302
 363.785179738 229.457199366 363.785179738 229.457199366 364.243291747 231.116318831 c 1,2295,-1
463.769230769 240 m 1,2303,-1
 464.5 240 l 2,2304,2305
 464.171305603 240 464.171305603 240 464.05869122 240.432160025 c 0,2306,2307
 463.964088116 240.432160025 463.964088116 240.432160025 463.869485012 240.43443505 c 2,2308,-1
 463.769230769 240 l 1,2303,-1
459.719438902 240 m 2,2309,2310
 459.867287172 240.239898503 459.867287172 240.239898503 460.013121146 240.480804155 c 2,2311,-1
 449.377534818 240.608686956 l 2,2312,2313
 449.190214674 240.304343478 449.190214674 240.304343478 449 240 c 2,2314,-1
 459.719438902 240 l 2,2309,2310
484.202529758 251.308591257 m 1,2315,2316
 483.178412425 251.000001068 483.178412425 251.000001068 482 251 c 128,-1,2317
 481 251 481 251 479 251 c 2,2318,-1
 477 251 l 1,2319,-1
 477.060963386 251.284495803 l 1,2320,2321
 480.874642655 251.296299209 480.874642655 251.296299209 484.202529758 251.308591257 c 1,2315,2316
484.202529758 251.308591257 m 1,2322,2323
 489.503082101 251.32817134 489.503082101 251.32817134 493.571223357 251.348993505 c 1,2324,2325
 492.517650072 251.723526217 492.517650072 251.723526217 492 252.5 c 128,-1,2326
 491.61360062 253.07959907 491.61360062 253.07959907 491.525810202 253.883154861 c 2,2327,-1
 487.718264976 253.86030959 l 2,2328,2329
 487.376888065 253.376888065 487.376888065 253.376888065 487 253 c 0,2330,2331
 485.785608286 251.785608286 485.785608286 251.785608286 484.202529758 251.308591257 c 1,2322,2323
477.060963386 251.284495803 m 1,2332,-1
 477.599914175 253.799599485 l 1,2333,-1
 473.809147621 253.776854886 l 2,2334,2335
 473.563133454 253.126266908 473.563133454 253.126266908 473 252 c 2,2336,-1
 473 251.272456725 l 1,2337,2338
 475.095027897 251.278411197 475.095027897 251.278411197 477.060963386 251.284495803 c 1,2332,-1
502.08687709 251.405426418 m 2,2339,-1
 502 251 l 1,2340,-1
 500 251 l 1,2341,-1
 500 251.388258711 l 1,2342,2343
 501.135542619 251.396749718 501.135542619 251.396749718 502.08687709 251.405426418 c 2,2339,-1
502.08687709 251.405426418 m 1,2344,2345
 507 251.450236837 507 251.450236837 507 251.5 c 2,2346,-1
 507 253.976 l 1,2347,-1
 502.632098412 253.94979259 l 1,2348,-1
 502.08687709 251.405426418 l 1,2344,2345
500 251.388258711 m 2,2349,-1
 500 252 l 2,2350,2351
 499.228611506 251.614305753 499.228611506 251.614305753 498.457223004 251.377372751 c 1,2352,2353
 499.266990307 251.382776446 499.266990307 251.382776446 500 251.388258711 c 2,2349,-1
498.457223004 251.377372751 m 1,2354,2355
 497.228611498 251.000001193 497.228611498 251.000001193 496 251 c 0,2356,2357
 494.552950235 251 494.552950235 251 493.571223357 251.348993505 c 1,2358,2359
 496.289302347 251.36290576 496.289302347 251.36290576 498.457223004 251.377372751 c 1,2354,2355
455.032908703 251.228700449 m 1,2360,2361
 460.466575559 251.240145207 460.466575559 251.240145207 465.332099485 251.25216283 c 1,2362,2363
 465.813008133 252.480795304 465.813008133 252.480795304 466.249775035 253.73149865 c 1,2364,-1
 456.084044175 253.670504265 l 1,2365,2366
 455.58176709 252.449602286 455.58176709 252.449602286 455.032908703 251.228700449 c 1,2360,2361
470.785123967 240 m 2,2367,-1
 500 240 l 1,2368,-1
 470.859190408 240.350390496 l 2,2369,2370
 470.822739523 240.177330477 470.822739523 240.177330477 470.785123967 240 c 2,2367,-1
404.129272434 253.358775635 m 1,2371,-1
 394.114903993 253.298689424 l 1,2372,-1
 393.597777484 251.136160388 l 1,2373,2374
 398.71458906 251.141789737 398.71458906 251.141789737 403.600525436 251.147651823 c 1,2375,-1
 404.129272434 253.358775635 l 1,2371,-1
400.934782609 240 m 1,2376,-1
 401.218809731 241.187749783 l 1,2377,-1
 391.247480452 241.307645526 l 1,2378,-1
 390.934782609 240 l 1,2379,-1
 400.934782609 240 l 1,2376,-1
399.692957265 234.806912201 m 1,2380,-1
 400.267958802 237.211464082 l 1,2381,-1
 390.272739125 237.231454522 l 1,2382,-1
 389.687023034 234.782096324 l 1,2383,2384
 394.840341444 234.794879203 394.840341444 234.794879203 399.692957265 234.806912201 c 1,2380,-1
399.244415457 232.931191913 m 1,2385,-1
 389.118865156 232.406163378 l 1,2386,-1
 388.102594186 228.156302959 l 1,2387,-1
 398.116933907 228.216269065 l 1,2388,-1
 399.244415457 232.931191913 l 1,2385,-1
390.608557123 253.277651343 m 1,2389,-1
 381.173352525 253.221040115 l 1,2390,-1
 380.714344334 251.122716953 l 1,2391,2392
 385.50867761 251.127462078 385.50867761 251.127462078 390.120997883 251.132390684 c 1,2393,-1
 390.608557123 253.277651343 l 1,2389,-1
387.590909091 240 m 1,2394,-1
 387.897256541 241.347928779 l 1,2395,-1
 378.600562149 241.45971268 l 1,2396,-1
 378.28125 240 l 1,2397,-1
 387.590909091 240 l 1,2394,-1
386.403170519 234.773950285 m 1,2398,-1
 386.963198546 237.238073603 l 1,2399,-1
 377.681139501 237.256637721 l 1,2400,-1
 377.133020404 234.750950418 l 1,2401,2402
 381.87978315 234.762728875 381.87978315 234.762728875 386.403170519 234.773950285 c 1,2398,-1
385.826235094 232.235434412 m 1,2403,-1
 376.476703348 231.750643877 l 1,2404,-1
 375.674161514 228.081881207 l 1,2405,-1
 384.894794222 228.137094576 l 1,2406,-1
 385.826235094 232.235434412 l 1,2403,-1
416.901595567 253.435409573 m 1,2407,-1
 407.888977902 253.381333867 l 1,2408,-1
 407.368858389 251.15225024 l 1,2409,2410
 411.976775463 251.157969374 411.976775463 251.157969374 416.371577446 251.163903341 c 1,2411,-1
 416.901595567 253.435409573 l 1,2407,-1
413.766666667 240 m 1,2412,-1
 414.007926992 241.033972822 l 1,2413,-1
 405.033106848 241.141886491 l 1,2414,-1
 404.766666667 240 l 1,2415,-1
 413.766666667 240 l 1,2412,-1
412.562390475 234.83881632 m 1,2416,-1
 413.110015326 237.185779969 l 1,2417,-1
 404.114213367 237.203771573 l 1,2418,-1
 403.557181841 234.816493603 l 1,2419,2420
 408.204865569 234.828016755 408.204865569 234.828016755 412.562390475 234.83881632 c 1,2416,-1
412.274931267 233.606848288 m 1,2421,-1
 403.164708823 233.134466383 l 1,2422,-1
 402.022586448 228.239656206 l 1,2423,-1
 411.035178893 228.293623826 l 1,2424,-1
 412.274931267 233.606848288 l 1,2421,-1
431.430066891 253.522580401 m 1,2425,-1
 420.87424313 253.459245459 l 1,2426,-1
 420.341713666 251.169368762 l 1,2427,2428
 425.769161231 251.176986945 425.769161231 251.176986945 430.856685308 251.184947793 c 1,2429,-1
 431.430066891 253.522580401 l 1,2425,-1
428.113207547 240 m 1,2430,-1
 428.324599434 240.861828464 l 1,2431,-1
 417.973555793 240.98628991 l 1,2432,-1
 417.744186047 240 l 1,2433,-1
 428.113207547 240 l 1,2430,-1
427.025198188 235.564269536 m 1,2434,-1
 416.586748038 235.023016565 l 1,2435,-1
 416.546206682 234.848688732 l 1,2436,2437
 421.937557023 234.862047852 421.937557023 234.862047852 426.855942596 234.874227509 c 1,2438,-1
 427.025198188 235.564269536 l 1,2434,-1
426.728907135 234.356313703 m 1,2439,-1
 416.306015693 233.81586748 l 1,2440,-1
 415.027332311 228.317528936 l 1,2441,-1
 425.262729124 228.378818737 l 1,2442,-1
 426.728907135 234.356313703 l 1,2439,-1
448.084340992 253.622506046 m 1,2443,-1
 438.082385071 253.56249431 l 1,2444,-1
 437.544501848 251.195808132 l 1,2445,2446
 442.735727256 251.204559503 442.735727256 251.204559503 447.538951397 251.213702005 c 1,2447,-1
 448.084340992 253.622506046 l 1,2443,-1
340.419335316 274.648001476 m 1,2448,2449
 273.311016954 273.870312027 273.311016954 273.870312027 339.956885197 272.645284162 c 1,2450,-1
 340.419335316 274.648001476 l 1,2448,2449
335.408201017 252.946449206 m 1,2451,-1
 11 251 l 1,2452,2453
 214.899357229 251 214.899357229 251 334.978255026 251.084496431 c 1,2454,-1
 335.408201017 252.946449206 l 1,2451,-1
EndSplineSet
EndChar

StartChar: c
Encoding: 99 99 70
Width: 1796
GlyphClass: 2
Flags: W
LayerCount: 2
Fore
SplineSet
1777 782 m 1,0,1
 1689 460 1689 460 1462.5 230 c 128,-1,2
 1236 0 1236 0 930 0 c 0,3,4
 597 0 597 0 470.5 295.5 c 0,5,6
 406.104627767 445.92555332 406.104627767 445.92555332 406.104627767 656.341161658 c 0,7,8
 406.104627767 859.271629779 406.104627767 859.271629779 466 1118 c 0,9,10
 595 1676 595 1676 867.5 1955 c 128,-1,11
 1140 2234 1140 2234 1376 2234 c 2,12,-1
 1529 2234 l 2,13,14
 1751 2234 1751 2234 1882.5 2020 c 0,15,16
 1965.04057279 1885.67541766 1965.04057279 1885.67541766 1965.04057279 1702.89026037 c 0,17,18
 1965.04057279 1594.47016706 1965.04057279 1594.47016706 1936 1469 c 1,19,-1
 1666 1469 l 1,20,21
 1676.1659751 1547.13278008 1676.1659751 1547.13278008 1676.1659751 1611.34534529 c 0,22,23
 1676.1659751 1768.20746888 1676.1659751 1768.20746888 1615.5 1842 c 0,24,25
 1530 1946 1530 1946 1379 1946 c 0,26,27
 1173 1946 1173 1946 993 1729.5 c 128,-1,28
 813 1513 813 1513 724 1125 c 0,29,30
 671.916666667 899.479166667 671.916666667 899.479166667 671.916666667 738.791232639 c 0,31,32
 671.916666667 590.958333333 671.916666667 590.958333333 716 498 c 0,33,34
 808 304 808 304 1000 304 c 0,35,36
 1151 304 1151 304 1293 446 c 128,-1,37
 1435 588 1435 588 1493 782 c 1,38,-1
 1777 782 l 1,0,1
EndSplineSet
EndChar

StartChar: d
Encoding: 100 100 71
Width: 1764
GlyphClass: 2
Flags: W
LayerCount: 2
Fore
SplineSet
1349 452 m 1,0,-1
 1652 1767 l 1,1,2
 1488 1946 1488 1946 1310 1946 c 0,3,4
 1077 1946 1077 1946 947 1737 c 128,-1,5
 817 1528 817 1528 737 1184 c 1,6,-1
 703 1035 l 1,7,8
 652.16838488 814.237113402 652.16838488 814.237113402 652.16838488 658.71686683 c 0,9,10
 652.16838488 288 652.16838488 288 941 288 c 0,11,12
 1133 288 1133 288 1349 452 c 1,0,-1
1621 586 m 2,13,14
 1558 314 1558 314 1540 225 c 1,15,16
 1539 198 1539 198 1556.5 172 c 128,-1,17
 1574 146 1574 146 1594.5 146 c 128,-1,18
 1615 146 1615 146 1653.5 170 c 128,-1,19
 1692 194 1692 194 1714 228 c 2,20,-1
 1906 534 l 1,21,-1
 1939 484 l 1,22,23
 1787 190 1787 190 1673 64.5 c 128,-1,24
 1559 -61 1559 -61 1448 -61 c 0,25,26
 1284 -61 1284 -61 1274 128 c 1,27,28
 1094 0 1094 0 875 0 c 0,29,30
 383.409944751 0 383.409944751 0 383.409944751 561.662007875 c 0,31,32
 383.409944751 762.075138122 383.409944751 762.075138122 446 1034 c 2,33,-1
 481 1186 l 2,34,35
 614 1764 614 1764 823.5 1999 c 128,-1,36
 1033 2234 1033 2234 1268 2234 c 2,37,-1
 1391 2234 l 2,38,39
 1569 2234 1569 2234 1723 2074 c 1,40,-1
 1994 3248 l 1,41,-1
 2236 3248 l 1,42,-1
 1621 586 l 2,13,14
EndSplineSet
EndChar

StartChar: e
Encoding: 101 101 72
Width: 1797
GlyphClass: 2
Flags: W
LayerCount: 2
Fore
SplineSet
1592 1269 m 1,0,1
 1649.31578947 1482.63157895 1649.31578947 1482.63157895 1649.31578947 1626.88088643 c 0,2,3
 1649.31578947 1731.78947368 1649.31578947 1731.78947368 1619 1800 c 0,4,5
 1547 1962 1547 1962 1341 1962 c 0,6,7
 1163 1962 1163 1962 999 1785 c 128,-1,8
 835 1608 835 1608 757 1269 c 1,9,-1
 1592 1269 l 1,0,1
694 997 m 1,10,11
 668.123076923 858.692307692 668.123076923 858.692307692 668.123076923 743.872899408 c 0,12,13
 668.123076923 601.338461538 668.123076923 601.338461538 708 495 c 0,14,15
 780 303 780 303 1023 288 c 1,16,17
 1146 288 1146 288 1233 339.5 c 128,-1,18
 1320 391 1320 391 1382 480 c 1,19,-1
 1666 480 l 1,20,21
 1555 248 1555 248 1358 124 c 128,-1,22
 1161 0 1161 0 956 0 c 0,23,24
 614 0 614 0 475.5 279.5 c 0,25,26
 395.407098121 441.131524008 395.407098121 441.131524008 395.407098121 655.768162621 c 0,27,28
 395.407098121 812.290187891 395.407098121 812.290187891 438 997 c 2,29,-1
 501 1269 l 2,30,31
 616 1767 616 1767 852 2000.5 c 128,-1,32
 1088 2234 1088 2234 1322 2234 c 2,33,-1
 1485 2234 l 2,34,35
 1705 2234 1705 2234 1841 2000.5 c 0,36,37
 1914.68924303 1873.98207171 1914.68924303 1873.98207171 1914.68924303 1669.81153474 c 0,38,39
 1914.68924303 1497.16733068 1914.68924303 1497.16733068 1862 1269 c 2,40,-1
 1799 997 l 1,41,-1
 694 997 l 1,10,11
EndSplineSet
EndChar

StartChar: f
Encoding: 102 102 73
Width: 1074
GlyphClass: 2
Flags: W
HStem: -576 272<-222 180.41> 1962 272<555 725 1044 1405> 2976 272<1235.14 1639>
DStem2: 233 -167 490 -167 0.224907 0.97438<-114.173 2185.11 2521.89 3249.16>
LayerCount: 2
Fore
SplineSet
1702 3248 m 1,0,-1
 1639 2976 l 1,1,-1
 1352 2976 l 2,2,3
 1270 2976 1270 2976 1234 2938 c 128,-1,4
 1198 2900 1198 2900 1176 2805 c 2,5,-1
 1044 2234 l 1,6,-1
 1468 2234 l 1,7,-1
 1405 1962 l 1,8,-1
 981 1962 l 1,9,-1
 490 -167 l 2,10,11
 439 -387 439 -387 327 -481.5 c 128,-1,12
 215 -576 215 -576 6 -576 c 2,13,-1
 -285 -576 l 1,14,-1
 -222 -304 l 1,15,-1
 65 -304 l 2,16,17
 147 -304 147 -304 181.5 -273.5 c 128,-1,18
 216 -243 216 -243 233 -167 c 2,19,-1
 725 1962 l 1,20,-1
 492 1962 l 1,21,-1
 555 2234 l 1,22,-1
 788 2234 l 1,23,-1
 913 2777 l 2,24,25
 972 3030 972 3030 1087 3139 c 128,-1,26
 1202 3248 1202 3248 1411 3248 c 2,27,-1
 1702 3248 l 1,0,-1
EndSplineSet
EndChar

StartChar: g
Encoding: 103 103 74
Width: 1664
GlyphClass: 2
Flags: W
LayerCount: 2
Fore
SplineSet
697 1012 m 1,0,1
 645.438325991 788.566079295 645.438325991 788.566079295 645.438325991 640.430374158 c 0,2,3
 645.438325991 349 645.438325991 349 845 349 c 0,4,5
 1009 349 1009 349 1223 499 c 1,6,-1
 1525 1811 l 1,7,8
 1379.0729927 1946.00729927 1379.0729927 1946.00729927 1216.39325484 1946.00729927 c 0,9,10
 1215.19708029 1946.00729927 1215.19708029 1946.00729927 1214 1946 c 1,11,12
 913 1946 913 1946 750 1238 c 1,13,-1
 697 1012 l 1,0,1
212 -166 m 1,14,15
 440 -256 440 -256 640.5 -256 c 128,-1,16
 841 -256 841 -256 973 -133 c 128,-1,17
 1105 -10 1105 -10 1155 205 c 1,18,19
 944 61 944 61 780 61 c 0,20,21
 379.274131274 61 379.274131274 61 379.274131274 550.432238637 c 0,22,23
 379.274131274 742.521235521 379.274131274 742.521235521 441 1010 c 2,24,-1
 494 1239 l 2,25,26
 621 1790 621 1790 806.5 2012 c 128,-1,27
 992 2234 992 2234 1173 2234 c 2,28,-1
 1323 2234 l 2,29,30
 1460 2234 1460 2234 1590 2090 c 1,31,-1
 1623 2234 l 1,32,-1
 1879 2234 l 1,33,-1
 1444 349 l 2,34,35
 1328 -152 1328 -152 1112 -364 c 128,-1,36
 896 -576 896 -576 618 -576 c 0,37,38
 354 -576 354 -576 132 -512 c 1,39,-1
 212 -166 l 1,14,15
EndSplineSet
EndChar

StartChar: h
Encoding: 104 104 75
Width: 1783
GlyphClass: 2
Flags: W
LayerCount: 2
Fore
SplineSet
1633 571 m 2,0,1
 1576 326 1576 326 1560 238 c 1,2,3
 1559 213 1559 213 1577.5 189 c 128,-1,4
 1596 165 1596 165 1617 165 c 0,5,6
 1641 165 1641 165 1682.5 194.5 c 128,-1,7
 1724 224 1724 224 1753 268 c 2,8,-1
 1929 546 l 1,9,-1
 1968 494 l 1,10,11
 1810 192 1810 192 1694 66.5 c 128,-1,12
 1578 -59 1578 -59 1459 -59 c 0,13,14
 1395 -59 1395 -59 1359.5 -13 c 128,-1,15
 1324 33 1324 33 1318 122 c 0,16,17
 1316.24390244 148.048780488 1316.24390244 148.048780488 1316.24390244 176.58179655 c 0,18,19
 1316.24390244 245.536585366 1316.24390244 245.536585366 1326.5 329 c 0,20,21
 1341 447 1341 447 1377 604 c 2,22,-1
 1631 1705 l 2,23,24
 1644.07482993 1762.36054422 1644.07482993 1762.36054422 1644.07482993 1804.86737008 c 0,25,26
 1644.07482993 1863.14285714 1644.07482993 1863.14285714 1619.5 1893.5 c 0,27,28
 1577 1946 1577 1946 1438 1946 c 0,29,30
 1327 1946 1327 1946 1210 1886 c 128,-1,31
 1093 1826 1093 1826 916 1661 c 1,32,-1
 533 0 l 1,33,-1
 277 0 l 1,34,-1
 1027 3248 l 1,35,-1
 1283 3248 l 1,36,-1
 986 1962 l 1,37,38
 1077 2058 1077 2058 1222 2146 c 128,-1,39
 1367 2234 1367 2234 1491 2234 c 2,40,-1
 1616 2234 l 2,41,42
 1796 2234 1796 2234 1877 2105.5 c 0,43,44
 1927.46923077 2025.43461538 1927.46923077 2025.43461538 1927.46923077 1912.95245562 c 0,45,46
 1927.46923077 1844.90769231 1927.46923077 1844.90769231 1909 1765 c 2,47,-1
 1633 571 l 2,0,1
EndSplineSet
EndChar

StartChar: i
Encoding: 105 105 76
Width: 757
GlyphClass: 2
Flags: W
HStem: -59 224<440.5 670.656> 2332 20G<787.389 1063> 3228 20G<994.379 1269>
VStem: 331.093 248.907<165.006 642.967>
DStem2: 398 643 580 243 0.223485 0.974707<-412.712 1753.83 2191.86 2673.43>
LayerCount: 2
Fore
SplineSet
1147 2720 m 1,0,-1
 877 2720 l 1,1,-1
 999 3248 l 1,2,-1
 1269 3248 l 1,3,-1
 1147 2720 l 1,0,-1
657 595 m 2,4,5
 597 336 597 336 580 243 c 1,6,7
 579 216 579 216 596.5 190.5 c 128,-1,8
 614 165 614 165 635 165 c 0,9,10
 659 165 659 165 701 196.5 c 128,-1,11
 743 228 743 228 773 275 c 1,12,-1
 953 571 l 1,13,-1
 991 516 l 1,14,15
 829 202 829 202 711 71.5 c 128,-1,16
 593 -59 593 -59 473 -59 c 0,17,18
 408 -59 408 -59 373 -10.5 c 128,-1,19
 338 38 338 38 332.5 132.5 c 0,20,21
 331.093023256 156.674418605 331.093023256 156.674418605 331.093023256 182.844780963 c 0,22,23
 331.093023256 258.976744186 331.093023256 258.976744186 343 352 c 0,24,25
 359 477 359 477 398 643 c 2,26,-1
 792 2352 l 1,27,-1
 1063 2352 l 1,28,-1
 657 595 l 2,4,5
EndSplineSet
EndChar

StartChar: j
Encoding: 106 106 77
Width: 792
GlyphClass: 2
Flags: W
LayerCount: 2
Fore
SplineSet
1059 2352 m 1,0,-1
 498 -80 l 2,1,2
 383 -576 383 -576 62 -576 c 2,3,-1
 -133 -576 l 1,4,-1
 -63 -272 l 1,5,-1
 47 -272 l 2,6,7
 198 -272 198 -272 242 -80 c 2,8,-1
 803 2352 l 1,9,-1
 1059 2352 l 1,0,-1
1144 2720 m 1,10,-1
 888 2720 l 1,11,-1
 1010 3248 l 1,12,-1
 1266 3248 l 1,13,-1
 1144 2720 l 1,10,-1
EndSplineSet
EndChar

StartChar: k
Encoding: 107 107 78
Width: 1637
GlyphClass: 2
Flags: W
HStem: 0 21G<277 537.614 1199.89 1504> 2216 198<1840 2009.54> 3228 20G<1022.38 1283>
VStem: 2057 52<1863 1984.07>
DStem2: 277 0 533 0 0.224991 0.974361<57.5977 1067.44 1476.91 3333.47> 852 1383 1009 1249 0.684826 0.728706<0 9.87112 339.531 1344.38>
LayerCount: 2
Fore
SplineSet
533 0 m 1,0,-1
 277 0 l 1,1,-1
 1027 3248 l 1,2,-1
 1283 3248 l 1,3,-1
 852 1383 l 1,4,-1
 1771 2359 l 2,5,6
 1824 2414 1824 2414 1888 2414 c 0,7,8
 1992 2414 1992 2414 2044.5 2286 c 128,-1,9
 2097 2158 2097 2158 2109 1863 c 1,10,-1
 2057 1812 l 1,11,-1
 2008 2143 l 1,12,13
 2002 2173 2002 2173 1975 2194.5 c 128,-1,14
 1948 2216 1948 2216 1929 2216 c 0,15,16
 1920 2216 1920 2216 1912.5 2210 c 128,-1,17
 1905 2204 1905 2204 1891.5 2188 c 128,-1,18
 1878 2172 1878 2172 1874 2168 c 2,19,-1
 1235 1489 l 1,20,-1
 1504 0 l 1,21,-1
 1203 0 l 1,22,-1
 1009 1249 l 1,23,-1
 760 984 l 1,24,-1
 533 0 l 1,0,-1
EndSplineSet
EndChar

StartChar: l
Encoding: 108 108 79
Width: 757
GlyphClass: 2
Flags: W
HStem: -59 224<440.5 670.656> 3228 20G<994.386 1269>
VStem: 331.093 248.907<165.006 636.453>
DStem2: 398 643 580 243 0.223485 0.974707<-412.712 2673.43>
LayerCount: 2
Fore
SplineSet
657 595 m 2,0,1
 597 336 597 336 580 243 c 1,2,3
 579 216 579 216 596.5 190.5 c 128,-1,4
 614 165 614 165 635 165 c 0,5,6
 659 165 659 165 701 196.5 c 128,-1,7
 743 228 743 228 773 275 c 1,8,-1
 953 571 l 1,9,-1
 991 516 l 1,10,11
 829 202 829 202 711 71.5 c 128,-1,12
 593 -59 593 -59 473 -59 c 0,13,14
 408 -59 408 -59 373 -10.5 c 128,-1,15
 338 38 338 38 332.5 132.5 c 0,16,17
 331.093023256 156.674418605 331.093023256 156.674418605 331.093023256 182.844780963 c 0,18,19
 331.093023256 258.976744186 331.093023256 258.976744186 343 352 c 0,20,21
 359 477 359 477 398 643 c 2,22,-1
 999 3248 l 1,23,-1
 1269 3248 l 1,24,-1
 657 595 l 2,0,1
EndSplineSet
EndChar

StartChar: m
Encoding: 109 109 80
Width: 2614
GlyphClass: 2
Flags: W
HStem: -59 224<2257.5 2487.93> 0 21G<277 537.619 1163 1423.61> 1962 272<1096.7 1512.1 1978.5 2436.74>
VStem: 2146.53 244.465<165.688 637.938> 2472.54 278.793<1436.96 1920.95>
DStem2: 277 0 533 0 0.225051 0.974347<57.613 2018.23 2186.21 2292.82> 1163 0 1419 0 0.224503 0.974473<57.4728 1832.11> 2208 604 2391 238 0.222139 0.975015<-373.984 1216.94>
LayerCount: 2
Fore
SplineSet
2464 571 m 2,0,1
 2407 326 2407 326 2391 238 c 1,2,3
 2390 213 2390 213 2408.5 189 c 128,-1,4
 2427 165 2427 165 2448 165 c 0,5,6
 2472 165 2472 165 2513.5 194.5 c 128,-1,7
 2555 224 2555 224 2584 268 c 2,8,-1
 2760 546 l 1,9,-1
 2798 494 l 1,10,11
 2640 192 2640 192 2524 66.5 c 128,-1,12
 2408 -59 2408 -59 2290 -59 c 0,13,14
 2225 -59 2225 -59 2190 -13 c 128,-1,15
 2155 33 2155 33 2148.5 122 c 0,16,17
 2146.53488372 148.906976744 2146.53488372 148.906976744 2146.53488372 178.510275825 c 0,18,19
 2146.53488372 246.825581395 2146.53488372 246.825581395 2157 329.5 c 0,20,21
 2172 448 2172 448 2208 604 c 2,22,-1
 2459 1690 l 2,23,24
 2472.5359116 1748.39779006 2472.5359116 1748.39779006 2472.5359116 1793.25966851 c 0,25,26
 2472.5359116 1864.39779006 2472.5359116 1864.39779006 2438.5 1901.5 c 0,27,28
 2383 1962 2383 1962 2231 1962 c 0,29,30
 2024 1962 2024 1962 1833 1797 c 1,31,-1
 1419 0 l 1,32,-1
 1163 0 l 1,33,-1
 1553 1691 l 2,34,35
 1565.61135371 1746.09170306 1565.61135371 1746.09170306 1565.61135371 1788.68219523 c 0,36,37
 1565.61135371 1874.42358079 1565.61135371 1874.42358079 1514.5 1909.5 c 0,38,39
 1438 1962 1438 1962 1315 1962 c 0,40,41
 1096 1962 1096 1962 948 1797 c 1,42,-1
 533 0 l 1,43,-1
 277 0 l 1,44,-1
 793 2234 l 1,45,-1
 1049 2234 l 1,46,-1
 1012 2074 l 1,47,48
 1173 2234 1173 2234 1380 2234 c 2,49,-1
 1505 2234 l 2,50,51
 1616 2234 1616 2234 1692.5 2178 c 128,-1,52
 1769 2122 1769 2122 1816 2026 c 1,53,54
 2044 2234 2044 2234 2294 2234 c 2,55,-1
 2446 2234 l 2,56,57
 2585 2234 2585 2234 2688.5 2113 c 0,58,59
 2751.32844575 2039.5483871 2751.32844575 2039.5483871 2751.32844575 1904.55806194 c 0,60,61
 2751.32844575 1817.17302053 2751.32844575 1817.17302053 2725 1704 c 2,62,-1
 2464 571 l 2,0,1
EndSplineSet
EndChar

StartChar: n
Encoding: 110 110 81
Width: 1783
GlyphClass: 2
Flags: W
LayerCount: 2
Fore
SplineSet
1632 567 m 2,0,1
 1571 301 1571 301 1557 229 c 1,2,3
 1556 204 1556 204 1574 180 c 128,-1,4
 1592 156 1592 156 1614 156 c 128,-1,5
 1636 156 1636 156 1675.5 182.5 c 128,-1,6
 1715 209 1715 209 1741 248 c 1,7,-1
 1924 536 l 1,8,-1
 1959 486 l 1,9,10
 1804 190 1804 190 1689 65 c 128,-1,11
 1574 -60 1574 -60 1459 -60 c 0,12,13
 1323.625 -60 1323.625 -60 1323.625 177.258789062 c 0,14,15
 1323.625 339.59375 1323.625 339.59375 1387 613 c 2,16,-1
 1636 1692 l 2,17,18
 1652.40930233 1762.3255814 1652.40930233 1762.3255814 1652.40930233 1812.04413196 c 0,19,20
 1652.40930233 1889.58139535 1652.40930233 1889.58139535 1612.5 1917 c 0,21,22
 1547 1962 1547 1962 1424 1962 c 0,23,24
 1273 1962 1273 1962 1151.5 1879.5 c 128,-1,25
 1030 1797 1030 1797 917 1662 c 1,26,-1
 533 0 l 1,27,-1
 277 0 l 1,28,-1
 793 2234 l 1,29,-1
 1049 2234 l 1,30,-1
 986 1962 l 1,31,32
 1063 2058 1063 2058 1138.5 2114 c 128,-1,33
 1214 2170 1214 2170 1283.5 2202 c 128,-1,34
 1353 2234 1353 2234 1477 2234 c 2,35,-1
 1629 2234 l 2,36,37
 1781 2234 1781 2234 1870.5 2113 c 0,38,39
 1927.10954064 2036.4664311 1927.10954064 2036.4664311 1927.10954064 1917.52571514 c 0,40,41
 1927.10954064 1848.4204947 1927.10954064 1848.4204947 1908 1765 c 2,42,-1
 1632 567 l 2,0,1
EndSplineSet
EndChar

StartChar: o
Encoding: 111 111 82
Width: 1824
GlyphClass: 2
Flags: W
LayerCount: 2
Fore
SplineSet
734 1170 m 1,0,-1
 713 1080 l 2,1,2
 673.840677966 910.996610169 673.840677966 910.996610169 673.840677966 769.603860959 c 0,3,4
 673.840677966 636.583050847 673.840677966 636.583050847 708.5 528 c 0,5,6
 780 304 780 304 972 304 c 128,-1,7
 1164 304 1164 304 1328.5 513 c 128,-1,8
 1493 722 1493 722 1576 1080 c 1,9,-1
 1596 1170 l 1,10,11
 1638.89347079 1356.23367698 1638.89347079 1356.23367698 1638.89347079 1505.17509241 c 0,12,13
 1638.89347079 1630.54982818 1638.89347079 1630.54982818 1608.5 1729.5 c 0,14,15
 1542 1946 1542 1946 1351 1946 c 0,16,17
 1146 1946 1146 1946 983 1744.5 c 128,-1,18
 820 1543 820 1543 734 1170 c 1,0,-1
1513 2234 m 2,19,20
 1733 2234 1733 2234 1857.5 1953 c 0,21,22
 1921.95010395 1807.53430353 1921.95010395 1807.53430353 1921.95010395 1602.84418722 c 0,23,24
 1921.95010395 1412.12889813 1921.95010395 1412.12889813 1866 1170 c 2,25,-1
 1845 1079 l 2,26,27
 1736 608 1736 608 1477 304 c 128,-1,28
 1218 0 1218 0 901 0 c 0,29,30
 572 0 572 0 462 311.5 c 0,31,32
 405.720930233 470.872093023 405.720930233 470.872093023 405.720930233 668.068956193 c 0,33,34
 405.720930233 856.302325581 405.720930233 856.302325581 457 1079 c 2,35,-1
 478 1170 l 2,36,37
 590 1656 590 1656 839 1945 c 128,-1,38
 1088 2234 1088 2234 1336 2234 c 2,39,-1
 1513 2234 l 2,19,20
EndSplineSet
EndChar

StartChar: p
Encoding: 112 112 83
Width: 1787
GlyphClass: 2
Flags: W
LayerCount: 2
Fore
SplineSet
937 1749 m 1,0,-1
 631 426 l 1,1,2
 770 259 770 259 976 259 c 1,3,4
 1363 274 1363 274 1539 1034 c 1,5,-1
 1567 1156 l 2,6,7
 1627.66472303 1418.28571429 1627.66472303 1418.28571429 1627.66472303 1586.30234001 c 0,8,9
 1627.66472303 1700.78425656 1627.66472303 1700.78425656 1599.5 1771.5 c 0,10,11
 1530 1946 1530 1946 1365 1946 c 0,12,13
 1363.96984925 1946.00502513 1363.96984925 1946.00502513 1362.93924396 1946.00502513 c 0,14,15
 1158.87939698 1946.00502513 1158.87939698 1946.00502513 937 1749 c 1,0,-1
1008 2058 m 1,16,17
 1240 2234 1240 2234 1363 2234 c 2,18,-1
 1499 2234 l 2,19,20
 1720 2234 1720 2234 1840.5 1995.5 c 0,21,22
 1896.45472062 1884.75144509 1896.45472062 1884.75144509 1896.45472062 1696.05440654 c 0,23,24
 1896.45472062 1478.38728324 1896.45472062 1478.38728324 1822 1157 c 1,25,-1
 1794 1034 l 1,26,27
 1549 -28 1549 -28 908 -29 c 0,28,29
 690 -29 690 -29 556 99 c 1,30,-1
 400 -576 l 1,31,-1
 144 -576 l 1,32,-1
 793 2234 l 1,33,-1
 1049 2234 l 1,34,-1
 1008 2058 l 1,16,17
EndSplineSet
EndChar

StartChar: q
Encoding: 113 113 84
Width: 1787
GlyphClass: 2
Flags: W
LayerCount: 2
Fore
SplineSet
1322 396 m 1,0,-1
 1648 1810 l 1,1,2
 1489.15942029 1946.00724638 1489.15942029 1946.00724638 1258.37297837 1946.00724638 c 0,3,4
 1256.6884058 1946.00724638 1256.6884058 1946.00724638 1255 1946 c 1,5,6
 1244.68481375 1947.28939828 1244.68481375 1947.28939828 1234.17751086 1947.28939828 c 0,7,8
 1122.44985673 1947.28939828 1122.44985673 1947.28939828 989 1801.5 c 0,9,10
 843 1642 843 1642 734 1171 c 1,11,-1
 682 943 l 1,12,13
 633.337231969 732.333333333 633.337231969 732.333333333 633.337231969 586.550357375 c 0,14,15
 633.337231969 259 633.337231969 259 879 259 c 0,16,17
 1085 259 1085 259 1322 396 c 1,0,-1
1353 -576 m 1,18,-1
 1098 -576 l 1,19,-1
 1253 99 l 1,20,21
 1018 -29 1018 -29 813 -29 c 1,22,23
 803.775 -29.225 803.775 -29.225 794.73945 -29.225 c 0,24,25
 363.801662708 -29.225 363.801662708 -29.225 363.801662708 482.577597734 c 0,26,27
 363.801662708 675.447743468 363.801662708 675.447743468 425 941 c 2,28,-1
 478 1172 l 2,29,30
 613 1757 613 1757 823.5 1995.5 c 128,-1,31
 1034 2234 1034 2234 1255 2234 c 2,32,-1
 1418 2234 l 2,33,34
 1555 2234 1555 2234 1717 2106 c 1,35,-1
 1746 2234 l 1,36,-1
 2002 2234 l 1,37,-1
 1353 -576 l 1,18,-1
EndSplineSet
EndChar

StartChar: r
Encoding: 114 114 85
Width: 1248
GlyphClass: 2
Flags: W
LayerCount: 2
Fore
SplineSet
1615 1962 m 1,0,-1
 1424 1962 l 2,1,2
 1342 1962 1342 1962 1208.5 1917 c 128,-1,3
 1075 1872 1075 1872 930 1721 c 1,4,-1
 533 0 l 1,5,-1
 277 0 l 1,6,-1
 793 2234 l 1,7,-1
 1049 2234 l 1,8,-1
 997 2010 l 1,9,10
 1119 2122 1119 2122 1248 2178 c 128,-1,11
 1377 2234 1377 2234 1487 2234 c 2,12,-1
 1678 2234 l 1,13,-1
 1615 1962 l 1,0,-1
EndSplineSet
EndChar

StartChar: s
Encoding: 115 115 86
Width: 1661
GlyphClass: 2
Flags: W
LayerCount: 2
Fore
SplineSet
1241 1946 m 0,0,1
 1077 1946 1077 1946 976 1863 c 128,-1,2
 875 1780 875 1780 843 1645 c 1,3,4
 828.340101523 1580.95939086 828.340101523 1580.95939086 828.340101523 1527.03932078 c 0,5,6
 828.340101523 1441.1928934 828.340101523 1441.1928934 865.5 1381 c 0,7,8
 926 1283 926 1283 1071 1252 c 1,9,-1
 1175 1222 l 1,10,11
 1344 1177 1344 1177 1435.5 1094 c 128,-1,12
 1527 1011 1527 1011 1559.5 882.5 c 0,13,14
 1573.12903226 828.612903226 1573.12903226 828.612903226 1573.12903226 762.855359001 c 0,15,16
 1573.12903226 671.806451613 1573.12903226 671.806451613 1547 558 c 0,17,18
 1484 286 1484 286 1298 143 c 128,-1,19
 1112 0 1112 0 848 0 c 128,-1,20
 584 0 584 0 449 169 c 0,21,22
 352.058510638 290.356382979 352.058510638 290.356382979 352.058510638 506.591670439 c 0,23,24
 352.058510638 591.484042553 352.058510638 591.484042553 367 691 c 1,25,-1
 637 691 l 1,26,27
 632.333333333 644.555555556 632.333333333 644.555555556 632.333333333 603.641975309 c 0,28,29
 632.333333333 460.444444444 632.333333333 460.444444444 689.5 385 c 0,30,31
 763 288 763 288 914 288 c 0,32,33
 1078 288 1078 288 1170.5 363.5 c 128,-1,34
 1263 439 1263 439 1295 575 c 0,35,36
 1314.86206897 662.724137931 1314.86206897 662.724137931 1314.86206897 724.079667063 c 0,37,38
 1314.86206897 736.862068966 1314.86206897 736.862068966 1314 748.5 c 0,39,40
 1309 816 1309 816 1255.5 884 c 128,-1,41
 1202 952 1202 952 1095 967 c 1,42,-1
 991 997 l 1,43,44
 818 1027 818 1027 666.5 1178 c 0,45,46
 565.610989011 1278.55604396 565.610989011 1278.55604396 565.610989011 1459.37982852 c 0,47,48
 565.610989011 1550.09010989 565.610989011 1550.09010989 591 1661 c 0,49,50
 650 1918 650 1918 840 2076 c 128,-1,51
 1030 2234 1030 2234 1224 2234 c 2,52,-1
 1377 2234 l 2,53,54
 1586 2234 1586 2234 1712 2057.5 c 0,55,56
 1796.89839572 1938.57486631 1796.89839572 1938.57486631 1796.89839572 1753.1384226 c 0,57,58
 1796.89839572 1663.36363636 1796.89839572 1663.36363636 1777 1558 c 1,59,-1
 1507 1558 l 1,60,61
 1514.36150235 1605.06103286 1514.36150235 1605.06103286 1514.36150235 1646.97247019 c 0,62,63
 1514.36150235 1764.4741784 1514.36150235 1764.4741784 1456.5 1841.5 c 0,64,65
 1378 1946 1378 1946 1241 1946 c 0,0,1
EndSplineSet
EndChar

StartChar: t
Encoding: 116 116 87
Width: 1258
GlyphClass: 2
Flags: W
LayerCount: 2
Fore
SplineSet
621 0 m 2,0,1
 346.422018349 0 346.422018349 0 346.422018349 246.868277081 c 0,2,3
 346.422018349 311.082568807 346.422018349 311.082568807 365 392 c 2,4,-1
 728 1962 l 1,5,-1
 522 1962 l 1,6,-1
 585 2234 l 1,7,-1
 790 2234 l 1,8,-1
 991 3104 l 1,9,-1
 1247 3104 l 1,10,-1
 1047 2234 l 1,11,-1
 1553 2234 l 1,12,-1
 1490 1962 l 1,13,-1
 984 1962 l 1,14,-1
 625 408 l 2,15,16
 618.677419355 380.903225806 618.677419355 380.903225806 618.677419355 359.925078044 c 0,17,18
 618.677419355 288 618.677419355 288 693 288 c 2,19,-1
 1103 288 l 1,20,-1
 1037 0 l 1,21,-1
 621 0 l 2,0,1
EndSplineSet
EndChar

StartChar: u
Encoding: 117 117 88
Width: 1784
GlyphClass: 2
Flags: W
LayerCount: 2
Fore
SplineSet
1635 575 m 2,0,1
 1579 330 1579 330 1562 243 c 1,2,3
 1561 216 1561 216 1578.5 190.5 c 128,-1,4
 1596 165 1596 165 1618 165 c 0,5,6
 1642 165 1642 165 1683.5 195 c 128,-1,7
 1725 225 1725 225 1754 271 c 2,8,-1
 1932 555 l 1,9,-1
 1970 503 l 1,10,11
 1810 196 1810 196 1692.5 68.5 c 128,-1,12
 1575 -59 1575 -59 1455 -59 c 0,13,14
 1390 -59 1390 -59 1355 -12 c 128,-1,15
 1320 35 1320 35 1314 127 c 0,16,17
 1312.28571429 153.285714286 1312.28571429 153.285714286 1312.28571429 181.979591837 c 0,18,19
 1312.28571429 253.714285714 1312.28571429 253.714285714 1323 340.5 c 0,20,21
 1338 462 1338 462 1376 623 c 1,22,23
 1375.73004332 622.773911284 1375.73004332 622.773911284 1375.45991584 622.547542955 c 2,24,-1
 1748 2234 l 1,25,-1
 2018 2234 l 1,26,-1
 1635 575 l 2,0,1
1083.03529043 347.204217091 m 1,27,28
 1248.20171553 515.904464045 1248.20171553 515.904464045 1375.45991584 622.547542955 c 1,29,-1
 1361 560 l 1,30,31
 1218.03357908 414.899751963 1218.03357908 414.899751963 1083.03529043 347.204217091 c 1,27,28
1083.03529043 347.204217091 m 1,32,33
 936.862984017 197.90447795 936.862984017 197.90447795 761 0 c 1,34,35
 540 0 540 0 435 114 c 0,36,37
 369.375 185.25 369.375 185.25 369.375 319 c 0,38,39
 369.375 399.25 369.375 399.25 393 502 c 2,40,-1
 793 2234 l 1,41,-1
 1063 2234 l 1,42,-1
 669 529 l 2,43,44
 658.405405405 483.405405405 658.405405405 483.405405405 658.405405405 446.436815194 c 0,45,46
 658.405405405 288 658.405405405 288 853 288 c 0,47,48
 964.970369353 288 964.970369353 288 1083.03529043 347.204217091 c 1,32,33
EndSplineSet
EndChar

StartChar: v
Encoding: 118 118 89
Width: 1652
GlyphClass: 2
Flags: W
LayerCount: 2
Fore
SplineSet
2020 2234 m 1,0,-1
 1025 0 l 1,1,-1
 670 0 l 1,2,-1
 651 2234 l 1,3,-1
 651.996901851 1975.8024206 l 2,4,5
 651.791735537 2002.34214876 651.791735537 2002.34214876 638 2025 c 0,6,7
 624 2048 624 2048 603 2048 c 0,8,9
 576 2048 576 2048 531 2012 c 128,-1,10
 486 1976 486 1976 448 1918 c 1,11,-1
 287 1663 l 1,12,-1
 242 1717 l 1,13,14
 409 2034 409 2034 529 2163 c 128,-1,15
 649 2292 649 2292 777 2292 c 0,16,17
 863 2292 863 2292 907.5 2227 c 0,18,19
 946.836385903 2169.54235767 946.836385903 2169.54235767 951.400833471 2069.10816234 c 1,20,-1
 935 378 l 1,21,-1
 1701 2150 l 2,22,23
 1756 2277 1756 2277 1823.5 2344.5 c 128,-1,24
 1891 2412 1891 2412 1964 2412 c 0,25,26
 2079 2412 2079 2412 2129.5 2258.5 c 128,-1,27
 2180 2105 2180 2105 2183 1741 c 1,28,-1
 2123 1690 l 1,29,-1
 2074 1976 l 2,30,31
 2066 2018 2066 2018 2038 2046 c 128,-1,32
 2010 2074 2010 2074 1988 2074 c 0,33,34
 1968 2074 1968 2074 1948 2049.5 c 0,35,36
 1932.05797101 2029.97101449 1932.05797101 2029.97101449 1921.19890779 2006.94749002 c 2,37,-1
 2020 2234 l 1,0,-1
1921.19890779 2006.94749002 m 2,38,39
 1916 1995 l 2,40,41
 1918.43478261 2001.08695652 1918.43478261 2001.08695652 1921.19890779 2006.94749002 c 2,38,39
951.400833471 2069.10816234 m 2,42,-1
 953 2234 l 1,43,-1
 952 2042 l 2,44,45
 952 2055.92435262 952 2055.92435262 951.400833471 2069.10816234 c 2,42,-1
651.996901851 1975.8024206 m 2,46,-1
 652 1975 l 2,47,48
 652 1975.40165289 652 1975.40165289 651.996901851 1975.8024206 c 2,46,-1
EndSplineSet
EndChar

StartChar: w
Encoding: 119 119 90
Width: 2252
GlyphClass: 2
Flags: W
LayerCount: 2
Fore
SplineSet
2594.27179582 2059.13809104 m 1,0,-1
 2662 2234 l 1,1,-1
 2593.67869398 2058.76487066 l 1,2,3
 2585.93697819 2053.86398226 2585.93697819 2053.86398226 2577.5 2047 c 0,4,5
 2548 2023 2548 2023 2537 1997 c 1,6,7
 2532 1981 2532 1981 2512 1915 c 128,-1,8
 2492 1849 2492 1849 2472 1780 c 0,9,10
 2453.93499956 1717.67574849 2453.93499956 1717.67574849 2444.02860514 1674.93215143 c 1,11,-1
 1791 0 l 1,12,-1
 1394 0 l 1,13,-1
 1581 1877 l 1,14,-1
 888 0 l 1,15,-1
 491 0 l 1,16,-1
 610.296167324 1665.67273626 l 1,17,18
 623.502099383 1724.91167257 623.502099383 1724.91167257 671 1989 c 1,19,20
 672 2015 672 2015 654 2039 c 0,21,22
 646.361759866 2049.18432018 646.361759866 2049.18432018 638.183309433 2055.04695796 c 1,23,-1
 651 2234 l 1,24,-1
 637.919616651 2055.2347609 l 1,25,26
 626.945135769 2063 626.945135769 2063 615 2063 c 0,27,28
 590 2063 590 2063 548 2031.5 c 128,-1,29
 506 2000 506 2000 475 1951 c 2,30,-1
 302 1678 l 1,31,-1
 261 1731 l 1,32,33
 422 2039 422 2039 539.5 2166 c 128,-1,34
 657 2293 657 2293 778 2293 c 0,35,36
 864 2293 864 2293 890.5 2211.5 c 0,37,38
 908.278481013 2156.82278481 908.278481013 2156.82278481 908.278481013 2065.9134754 c 0,39,40
 908.278481013 2050.00748925 908.278481013 2050.00748925 907.734230139 2032.99233359 c 1,41,-1
 763 348 l 1,42,-1
 1486 2234 l 1,43,-1
 1855 2234 l 1,44,-1
 1666 348 l 1,45,-1
 2326 2084 l 2,46,47
 2387 2247 2387 2247 2454.5 2329.5 c 128,-1,48
 2522 2412 2522 2412 2603 2412 c 0,49,50
 2719 2412 2719 2412 2770 2258.5 c 128,-1,51
 2821 2105 2821 2105 2824 1739 c 1,52,-1
 2762 1687 l 1,53,-1
 2715 1969 l 1,54,55
 2706 2014 2706 2014 2678.5 2042.5 c 128,-1,56
 2651 2071 2651 2071 2628 2071 c 0,57,58
 2613.23644429 2071 2613.23644429 2071 2594.27179582 2059.13809104 c 1,0,-1
2594.27179582 2059.13809104 m 2,59,-1
 2442 1666 l 2,60,61
 2442.96749978 1670.35374901 2442.96749978 1670.35374901 2444.02860514 1674.93215143 c 2,62,-1
 2593.67869398 2058.76487066 l 2,63,64
 2593.97575675 2058.95292607 2593.97575675 2058.95292607 2594.27179582 2059.13809104 c 2,59,-1
904.323915377 1972.10292811 m 2,65,66
 906.811417345 2004.14202931 906.811417345 2004.14202931 907.734230139 2032.99233359 c 1,67,-1
 925 2234 l 1,68,-1
 904.323915377 1972.10292811 l 2,65,66
904.323915377 1972.10292811 m 2,69,70
 904.165144899 1970.05795951 904.165144899 1970.05795951 904 1968 c 2,71,-1
 904.323915377 1972.10292811 l 2,69,70
637.919616651 2055.2347609 m 2,72,73
 638.051533166 2055.14142042 638.051533166 2055.14142042 638.183309433 2055.04695796 c 2,74,-1
 610.296167324 1665.67273626 l 2,75,76
 609.600503852 1662.55214137 609.600503852 1662.55214137 609 1660 c 2,77,-1
 637.919616651 2055.2347609 l 2,72,73
EndSplineSet
EndChar

StartChar: x
Encoding: 120 120 91
Width: 1602
GlyphClass: 2
Flags: W
LayerCount: 2
Fore
SplineSet
483 70 m 1,0,1
 397 -59 397 -59 281 -59 c 0,2,3
 161 -59 161 -59 104.5 72 c 128,-1,4
 48 203 48 203 30 521 c 1,5,-1
 95 577 l 1,6,-1
 138 288 l 2,7,8
 145.499060362 237.599338495 145.499060362 237.599338495 174 203.5 c 0,9,10
 202 170 202 170 226 170 c 0,11,12
 237 170 237 170 251 182.5 c 128,-1,13
 265 195 265 195 273 206 c 128,-1,14
 281 217 281 217 295 239 c 2,15,-1
 926 1184 l 1,16,-1
 733.362910601 2145.53897615 l 1,17,18
 718.811573438 2190 718.811573438 2190 694 2190 c 0,19,20
 671 2190 671 2190 630 2159.5 c 128,-1,21
 589 2129 589 2129 559 2083 c 1,22,-1
 377 1784 l 1,23,-1
 340 1839 l 1,24,25
 499 2151 499 2151 615.5 2281.5 c 128,-1,26
 732 2412 732 2412 848 2412 c 0,27,28
 903 2412 903 2412 941.5 2382 c 128,-1,29
 980 2352 980 2352 992 2292 c 2,30,-1
 1150 1521 l 1,31,-1
 1658 2282 l 2,32,33
 1744 2411 1744 2411 1860 2411 c 0,34,35
 1980 2411 1980 2411 2037 2280 c 128,-1,36
 2094 2149 2094 2149 2111 1831 c 1,37,-1
 2046 1775 l 1,38,-1
 2003 2064 l 2,39,40
 1995.50291993 2114.38735208 1995.50291993 2114.38735208 1967.5 2148.5 c 0,41,42
 1940 2182 1940 2182 1916 2182 c 0,43,44
 1905 2182 1905 2182 1891 2169.5 c 0,45,46
 1887.62068966 2166.48275862 1887.62068966 2166.48275862 1869 2146 c 0,47,48
 1858.04968027 2133.95464829 1858.04968027 2133.95464829 1839 2113 c 1,49,-1
 1220 1184 l 1,50,-1
 1416 227 l 1,51,52
 1431 162 1431 162 1462 162 c 0,53,54
 1485 162 1485 162 1525.5 192.5 c 128,-1,55
 1566 223 1566 223 1596 269 c 1,56,-1
 1779 568 l 1,57,-1
 1815 513 l 1,58,59
 1656 201 1656 201 1539.5 70.5 c 128,-1,60
 1423 -60 1423 -60 1307 -60 c 0,61,62
 1215.14878965 -60 1215.14878965 -60 1213 -30 c 0,63,64
 1205.35183276 65.2319374849 1205.35183276 65.2319374849 1053 868.799804688 c 1,65,-1
 483 70 l 1,0,1
EndSplineSet
EndChar

StartChar: y
Encoding: 121 121 92
Width: 1652
GlyphClass: 2
Flags: W
LayerCount: 2
Fore
SplineSet
2047 2234 m 1,0,-1
 536 -576 l 1,1,-1
 262 -576 l 1,2,-1
 830 479 l 1,3,-1
 651 2234 l 1,4,-1
 672.484712191 2007.43394416 l 2,5,6
 669.728979273 2031.18615565 669.728979273 2031.18615565 658.5 2050.5 c 0,7,8
 646 2072 646 2072 627 2072 c 0,9,10
 604 2072 604 2072 563 2042.5 c 128,-1,11
 522 2013 522 2013 493 1969 c 1,12,-1
 314 1684 l 1,13,-1
 276 1735 l 1,14,15
 449 2103 449 2103 570.5 2257.5 c 128,-1,16
 692 2412 692 2412 809 2412 c 0,17,18
 872 2412 872 2412 906 2338 c 0,19,20
 935.641025641 2273.48717949 935.641025641 2273.48717949 935.641025641 2158.05259698 c 0,21,22
 935.641025641 2144.62720894 935.641025641 2144.62720894 935.240089646 2130.51303343 c 1,23,-1
 1057 900 l 1,24,-1
 1773 2234 l 1,25,-1
 1704 2103 l 2,26,27
 1753 2196 1753 2196 1813 2244.5 c 128,-1,28
 1873 2293 1873 2293 1939 2293 c 0,29,30
 2056 2293 2056 2293 2113 2166 c 128,-1,31
 2170 2039 2170 2039 2188 1734 c 1,32,-1
 2125 1682 l 1,33,-1
 2079 1966 l 2,34,35
 2071 2011 2071 2011 2043.5 2040.5 c 128,-1,36
 2016 2070 2016 2070 1992 2070 c 0,37,38
 1962 2070 1962 2070 1920 1996 c 1,39,-1
 2047 2234 l 1,0,-1
672.484712191 2007.43394416 m 2,40,41
 672.796636684 2004.74540477 672.796636684 2004.74540477 673 2002 c 2,42,-1
 672.484712191 2007.43394416 l 2,40,41
EndSplineSet
EndChar

StartChar: z
Encoding: 122 122 93
Width: 1618
GlyphClass: 2
Flags: W
LayerCount: 2
Fore
SplineSet
1452 0 m 1,0,-1
 138 0 l 1,1,-1
 205 288 l 1,2,-1
 1617 1962 l 1,3,-1
 591 1962 l 1,4,-1
 654 2234 l 1,5,-1
 1967 2234 l 1,6,-1
 1905 1962 l 1,7,-1
 519 288 l 1,8,-1
 1518 288 l 1,9,-1
 1452 0 l 1,0,-1
EndSplineSet
EndChar

StartChar: braceleft
Encoding: 123 123 94
Width: 889
GlyphClass: 2
Flags: W
LayerCount: 2
Fore
SplineSet
717 -432 m 1,0,1
 257.021613833 -432 257.021613833 -432 257.021613833 -60.8358843608 c 0,2,3
 257.021613833 23.9077809798 257.021613833 23.9077809798 281 128 c 2,4,-1
 488 1024 l 1,5,6
 523.890282132 1136.70219436 523.890282132 1136.70219436 523.890282132 1217.00187695 c 0,7,8
 523.890282132 1376.10031348 523.890282132 1376.10031348 383 1408 c 1,9,-1
 420 1568 l 1,10,11
 665 1600 665 1600 702 1952 c 1,12,-1
 891 2768 l 2,13,14
 1024 3344 1024 3344 1589 3344 c 1,15,-1
 1541 3136 l 1,16,17
 1243 3136 1243 3136 1159 2768 c 1,18,-1
 970 1952 l 2,19,20
 892 1616 892 1616 640 1488 c 1,21,22
 776.742424242 1384.36363636 776.742424242 1384.36363636 776.742424242 1189.56565657 c 0,23,24
 776.742424242 1113.6969697 776.742424242 1113.6969697 756 1024 c 2,25,-1
 549 128 l 2,26,27
 530.135770235 46.3289817232 530.135770235 46.3289817232 530.135770235 -17.2166147428 c 0,28,29
 530.135770235 -240 530.135770235 -240 762 -240 c 1,30,-1
 717 -432 l 1,0,1
EndSplineSet
EndChar

StartChar: bar
Encoding: 124 124 95
Width: 879
GlyphClass: 2
Flags: W
LayerCount: 2
Fore
SplineSet
492 -352 m 1,0,-1
 224 -352 l 1,1,-1
 1074 3328 l 1,2,-1
 1342 3328 l 1,3,-1
 492 -352 l 1,0,-1
EndSplineSet
EndChar

StartChar: braceright
Encoding: 125 125 96
Width: 889
GlyphClass: 2
Flags: W
LayerCount: 2
Fore
SplineSet
845 3344 m 1,0,1
 1319.47108604 3344 1319.47108604 3344 1319.47108604 2969.24145532 c 0,2,3
 1319.47108604 2885.8899859 1319.47108604 2885.8899859 1296 2784 c 2,4,-1
 1089 1888 l 1,5,6
 1044.43712575 1765.26946108 1044.43712575 1765.26946108 1044.43712575 1680.96439456 c 0,7,8
 1044.43712575 1534.46706587 1044.43712575 1534.46706587 1179 1504 c 1,9,-1
 1142 1344 l 1,10,11
 911 1312 911 1312 875 960 c 1,12,-1
 686 144 l 2,13,14
 553 -432 553 -432 -27 -432 c 1,15,-1
 21 -224 l 1,16,17
 319 -224 319 -224 404 144 c 2,18,-1
 592 960 l 2,19,20
 670 1296 670 1296 937 1424 c 1,21,22
 786.372759857 1529.80645161 786.372759857 1529.80645161 786.372759857 1730.63223751 c 0,23,24
 786.372759857 1803.12544803 786.372759857 1803.12544803 806 1888 c 2,25,-1
 1013 2784 l 2,26,27
 1031.86422977 2865.67101828 1031.86422977 2865.67101828 1031.86422977 2929.21661474 c 0,28,29
 1031.86422977 3152 1031.86422977 3152 800 3152 c 1,30,-1
 845 3344 l 1,0,1
EndSplineSet
EndChar

StartChar: asciitilde
Encoding: 126 126 97
Width: 1569
GlyphClass: 2
Flags: W
LayerCount: 2
Fore
SplineSet
2031 2880 m 1,0,1
 1837.60465116 2608.74418605 1837.60465116 2608.74418605 1618.58193618 2608.74418605 c 0,2,3
 1488.79069767 2608.74418605 1488.79069767 2608.74418605 1350 2704 c 1,4,5
 1260.42857143 2786.28571429 1260.42857143 2786.28571429 1171.2244898 2786.28571429 c 0,6,7
 1052.28571429 2786.28571429 1052.28571429 2786.28571429 934 2640 c 1,8,-1
 796 2816 l 1,9,10
 999.617021277 3122.38297872 999.617021277 3122.38297872 1211.38252603 3122.38297872 c 0,11,12
 1331.38297872 3122.38297872 1331.38297872 3122.38297872 1454 3024 c 1,13,14
 1541.9375 2926 1541.9375 2926 1638.296875 2926 c 0,15,16
 1762.1875 2926 1762.1875 2926 1900 3088 c 1,17,-1
 2031 2880 l 1,0,1
EndSplineSet
EndChar

StartChar: exclamdown
Encoding: 161 161 99
Width: 822
GlyphClass: 2
Flags: W
LayerCount: 2
Fore
SplineSet
1310 3248 m 1,0,-1
 1188 2720 l 1,1,-1
 905 2720 l 1,2,-1
 1027 3248 l 1,3,-1
 1310 3248 l 1,0,-1
177 -304 m 1,4,-1
 798 2192 l 1,5,-1
 1036 2192 l 1,6,-1
 505 -304 l 1,7,-1
 177 -304 l 1,4,-1
EndSplineSet
EndChar

StartChar: cent
Encoding: 162 162 100
Width: 1896
GlyphClass: 2
Flags: W
LayerCount: 2
Fore
SplineSet
1487 2400 m 2,0,1
 1294 2400 1294 2400 1110 2216 c 128,-1,2
 926 2032 926 2032 830 1616 c 0,3,4
 787.288343558 1430.67484663 787.288343558 1430.67484663 787.288343558 1295.66035605 c 0,5,6
 787.288343558 1244.17177914 787.288343558 1244.17177914 793.5 1200 c 0,7,8
 816 1040 816 1040 928 944 c 1,9,-1
 1592 2400 l 1,10,-1
 1487 2400 l 2,0,1
566 1632 m 0,11,12
 684 2144 684 2144 964.5 2424 c 128,-1,13
 1245 2704 1245 2704 1558 2704 c 0,14,15
 1647 2704 1647 2704 1718 2688 c 1,16,-1
 1847 2992 l 1,17,-1
 1974 2960 l 1,18,-1
 1829 2656 l 1,19,20
 2034 2576 2034 2576 2110.5 2392 c 0,21,22
 2162.06167401 2267.98237885 2162.06167401 2267.98237885 2162.06167401 2096.71881853 c 0,23,24
 2162.06167401 2013.88546256 2162.06167401 2013.88546256 2150 1920 c 1,25,-1
 1853 1920 l 1,26,27
 1855.81395349 1965.02325581 1855.81395349 1965.02325581 1855.81395349 2006.38182802 c 0,28,29
 1855.81395349 2126.69767442 1855.81395349 2126.69767442 1832 2216 c 0,30,31
 1800 2336 1800 2336 1703 2368 c 1,32,-1
 1029 864 l 1,33,34
 1100 848 1100 848 1159 848 c 0,35,36
 1323 848 1323 848 1473 952 c 128,-1,37
 1623 1056 1623 1056 1698 1248 c 1,38,-1
 1980 1248 l 1,39,40
 1884 960 1884 960 1637 760 c 128,-1,41
 1390 560 1390 560 1092 560 c 0,42,43
 988 560 988 560 903 576 c 1,44,-1
 684 80 l 1,45,-1
 557 112 l 1,46,-1
 798 640 l 1,47,48
 623 720 623 720 548.5 976 c 0,49,50
 515.165165165 1090.54654655 515.165165165 1090.54654655 515.165165165 1233.92322052 c 0,51,52
 515.165165165 1410.97897898 515.165165165 1410.97897898 566 1632 c 0,11,12
EndSplineSet
EndChar

StartChar: sterling
Encoding: 163 163 101
Width: 2538
GlyphClass: 2
Flags: W
LayerCount: 2
Fore
SplineSet
762 608 m 0,0,1
 583 608 583 608 543 432 c 0,2,3
 537.673151751 408.964980545 537.673151751 408.964980545 537.673151751 388.914654272 c 0,4,5
 537.673151751 269.696498054 537.673151751 269.696498054 726 256 c 1,6,7
 949 256 949 256 1124 432 c 1,8,9
 955 608 955 608 762 608 c 0,0,1
1827 320 m 0,10,11
 1976 320 1976 320 2098.5 432 c 128,-1,12
 2221 544 2221 544 2321 976 c 1,13,-1
 2611 880 l 1,14,15
 2485 336 2485 336 2275 168 c 128,-1,16
 2065 0 2065 0 1783 0 c 0,17,18
 1560 0 1560 0 1321 192 c 1,19,20
 1098 0 1098 0 667 0 c 0,21,22
 459 0 459 0 321 112 c 0,23,24
 218.612903226 195.096774194 218.612903226 195.096774194 218.612903226 331.038501561 c 0,25,26
 218.612903226 378.322580645 218.612903226 378.322580645 231 432 c 0,27,28
 294 704 294 704 464.5 800 c 128,-1,29
 635 896 635 896 829 896 c 0,30,31
 1067 896 1067 896 1302 688 c 1,32,33
 1332 752 1332 752 1346 816 c 0,34,35
 1388.58602151 999.741935484 1388.58602151 999.741935484 1388.58602151 1176.15724361 c 0,36,37
 1388.58602151 1368.43010753 1388.58602151 1368.43010753 1338 1552 c 1,38,-1
 742 1552 l 1,39,-1
 798 1792 l 1,40,-1
 1289 1792 l 1,41,42
 1264.41818182 1897.89090909 1264.41818182 1897.89090909 1264.41818182 2010.93289256 c 0,43,44
 1264.41818182 2137.01818182 1264.41818182 2137.01818182 1295 2272 c 1,45,46
 1384 2656 1384 2656 1607 2880 c 128,-1,47
 1830 3104 1830 3104 2172 3104 c 0,48,49
 2499 3104 2499 3104 2642.5 2920 c 0,50,51
 2746.23929471 2786.98236776 2746.23929471 2786.98236776 2746.23929471 2624.69823424 c 0,52,53
 2746.23929471 2562.49874055 2746.23929471 2562.49874055 2731 2496 c 1,54,-1
 2359 2496 l 1,55,56
 2367.83660131 2534.06535948 2367.83660131 2534.06535948 2367.83660131 2571.20662993 c 0,57,58
 2367.83660131 2643.34640523 2367.83660131 2643.34640523 2334.5 2712 c 0,59,60
 2284 2816 2284 2816 2105 2816 c 128,-1,61
 1926 2816 1926 2816 1807.5 2656 c 128,-1,62
 1689 2496 1689 2496 1638 2272 c 0,63,64
 1613.85714286 2168 1613.85714286 2168 1613.85714286 2057.10204082 c 0,65,66
 1613.85714286 1929.14285714 1613.85714286 1929.14285714 1646 1792 c 1,67,-1
 2390 1792 l 1,68,-1
 2334 1552 l 1,69,-1
 1724 1552 l 1,70,71
 1770.51572327 1335.64779874 1770.51572327 1335.64779874 1770.51572327 1142.69973498 c 0,72,73
 1770.51572327 978.918238994 1770.51572327 978.918238994 1737 832 c 0,74,75
 1696 656 1696 656 1562 464 c 1,76,77
 1708 320 1708 320 1827 320 c 0,10,11
EndSplineSet
EndChar

StartChar: currency
Encoding: 164 164 102
Width: 1940
GlyphClass: 2
Flags: W
LayerCount: 2
Fore
SplineSet
677 1472 m 1,0,1
 777 1904 777 1904 1000 2288 c 1,2,-1
 865 2800 l 1,3,-1
 1062 3072 l 1,4,-1
 1193 2544 l 1,5,6
 1416 2800 1416 2800 1624 2800 c 0,7,8
 1847 2800 1847 2800 1948 2528 c 1,9,-1
 2323 3056 l 1,10,-1
 2401 2816 l 1,11,-1
 2023 2272 l 1,12,13
 2032.19745223 2186.80254777 2032.19745223 2186.80254777 2032.19745223 2095.98117571 c 0,14,15
 2032.19745223 1811.56687898 2032.19745223 1811.56687898 1942 1472 c 1,16,17
 1839 1024 1839 1024 1638 672 c 1,18,-1
 1777 112 l 1,19,-1
 1602 -128 l 1,20,-1
 1460 416 l 1,21,22
 1237 160 1237 160 1014 160 c 0,23,24
 806 160 806 160 683 400 c 1,25,-1
 323 -128 l 1,26,-1
 248 128 l 1,27,-1
 623 656 l 1,28,29
 608.506849315 756.821917808 608.506849315 756.821917808 608.506849315 875.115030963 c 0,30,31
 608.506849315 1132.2739726 608.506849315 1132.2739726 677 1472 c 1,0,1
856 1472 m 0,32,33
 787.65374677 1177.21963824 787.65374677 1177.21963824 787.65374677 972.861192904 c 0,34,35
 787.65374677 833.364341085 787.65374677 833.364341085 819.5 736 c 0,36,37
 898 496 898 496 1092 496 c 0,38,39
 1330 496 1330 496 1513.5 808 c 128,-1,40
 1697 1120 1697 1120 1778 1472 c 0,41,42
 1838.42296073 1733.02719033 1838.42296073 1733.02719033 1838.42296073 1932.71868639 c 0,43,44
 1838.42296073 2063.51661631 1838.42296073 2063.51661631 1812.5 2168 c 0,45,46
 1747 2432 1747 2432 1539 2432 c 0,47,48
 1316 2432 1316 2432 1132 2152 c 128,-1,49
 948 1872 948 1872 856 1472 c 0,32,33
EndSplineSet
EndChar

StartChar: yen
Encoding: 165 165 103
Width: 2238
GlyphClass: 2
Flags: W
LayerCount: 2
Fore
SplineSet
1438 640 m 1,0,-1
 1290 0 l 1,1,-1
 963 0 l 1,2,-1
 1111 640 l 1,3,-1
 382 640 l 1,4,-1
 441 896 l 1,5,-1
 1170 896 l 1,6,-1
 1303 1472 l 1,7,-1
 574 1472 l 1,8,-1
 633 1728 l 1,9,-1
 1288 1728 l 1,10,-1
 906 3104 l 1,11,-1
 1263 3104 l 1,12,-1
 1577 1952 l 1,13,-1
 2424 3104 l 1,14,-1
 2766 3104 l 1,15,-1
 1764 1728 l 1,16,-1
 2404 1728 l 1,17,-1
 2344 1472 l 1,18,-1
 1630 1472 l 1,19,-1
 1497 896 l 1,20,-1
 2211 896 l 1,21,-1
 2152 640 l 1,22,-1
 1438 640 l 1,0,-1
EndSplineSet
EndChar

StartChar: brokenbar
Encoding: 166 166 104
Width: 847
GlyphClass: 2
Flags: W
LayerCount: 2
Fore
SplineSet
279 -304 m 1,0,-1
 1099 3248 l 1,1,-1
 1248 3248 l 1,2,-1
 428 -304 l 1,3,-1
 279 -304 l 1,0,-1
EndSplineSet
EndChar

StartChar: section
Encoding: 167 167 105
Width: 3782
GlyphClass: 2
Flags: W
LayerCount: 2
Fore
SplineSet
1952 1936 m 1,0,1
 1394 1776 1394 1776 1350 1584 c 0,2,3
 1346.86674392 1570.50289687 1346.86674392 1570.50289687 1346.86674392 1557.00579374 c 0,4,5
 1346.86674392 1346.50289687 1346.86674392 1346.50289687 2109 1136 c 1,6,-1
 2556 1008 l 1,7,8
 3032 1136 3032 1136 3083 1360 c 0,9,10
 3086.54390564 1375.26605505 3086.54390564 1375.26605505 3086.54390564 1390.4577949 c 0,11,12
 3086.54390564 1598.17562254 3086.54390564 1598.17562254 2424 1792 c 1,13,-1
 1952 1936 l 1,0,1
1106 464 m 1,14,15
 1102.65005537 433.789590255 1102.65005537 433.789590255 1102.65005537 405.419238689 c 0,16,17
 1102.65005537 -32 1102.65005537 -32 1899 -32 c 0,18,19
 2762 -32 2762 -32 2847 336 c 0,20,21
 2852.15644172 358.134969325 2852.15644172 358.134969325 2852.15644172 379.384169521 c 0,22,23
 2852.15644172 527.09202454 2852.15644172 527.09202454 2603 632 c 0,24,25
 2318 752 2318 752 1857 880 c 1,26,27
 1269 1040 1269 1040 1086.5 1184 c 0,28,29
 948.585921325 1292.81987578 948.585921325 1292.81987578 948.585921325 1465.59990398 c 0,30,31
 948.585921325 1521.45755694 948.585921325 1521.45755694 963 1584 c 0,32,33
 1018 1824 1018 1824 1609 2064 c 1,34,35
 1314.13882353 2237.25176471 1314.13882353 2237.25176471 1314.13882353 2477.10746574 c 0,36,37
 1314.13882353 2525.21411765 1314.13882353 2525.21411765 1326 2576 c 0,38,39
 1400 2896 1400 2896 1730.5 3072 c 128,-1,40
 2061 3248 2061 3248 2656 3248 c 0,41,42
 3752.05263158 3248 3752.05263158 3248 3752.05263158 2596.47645429 c 0,43,44
 3752.05263158 2540.63157895 3752.05263158 2540.63157895 3744 2480 c 1,45,-1
 3372 2480 l 1,46,47
 3381.46201232 2527.3100616 3381.46201232 2527.3100616 3381.46201232 2569.95711919 c 0,48,49
 3381.46201232 2960 3381.46201232 2960 2590 2960 c 0,50,51
 1816 2960 1816 2960 1727 2576 c 0,52,53
 1719.8 2544.8 1719.8 2544.8 1719.8 2515.76 c 0,54,55
 1719.8 2351.2 1719.8 2351.2 1951 2256 c 0,56,57
 2223 2144 2223 2144 2547 2064 c 1,58,59
 3087 1888 3087 1888 3312 1736 c 0,60,61
 3492.16014235 1614.29181495 3492.16014235 1614.29181495 3492.16014235 1436.16337179 c 0,62,63
 3492.16014235 1391.82918149 3492.16014235 1391.82918149 3481 1344 c 0,64,65
 3415 1056 3415 1056 2880 864 c 1,66,67
 3245.92941176 701.364705882 3245.92941176 701.364705882 3245.92941176 435.40816609 c 0,68,69
 3245.92941176 387.388235294 3245.92941176 387.388235294 3234 336 c 0,70,71
 3168 48 3168 48 2770 -128 c 128,-1,72
 2372 -304 2372 -304 1836 -304 c 0,73,74
 699.830203443 -304 699.830203443 -304 699.830203443 378.768704034 c 0,75,76
 699.830203443 420.131455399 699.830203443 420.131455399 704 464 c 1,77,-1
 1106 464 l 1,14,15
EndSplineSet
Substitution2: "'vert' Vertical Alternates (obs) in Hiragana & Katakana lookup 0 subtable" section.vert
EndChar

StartChar: dieresis
Encoding: 168 168 106
Width: 1893
GlyphClass: 2
Flags: W
LayerCount: 2
Fore
SplineSet
979 3104 m 1,0,-1
 1440 3104 l 1,1,-1
 1329 2624 l 1,2,-1
 868 2624 l 1,3,-1
 979 3104 l 1,0,-1
1901 3104 m 1,4,-1
 2363 3104 l 1,5,-1
 2252 2624 l 1,6,-1
 1790 2624 l 1,7,-1
 1901 3104 l 1,4,-1
EndSplineSet
Substitution2: "'vert' Vertical Alternates (obs) in Hiragana & Katakana lookup 0 subtable" dieresis.vert
EndChar

StartChar: copyright
Encoding: 169 169 107
Width: 2534
GlyphClass: 2
Flags: W
LayerCount: 2
Fore
SplineSet
1046 1456 m 0,0,1
 1105 1712 1105 1712 1314.5 1912 c 128,-1,2
 1524 2112 1524 2112 1748 2112 c 0,3,4
 1941 2112 1941 2112 2045.5 1984 c 0,5,6
 2140.04761905 1868.19047619 2140.04761905 1868.19047619 2140.04761905 1660.6984127 c 0,7,8
 2140.04761905 1638.85714286 2140.04761905 1638.85714286 2139 1616 c 1,9,-1
 1946 1616 l 1,10,11
 1946.75384615 1633.23076923 1946.75384615 1633.23076923 1946.75384615 1649.44094675 c 0,12,13
 1946.75384615 1783.75384615 1946.75384615 1783.75384615 1895 1848 c 0,14,15
 1837 1920 1837 1920 1703 1920 c 128,-1,16
 1569 1920 1569 1920 1430 1800 c 128,-1,17
 1291 1680 1291 1680 1239 1456 c 0,18,19
 1217.70866142 1364.28346457 1217.70866142 1364.28346457 1217.70866142 1288.66116932 c 0,20,21
 1217.70866142 1179.59055118 1217.70866142 1179.59055118 1262 1104 c 0,22,23
 1337 976 1337 976 1485 976 c 0,24,25
 1619 976 1619 976 1721.5 1064 c 128,-1,26
 1824 1152 1824 1152 1890 1312 c 1,27,-1
 2084 1312 l 1,28,29
 2017 1088 2017 1088 1842.5 944 c 128,-1,30
 1668 800 1668 800 1445 800 c 128,-1,31
 1222 800 1222 800 1102.5 992 c 0,32,33
 1024.25205479 1117.72054795 1024.25205479 1117.72054795 1024.25205479 1277.74156502 c 0,34,35
 1024.25205479 1362.10410959 1024.25205479 1362.10410959 1046 1456 c 0,0,1
558 1472 m 0,36,37
 691 2048 691 2048 1090.5 2392 c 128,-1,38
 1490 2736 1490 2736 1892 2736 c 0,39,40
 2353 2736 2353 2736 2563.5 2392 c 0,41,42
 2692.49636099 2181.19359534 2692.49636099 2181.19359534 2692.49636099 1883.26301092 c 0,43,44
 2692.49636099 1695.02183406 2692.49636099 1695.02183406 2641 1472 c 0,45,46
 2519 944 2519 944 2144 576 c 128,-1,47
 1769 208 1769 208 1308 208 c 128,-1,48
 847 208 847 208 641.5 576 c 0,49,50
 512.552671756 806.912977099 512.552671756 806.912977099 512.552671756 1100.8231222 c 0,51,52
 512.552671756 1275.30992366 512.552671756 1275.30992366 558 1472 c 0,36,37
722 1472 m 1,53,54
 688.241758242 1303.20879121 688.241758242 1303.20879121 688.241758242 1157.17039005 c 0,55,56
 688.241758242 887.912087912 688.241758242 887.912087912 803 696 c 0,57,58
 980 400 980 400 1352 400 c 128,-1,59
 1724 400 1724 400 2055 704 c 128,-1,60
 2386 1008 2386 1008 2493 1472 c 0,61,62
 2531.48403361 1638.88403361 2531.48403361 1638.88403361 2531.48403361 1785.07077184 c 0,63,64
 2531.48403361 2045.33781513 2531.48403361 2045.33781513 2409.5 2240 c 0,65,66
 2219 2544 2219 2544 1847 2544 c 128,-1,67
 1475 2544 1475 2544 1150 2232 c 128,-1,68
 825 1920 825 1920 722 1472 c 1,53,54
EndSplineSet
EndChar

StartChar: ordfeminine
Encoding: 170 170 108
Width: 1298
GlyphClass: 2
Flags: W
LayerCount: 2
Fore
SplineSet
1444 3248 m 2,0,1
 1541 3248 1541 3248 1579.5 3144 c 0,2,3
 1598.38216561 3092.99363057 1598.38216561 3092.99363057 1598.38216561 3024.66858696 c 0,4,5
 1598.38216561 2953.68152866 1598.38216561 2953.68152866 1578 2864 c 2,6,-1
 1460 2352 l 1,7,-1
 1432 2112 l 1,8,-1
 1306 2112 l 1,9,-1
 1321 2240 l 1,10,11
 1265 2176 1265 2176 1216 2144 c 128,-1,12
 1167 2112 1167 2112 1083 2112 c 0,13,14
 972 2112 972 2112 935 2192 c 0,15,16
 914.567164179 2236.17910448 914.567164179 2236.17910448 914.567164179 2294.9966585 c 0,17,18
 914.567164179 2342.68656716 914.567164179 2342.68656716 928 2400 c 0,19,20
 980 2624 980 2624 1128.5 2728 c 128,-1,21
 1277 2832 1277 2832 1447 2848 c 1,22,-1
 1465 2928 l 2,23,24
 1471.52173913 2955.82608696 1471.52173913 2955.82608696 1471.52173913 2983.65217391 c 0,25,26
 1471.52173913 3019.82608696 1471.52173913 3019.82608696 1460.5 3056 c 0,27,28
 1441 3120 1441 3120 1373 3120 c 0,29,30
 1304 3120 1304 3120 1257 3064 c 128,-1,31
 1210 3008 1210 3008 1191 2928 c 1,32,-1
 1078 2928 l 1,33,34
 1111 3072 1111 3072 1187 3160 c 128,-1,35
 1263 3248 1263 3248 1347 3248 c 2,36,-1
 1444 3248 l 2,0,1
1414 2704 m 1,37,38
 1273 2688 1273 2688 1183 2624 c 128,-1,39
 1093 2560 1093 2560 1059 2416 c 0,40,41
 1050 2376 1050 2376 1050 2346 c 128,-1,42
 1050 2316 1050 2316 1059 2296 c 0,43,44
 1077 2256 1077 2256 1118 2256 c 0,45,46
 1187 2256 1187 2256 1235.5 2288 c 128,-1,47
 1284 2320 1284 2320 1351 2432 c 1,48,-1
 1414 2704 l 1,37,38
EndSplineSet
EndChar

StartChar: guillemotleft
Encoding: 171 171 109
Width: 2535
GlyphClass: 2
Flags: W
LayerCount: 2
Fore
SplineSet
2335 2656 m 1,0,-1
 812 1472 l 1,1,-1
 1788 288 l 1,2,-1
 1621 144 l 1,3,-1
 544 1472 l 1,4,-1
 2230 2784 l 1,5,-1
 2335 2656 l 1,0,-1
2945 2656 m 1,6,-1
 1422 1472 l 1,7,-1
 2398 288 l 1,8,-1
 2231 144 l 1,9,-1
 1139 1472 l 1,10,-1
 2840 2784 l 1,11,-1
 2945 2656 l 1,6,-1
EndSplineSet
EndChar

StartChar: logicalnot
Encoding: 172 172 110
Width: 2429
GlyphClass: 2
Flags: W
LayerCount: 2
Fore
SplineSet
677 2048 m 1,0,-1
 2611 2048 l 1,1,-1
 2378 1040 l 1,2,-1
 2096 1040 l 1,3,-1
 2269 1792 l 1,4,-1
 618 1792 l 1,5,-1
 677 2048 l 1,0,-1
EndSplineSet
EndChar

StartChar: uni00AD
Encoding: 173 173 111
Width: 1914
GlyphClass: 2
Flags: W
LayerCount: 2
Fore
SplineSet
490 1616 m 1,0,-1
 2156 1616 l 1,1,-1
 2093 1344 l 1,2,-1
 427 1344 l 1,3,-1
 490 1616 l 1,0,-1
EndSplineSet
EndChar

StartChar: registered
Encoding: 174 174 112
Width: 2534
GlyphClass: 2
Flags: W
LayerCount: 2
Fore
SplineSet
558 1472 m 0,0,1
 691 2048 691 2048 1090.5 2392 c 128,-1,2
 1490 2736 1490 2736 1892 2736 c 0,3,4
 2353 2736 2353 2736 2563.5 2392 c 0,5,6
 2692.49636099 2181.19359534 2692.49636099 2181.19359534 2692.49636099 1883.26301092 c 0,7,8
 2692.49636099 1695.02183406 2692.49636099 1695.02183406 2641 1472 c 0,9,10
 2519 944 2519 944 2144 576 c 128,-1,11
 1769 208 1769 208 1308 208 c 128,-1,12
 847 208 847 208 641.5 576 c 0,13,14
 512.552671756 806.912977099 512.552671756 806.912977099 512.552671756 1100.8231222 c 0,15,16
 512.552671756 1275.30992366 512.552671756 1275.30992366 558 1472 c 0,0,1
722 1472 m 1,17,18
 688.241758242 1303.20879121 688.241758242 1303.20879121 688.241758242 1157.17039005 c 0,19,20
 688.241758242 887.912087912 688.241758242 887.912087912 803 696 c 0,21,22
 980 400 980 400 1352 400 c 128,-1,23
 1724 400 1724 400 2055 704 c 128,-1,24
 2386 1008 2386 1008 2493 1472 c 0,25,26
 2531.48403361 1638.88403361 2531.48403361 1638.88403361 2531.48403361 1785.07077184 c 0,27,28
 2531.48403361 2045.33781513 2531.48403361 2045.33781513 2409.5 2240 c 0,29,30
 2219 2544 2219 2544 1847 2544 c 128,-1,31
 1475 2544 1475 2544 1150 2232 c 128,-1,32
 825 1920 825 1920 722 1472 c 1,17,18
1954 752 m 1,33,-1
 1776 752 l 1,34,-1
 1600 1472 l 1,35,-1
 1362 1472 l 1,36,-1
 1196 752 l 1,37,-1
 1062 752 l 1,38,-1
 1398 2208 l 1,39,-1
 1859 2208 l 2,40,41
 2038 2208 2038 2208 2108.5 2096 c 0,42,43
 2156.52173913 2019.71014493 2156.52173913 2019.71014493 2156.52173913 1928.57298887 c 0,44,45
 2156.52173913 1885.91304348 2156.52173913 1885.91304348 2146 1840 c 0,46,47
 2113 1696 2113 1696 2022 1592 c 128,-1,48
 1931 1488 1931 1488 1749 1472 c 1,49,-1
 1954 752 l 1,33,-1
1391 1600 m 1,50,-1
 1719 1600 l 2,51,52
 1808 1600 1808 1600 1880.5 1656 c 128,-1,53
 1953 1712 1953 1712 1982 1840 c 0,54,55
 1991.32413793 1880.16551724 1991.32413793 1880.16551724 1991.32413793 1913.12894174 c 0,56,57
 1991.32413793 1972.08275862 1991.32413793 1972.08275862 1961.5 2008 c 0,58,59
 1915 2064 1915 2064 1826 2064 c 2,60,-1
 1498 2064 l 1,61,-1
 1391 1600 l 1,50,-1
EndSplineSet
EndChar

StartChar: macron
Encoding: 175 175 113
Width: 2544
GlyphClass: 2
Flags: W
LayerCount: 2
Fore
SplineSet
813 3520 m 1,0,-1
 3357 3520 l 1,1,-1
 3294 3248 l 1,2,-1
 750 3248 l 1,3,-1
 813 3520 l 1,0,-1
EndSplineSet
EndChar

StartChar: degree
Encoding: 176 176 114
Width: 3754
GlyphClass: 2
Flags: W
LayerCount: 2
Fore
SplineSet
1608 3312 m 0,0,1
 1861 3312 1861 3312 2010.5 3120 c 0,2,3
 2110.50111857 2991.5704698 2110.50111857 2991.5704698 2110.50111857 2805.86960547 c 0,4,5
 2110.50111857 2713.950783 2110.50111857 2713.950783 2086 2608 c 0,6,7
 2008 2272 2008 2272 1779.5 2088 c 128,-1,8
 1551 1904 1551 1904 1283 1904 c 128,-1,9
 1015 1904 1015 1904 871.5 2088 c 0,10,11
 778.532731377 2207.20541761 778.532731377 2207.20541761 778.532731377 2390.20778705 c 0,12,13
 778.532731377 2489.67945824 778.532731377 2489.67945824 806 2608 c 0,14,15
 880 2928 880 2928 1095 3120 c 128,-1,16
 1310 3312 1310 3312 1608 3312 c 0,0,1
1542 3024 m 0,17,18
 1363 3024 1363 3024 1240.5 2912 c 128,-1,19
 1118 2800 1118 2800 1074 2608 c 0,20,21
 1058.38709677 2539.87096774 1058.38709677 2539.87096774 1058.38709677 2482.82206035 c 0,22,23
 1058.38709677 2379.09677419 1058.38709677 2379.09677419 1110 2312 c 0,24,25
 1190 2208 1190 2208 1353 2208 c 0,26,27
 1502 2208 1502 2208 1630.5 2312 c 128,-1,28
 1759 2416 1759 2416 1803 2608 c 0,29,30
 1816.16346154 2664.92307692 1816.16346154 2664.92307692 1816.16346154 2717.79585799 c 0,31,32
 1816.16346154 2813.53846154 1816.16346154 2813.53846154 1773 2896 c 0,33,34
 1706 3024 1706 3024 1542 3024 c 0,17,18
EndSplineSet
Substitution2: "'vert' Vertical Alternates (obs) in Hiragana & Katakana lookup 0 subtable" degree.vert
EndChar

StartChar: plusminus
Encoding: 177 177 115
Width: 3783
GlyphClass: 2
Flags: W
LayerCount: 2
Fore
SplineSet
2508 3248 m 1,0,-1
 2776 3248 l 1,1,-1
 2499 2048 l 1,2,-1
 3674 2048 l 1,3,-1
 3600 1728 l 1,4,-1
 2425 1728 l 1,5,-1
 2144 512 l 1,6,-1
 1876 512 l 1,7,-1
 2157 1728 l 1,8,-1
 981 1728 l 1,9,-1
 1055 2048 l 1,10,-1
 2231 2048 l 1,11,-1
 2508 3248 l 1,0,-1
579 -16 m 1,12,-1
 3198 -16 l 1,13,-1
 3131 -304 l 1,14,-1
 512 -304 l 1,15,-1
 579 -16 l 1,12,-1
EndSplineSet
Substitution2: "'vert' Vertical Alternates (obs) in Hiragana & Katakana lookup 0 subtable" plusminus.vert
EndChar

StartChar: uni00B2
Encoding: 178 178 116
Width: 896
GlyphClass: 2
Flags: W
LayerCount: 2
Fore
SplineSet
1042 3424 m 0,0,1
 1131 3424 1131 3424 1168.5 3328 c 0,2,3
 1186.64516129 3281.5483871 1186.64516129 3281.5483871 1186.64516129 3216.36628512 c 0,4,5
 1186.64516129 3146.83870968 1186.64516129 3146.83870968 1166 3056 c 0,6,7
 1118 2848 1118 2848 980 2640 c 1,8,-1
 676 2224 l 1,9,-1
 973 2224 l 1,10,-1
 937 2064 l 1,11,-1
 535 2064 l 1,12,-1
 575 2240 l 1,13,-1
 902 2688 l 1,14,15
 1050 2880 1050 2880 1091 3056 c 0,16,17
 1106.51724138 3122.20689655 1106.51724138 3122.20689655 1106.51724138 3164.87039239 c 0,18,19
 1106.51724138 3204.68965517 1106.51724138 3204.68965517 1093 3224 c 0,20,21
 1065 3264 1065 3264 1005 3264 c 0,22,23
 960 3264 960 3264 914 3224 c 128,-1,24
 868 3184 868 3184 834 3040 c 1,25,-1
 760 3040 l 1,26,27
 801 3216 801 3216 884.5 3320 c 128,-1,28
 968 3424 968 3424 1042 3424 c 0,0,1
EndSplineSet
EndChar

StartChar: uni00B3
Encoding: 179 179 117
Width: 896
GlyphClass: 2
Flags: W
LayerCount: 2
Fore
SplineSet
939 2912 m 1,0,1
 1066.56506849 2912 1066.56506849 2912 1066.56506849 2723.2735973 c 0,2,3
 1066.56506849 2626.46575342 1066.56506849 2626.46575342 1033 2480 c 0,4,5
 937 2064 937 2064 698 2064 c 2,6,-1
 535 2064 l 1,7,-1
 568 2208 l 1,8,-1
 732 2208 l 2,9,10
 866 2208 866 2208 928 2480 c 0,11,12
 952.137931034 2584.82758621 952.137931034 2584.82758621 952.137931034 2653.50772889 c 0,13,14
 952.137931034 2784 952.137931034 2784 865 2784 c 2,15,-1
 760 2784 l 1,16,-1
 786 2896 l 1,17,-1
 1083 3280 l 1,18,-1
 815 3280 l 1,19,-1
 849 3424 l 1,20,-1
 1250 3424 l 1,21,-1
 1217 3280 l 1,22,-1
 939 2912 l 1,0,1
EndSplineSet
EndChar

StartChar: acute
Encoding: 180 180 118
Width: 1879
GlyphClass: 2
Flags: W
LayerCount: 2
Fore
SplineSet
1625 3104 m 1,0,-1
 2087 3104 l 1,1,-1
 1526 2608 l 1,2,-1
 1228 2608 l 1,3,-1
 1625 3104 l 1,0,-1
EndSplineSet
Substitution2: "'vert' Vertical Alternates (obs) in Hiragana & Katakana lookup 0 subtable" acute.vert
EndChar

StartChar: uni00B5
Encoding: 181 181 119
Width: 1799
GlyphClass: 2
Flags: W
LayerCount: 2
Fore
SplineSet
1651 566 m 2,0,1
 1606 369 1606 369 1587 252 c 1,2,3
 1587 224 1587 224 1604.5 199 c 128,-1,4
 1622 174 1622 174 1644 174 c 0,5,6
 1673 174 1673 174 1721.5 215.5 c 128,-1,7
 1770 257 1770 257 1813 326 c 2,8,-1
 1961 565 l 1,9,-1
 2013 509 l 1,10,11
 1837 179 1837 179 1711.5 47.5 c 128,-1,12
 1586 -84 1586 -84 1449 -84 c 0,13,14
 1393 -84 1393 -84 1355 -60 c 128,-1,15
 1317 -36 1317 -36 1298 11 c 128,-1,16
 1279 58 1279 58 1272 117 c 0,17,18
 1268.73333333 144.533333333 1268.73333333 144.533333333 1268.73333333 176.64 c 0,19,20
 1268.73333333 213.333333333 1268.73333333 213.333333333 1273 256 c 0,21,22
 1281 336 1281 336 1294.5 416.5 c 128,-1,23
 1308 497 1308 497 1331 595 c 1,24,25
 1330.73295325 594.74434387 1330.73295325 594.74434387 1330.46580399 594.488336945 c 2,26,-1
 1610 1802 l 1,27,-1
 1936 1802 l 1,28,-1
 1651 566 l 2,0,1
1090.66779561 321.057211519 m 1,29,30
 974.983114531 170.992332247 974.983114531 170.992332247 845 -28 c 1,31,32
 681 -28 681 -28 639 148 c 1,33,-1
 472 -576 l 1,34,-1
 130 -576 l 1,35,-1
 679 1802 l 1,36,-1
 1021 1802 l 1,37,-1
 720 502 l 1,38,39
 774 260 774 260 911 260 c 0,40,41
 995.334259131 260 995.334259131 260 1090.66779561 321.057211519 c 1,29,30
1090.66779561 321.057211519 m 1,42,43
 1219.42273817 488.076687871 1219.42273817 488.076687871 1330.46580399 594.488336945 c 1,44,-1
 1316 532 l 1,45,46
 1196.54987003 388.870328377 1196.54987003 388.870328377 1090.66779561 321.057211519 c 1,42,43
EndSplineSet
EndChar

StartChar: paragraph
Encoding: 182 182 120
Width: 1881
GlyphClass: 2
Flags: W
LayerCount: 2
Fore
SplineSet
315 -304 m 1,0,-1
 829 1920 l 1,1,2
 818.384615385 1918.76923077 818.384615385 1918.76923077 808.319526627 1918.76923077 c 0,3,4
 687.538461538 1918.76923077 687.538461538 1918.76923077 646 2096 c 0,5,6
 628.391304348 2171.13043478 628.391304348 2171.13043478 628.391304348 2263.41020794 c 0,7,8
 628.391304348 2406.95652174 628.391304348 2406.95652174 671 2592 c 0,9,10
 737 2880 737 2880 869 3064 c 128,-1,11
 1001 3248 1001 3248 1150 3248 c 2,12,-1
 1656 3248 l 1,13,-1
 1597 2992 l 1,14,-1
 1552 2992 l 1,15,-1
 791 -304 l 1,16,-1
 642 -304 l 1,17,-1
 1403 2992 l 1,18,-1
 1225 2992 l 1,19,-1
 464 -304 l 1,20,-1
 315 -304 l 1,0,-1
EndSplineSet
Substitution2: "'vert' Vertical Alternates (obs) in Hiragana & Katakana lookup 0 subtable" paragraph.vert
EndChar

StartChar: periodcentered
Encoding: 183 183 121
Width: 760
GlyphClass: 2
Flags: W
LayerCount: 2
Fore
SplineSet
587 1280 m 1,0,-1
 701 1776 l 1,1,-1
 880 1776 l 1,2,-1
 765 1280 l 1,3,-1
 587 1280 l 1,0,-1
EndSplineSet
EndChar

StartChar: cedilla
Encoding: 184 184 122
Width: 762
GlyphClass: 2
Flags: W
LayerCount: 2
Fore
SplineSet
299 288 m 0,0,1
 329 416 329 416 392 528 c 128,-1,2
 455 640 455 640 515 640 c 128,-1,3
 575 640 575 640 588 536 c 0,4,5
 591.595744681 507.234042553 591.595744681 507.234042553 591.595744681 475.407876867 c 0,6,7
 591.595744681 392.170212766 591.595744681 392.170212766 567 288 c 1,8,9
 493 -96 493 -96 376.5 -312 c 128,-1,10
 260 -528 260 -528 115 -576 c 1,11,-1
 141 -400 l 1,12,13
 219 -384 219 -384 263.5 -320 c 128,-1,14
 308 -256 308 -256 345 -160 c 128,-1,15
 382 -64 382 -64 352 -64 c 0,16,17
 292 -64 292 -64 277 32 c 0,18,19
 272.673076923 59.6923076923 272.673076923 59.6923076923 272.673076923 92.7100591716 c 0,20,21
 272.673076923 174.153846154 272.673076923 174.153846154 299 288 c 0,0,1
EndSplineSet
EndChar

StartChar: uni00B9
Encoding: 185 185 123
Width: 893
GlyphClass: 2
Flags: W
LayerCount: 2
Fore
SplineSet
773 2064 m 1,0,-1
 639 2064 l 1,1,-1
 864 3040 l 1,2,-1
 760 3040 l 1,3,-1
 804 3232 l 1,4,5
 923 3232 923 3232 998 3424 c 1,6,-1
 1087 3424 l 1,7,-1
 773 2064 l 1,0,-1
EndSplineSet
EndChar

StartChar: ordmasculine
Encoding: 186 186 124
Width: 867
GlyphClass: 2
Flags: W
LayerCount: 2
Fore
SplineSet
691 2752 m 0,0,1
 750 3008 750 3008 853.5 3216 c 128,-1,2
 957 3424 957 3424 1054 3424 c 128,-1,3
 1151 3424 1151 3424 1162.5 3232 c 0,4,5
 1164.20645161 3203.50967742 1164.20645161 3203.50967742 1164.20645161 3172.90555671 c 0,6,7
 1164.20645161 2997.26451613 1164.20645161 2997.26451613 1108 2752 c 0,8,9
 1038 2448 1038 2448 938 2256 c 128,-1,10
 838 2064 838 2064 740 2064 c 0,11,12
 643 2064 643 2064 634 2264 c 0,13,14
 632.92 2288 632.92 2288 632.92 2313.2672 c 0,15,16
 632.92 2498.56 632.92 2498.56 691 2752 c 0,0,1
776 2752 m 0,17,18
 726.81300813 2537.36585366 726.81300813 2537.36585366 726.81300813 2418.7063256 c 0,19,20
 726.81300813 2404.68292683 726.81300813 2404.68292683 727.5 2392 c 0,21,22
 734 2272 734 2272 789 2272 c 128,-1,23
 844 2272 844 2272 905.5 2392 c 128,-1,24
 967 2512 967 2512 1023 2752 c 0,25,26
 1070.63779528 2959.87401575 1070.63779528 2959.87401575 1070.63779528 3071.72223944 c 0,27,28
 1070.63779528 3089.00787402 1070.63779528 3089.00787402 1069.5 3104 c 0,29,30
 1061 3216 1061 3216 1006 3216 c 128,-1,31
 951 3216 951 3216 891 3104 c 128,-1,32
 831 2992 831 2992 776 2752 c 0,17,18
EndSplineSet
EndChar

StartChar: guillemotright
Encoding: 187 187 125
Width: 2535
GlyphClass: 2
Flags: W
LayerCount: 2
Fore
SplineSet
895 288 m 1,0,-1
 2418 1472 l 1,1,-1
 1441 2656 l 1,2,-1
 1623 2800 l 1,3,-1
 2686 1472 l 1,4,-1
 1014 160 l 1,5,-1
 895 288 l 1,0,-1
299 288 m 1,6,-1
 1808 1472 l 1,7,-1
 846 2656 l 1,8,-1
 1013 2800 l 1,9,-1
 2091 1472 l 1,10,-1
 404 160 l 1,11,-1
 299 288 l 1,6,-1
EndSplineSet
EndChar

StartChar: onequarter
Encoding: 188 188 126
Width: 1944
GlyphClass: 2
Flags: W
LayerCount: 2
Fore
SplineSet
1619 0 m 1,0,-1
 1426 0 l 1,1,-1
 1503 336 l 1,2,-1
 953 336 l 1,3,-1
 971 416 l 1,4,-1
 1795 1472 l 1,5,-1
 1959 1472 l 1,6,-1
 1737 512 l 1,7,-1
 1960 512 l 1,8,-1
 1920 336 l 1,9,-1
 1697 336 l 1,10,-1
 1619 0 l 1,0,-1
1684 1120 m 1,11,-1
 1202 512 l 1,12,-1
 1544 512 l 1,13,-1
 1684 1120 l 1,11,-1
2217 3104 m 1,14,-1
 2328 3072 l 1,15,-1
 432 16 l 1,16,-1
 324 64 l 1,17,-1
 2217 3104 l 1,14,-1
880 1632 m 1,18,-1
 701 1632 l 1,19,-1
 975 2816 l 1,20,-1
 781 2816 l 1,21,-1
 814 2960 l 1,22,23
 1022 2960 1022 2960 1086 3104 c 1,24,-1
 1220 3104 l 1,25,-1
 880 1632 l 1,18,-1
EndSplineSet
EndChar

StartChar: onehalf
Encoding: 189 189 127
Width: 1943
GlyphClass: 2
Flags: W
LayerCount: 2
Fore
SplineSet
1736 1472 m 0,0,1
 1915 1472 1915 1472 2008 1360 c 0,2,3
 2070.67391304 1284.52173913 2070.67391304 1284.52173913 2070.67391304 1172.71077505 c 0,4,5
 2070.67391304 1118.60869565 2070.67391304 1118.60869565 2056 1056 c 0,6,7
 2008 848 2008 848 1763 624 c 1,8,-1
 1243 176 l 1,9,-1
 1853 176 l 1,10,-1
 1812 0 l 1,11,-1
 1009 0 l 1,12,-1
 1053 192 l 1,13,-1
 1611 672 l 1,14,15
 1838 880 1838 880 1878 1056 c 0,16,17
 1890.23595506 1109.39325843 1890.23595506 1109.39325843 1890.23595506 1149.58818331 c 0,18,19
 1890.23595506 1217.79775281 1890.23595506 1217.79775281 1855 1248 c 0,20,21
 1799 1296 1799 1296 1695 1296 c 0,22,23
 1606 1296 1606 1296 1528 1248 c 128,-1,24
 1450 1200 1450 1200 1413 1040 c 1,25,-1
 1234 1040 l 1,26,27
 1278 1232 1278 1232 1425 1352 c 128,-1,28
 1572 1472 1572 1472 1736 1472 c 0,0,1
880 1632 m 1,29,-1
 701 1632 l 1,30,-1
 978 2832 l 1,31,-1
 785 2832 l 1,32,-1
 814 2960 l 1,33,34
 1026 2976 1026 2976 1086 3104 c 1,35,-1
 1220 3104 l 1,36,-1
 880 1632 l 1,29,-1
2217 3104 m 1,37,-1
 2328 3072 l 1,38,-1
 432 16 l 1,39,-1
 324 64 l 1,40,-1
 2217 3104 l 1,37,-1
EndSplineSet
EndChar

StartChar: threequarters
Encoding: 190 190 128
Width: 1945
GlyphClass: 2
Flags: W
LayerCount: 2
Fore
SplineSet
1679 0 m 1,0,-1
 1500 0 l 1,1,-1
 1578 336 l 1,2,-1
 1012 336 l 1,3,-1
 1060 544 l 1,4,-1
 1825 1472 l 1,5,-1
 2018 1472 l 1,6,-1
 1797 512 l 1,7,-1
 2035 512 l 1,8,-1
 1994 336 l 1,9,-1
 1756 336 l 1,10,-1
 1679 0 l 1,0,-1
1762 1136 m 1,11,-1
 1246 512 l 1,12,-1
 1618 512 l 1,13,-1
 1762 1136 l 1,11,-1
2217 3104 m 1,14,-1
 2328 3072 l 1,15,-1
 432 16 l 1,16,-1
 324 64 l 1,17,-1
 2217 3104 l 1,14,-1
1105 2544 m 1,18,19
 1410.65102041 2544 1410.65102041 2544 1410.65102041 2264.54763848 c 0,20,21
 1410.65102041 2190.17142857 1410.65102041 2190.17142857 1389 2096 c 0,22,23
 1282 1632 1282 1632 805 1632 c 2,24,-1
 508 1632 l 1,25,-1
 545 1792 l 1,26,-1
 842 1792 l 2,27,28
 1096 1792 1096 1792 1166 2096 c 0,29,30
 1182.69512195 2168.19512195 1182.69512195 2168.19512195 1182.69512195 2224.10232005 c 0,31,32
 1182.69512195 2416 1182.69512195 2416 986 2416 c 2,33,-1
 793 2416 l 1,34,-1
 823 2544 l 1,35,-1
 1302 2944 l 1,36,-1
 811 2944 l 1,37,-1
 848 3104 l 1,38,-1
 1621 3104 l 1,39,-1
 1584 2944 l 1,40,-1
 1105 2544 l 1,18,19
EndSplineSet
EndChar

StartChar: questiondown
Encoding: 191 191 129
Width: 1720
GlyphClass: 2
Flags: W
LayerCount: 2
Fore
SplineSet
1786 3168 m 1,0,-1
 1682 2720 l 1,1,-1
 1325 2720 l 1,2,-1
 1429 3168 l 1,3,-1
 1786 3168 l 1,0,-1
794 -160 m 1,4,5
 771.172413793 -161.103448276 771.172413793 -161.103448276 749.200951249 -161.103448276 c 0,6,7
 452.586206897 -161.103448276 452.586206897 -161.103448276 312 40 c 0,8,9
 208.828054299 187.583710407 208.828054299 187.583710407 208.828054299 376.249462542 c 0,10,11
 208.828054299 463.71040724 208.828054299 463.71040724 231 560 c 0,12,13
 309 896 309 896 483.5 1072 c 128,-1,14
 658 1248 658 1248 851 1376 c 1,15,16
 1048 1520 1048 1520 1107.5 1680 c 128,-1,17
 1167 1840 1167 1840 1200 1984 c 2,18,-1
 1255 2224 l 1,19,-1
 1538 2224 l 1,20,-1
 1483 1984 l 2,21,22
 1446 1824 1446 1824 1373.5 1640 c 128,-1,23
 1301 1456 1301 1456 1060 1248 c 1,24,25
 830 1088 830 1088 694 952 c 128,-1,26
 558 816 558 816 503 576 c 0,27,28
 487.387096774 507.870967742 487.387096774 507.870967742 487.387096774 446.792924037 c 0,29,30
 487.387096774 335.741935484 487.387096774 335.741935484 539 248 c 0,31,32
 619 112 619 112 857 112 c 0,33,34
 1110 112 1110 112 1266 272 c 128,-1,35
 1422 432 1422 432 1477 672 c 2,36,-1
 1518 848 l 1,37,-1
 1771 848 l 1,38,-1
 1730 672 l 2,39,40
 1645 304 1645 304 1383 72 c 128,-1,41
 1121 -160 1121 -160 794 -160 c 1,4,5
EndSplineSet
EndChar

StartChar: Agrave
Encoding: 192 192 130
Width: 2389
GlyphClass: 2
Flags: W
LayerCount: 2
Fore
SplineSet
1149 960 m 1,0,-1
 1611 960 l 1,1,-1
 1591 1904 l 1,2,-1
 1149 960 l 1,0,-1
1880 0 m 1,3,-1
 1627 0 l 1,4,-1
 1604 672 l 1,5,-1
 1009 672 l 1,6,-1
 690 0 l 1,7,-1
 437 0 l 1,8,-1
 1560 2352 l 1,9,-1
 1843 2352 l 1,10,-1
 1880 0 l 1,3,-1
1592 3520 m 1,11,-1
 1993 3520 l 1,12,-1
 2151 2720 l 1,13,-1
 1928 2720 l 1,14,-1
 1592 3520 l 1,11,-1
EndSplineSet
EndChar

StartChar: Aacute
Encoding: 193 193 131
Width: 2389
GlyphClass: 2
Flags: W
LayerCount: 2
Fore
SplineSet
1149 960 m 1,0,-1
 1611 960 l 1,1,-1
 1591 1904 l 1,2,-1
 1149 960 l 1,0,-1
1880 0 m 1,3,-1
 1627 0 l 1,4,-1
 1604 672 l 1,5,-1
 1009 672 l 1,6,-1
 690 0 l 1,7,-1
 437 0 l 1,8,-1
 1560 2352 l 1,9,-1
 1843 2352 l 1,10,-1
 1880 0 l 1,3,-1
2351 3520 m 1,11,-1
 1660 2720 l 1,12,-1
 1422 2720 l 1,13,-1
 1949 3520 l 1,14,-1
 2351 3520 l 1,11,-1
EndSplineSet
EndChar

StartChar: Acircumflex
Encoding: 194 194 132
Width: 2389
GlyphClass: 2
Flags: W
LayerCount: 2
Fore
SplineSet
1208 960 m 1,0,-1
 1669 960 l 1,1,-1
 1664 1904 l 1,2,-1
 1208 960 l 1,0,-1
1938 0 m 1,3,-1
 1685 0 l 1,4,-1
 1662 672 l 1,5,-1
 1067 672 l 1,6,-1
 748 0 l 1,7,-1
 495 0 l 1,8,-1
 1618 2352 l 1,9,-1
 1901 2352 l 1,10,-1
 1938 0 l 1,3,-1
1962 3520 m 1,11,-1
 2081 3520 l 1,12,-1
 2324 2832 l 1,13,-1
 2139 2672 l 1,14,-1
 1952 3216 l 1,15,-1
 1514 2672 l 1,16,-1
 1402 2832 l 1,17,-1
 1962 3520 l 1,11,-1
EndSplineSet
EndChar

StartChar: Atilde
Encoding: 195 195 133
Width: 2389
GlyphClass: 2
Flags: W
LayerCount: 2
Fore
SplineSet
1135 960 m 1,0,-1
 1596 960 l 1,1,-1
 1576 1904 l 1,2,-1
 1135 960 l 1,0,-1
1866 0 m 1,3,-1
 1613 0 l 1,4,-1
 1589 672 l 1,5,-1
 994 672 l 1,6,-1
 675 0 l 1,7,-1
 422 0 l 1,8,-1
 1546 2352 l 1,9,-1
 1828 2352 l 1,10,-1
 1866 0 l 1,3,-1
2475 2960 m 1,11,12
 2196 2656 2196 2656 2062 2656 c 128,-1,13
 1928 2656 1928 2656 1857 2800 c 1,14,-1
 1734 3040 l 1,15,16
 1685 3152 1685 3152 1581 3152 c 0,17,18
 1462 3152 1462 3152 1143 2800 c 1,19,-1
 1235 3200 l 1,20,21
 1532 3520 1532 3520 1666 3520 c 128,-1,22
 1800 3520 1800 3520 1853 3360 c 1,23,-1
 1976 3120 l 1,24,25
 2039 3008 2039 3008 2143 3008 c 128,-1,26
 2247 3008 2247 3008 2567 3360 c 1,27,-1
 2475 2960 l 1,11,12
EndSplineSet
EndChar

StartChar: Adieresis
Encoding: 196 196 134
Width: 2390
GlyphClass: 2
Flags: W
LayerCount: 2
Fore
SplineSet
1164 960 m 1,0,-1
 1640 960 l 1,1,-1
 1620 1904 l 1,2,-1
 1164 960 l 1,0,-1
1910 0 m 1,3,-1
 1642 0 l 1,4,-1
 1633 672 l 1,5,-1
 1038 672 l 1,6,-1
 719 0 l 1,7,-1
 451 0 l 1,8,-1
 1575 2352 l 1,9,-1
 1872 2352 l 1,10,-1
 1910 0 l 1,3,-1
1987 2720 m 1,11,-1
 2172 3520 l 1,12,-1
 2559 3520 l 1,13,-1
 2374 2720 l 1,14,-1
 1987 2720 l 1,11,-1
1213 2720 m 1,15,-1
 1398 3520 l 1,16,-1
 1770 3520 l 1,17,-1
 1585 2720 l 1,18,-1
 1213 2720 l 1,15,-1
EndSplineSet
EndChar

StartChar: Aring
Encoding: 197 197 135
Width: 2389
GlyphClass: 2
Flags: W
LayerCount: 2
Fore
SplineSet
1135 960 m 1,0,-1
 1596 960 l 1,1,-1
 1576 1904 l 1,2,-1
 1135 960 l 1,0,-1
1866 0 m 1,3,-1
 1613 0 l 1,4,-1
 1589 672 l 1,5,-1
 994 672 l 1,6,-1
 675 0 l 1,7,-1
 422 0 l 1,8,-1
 1546 2352 l 1,9,-1
 1828 2352 l 1,10,-1
 1866 0 l 1,3,-1
1615 3104 m 0,11,12
 1603.53503185 3055.08280255 1603.53503185 3055.08280255 1603.53503185 3013.17603148 c 0,13,14
 1603.53503185 2945.42675159 1603.53503185 2945.42675159 1633.5 2896 c 0,15,16
 1682 2816 1682 2816 1801 2816 c 0,17,18
 1905 2816 1905 2816 2002 2912 c 1,19,20
 2091 2976 2091 2976 2121 3104 c 0,21,22
 2129.24390244 3139.51219512 2129.24390244 3139.51219512 2129.24390244 3171.80725758 c 0,23,24
 2129.24390244 3241.36585366 2129.24390244 3241.36585366 2091 3296 c 0,25,26
 2035 3376 2035 3376 1931 3376 c 0,27,28
 1812 3376 1812 3376 1734 3296 c 1,29,30
 1641 3216 1641 3216 1615 3104 c 0,11,12
1481 3104 m 0,31,32
 1518 3264 1518 3264 1667 3392 c 1,33,34
 1801 3520 1801 3520 1964 3520 c 0,35,36
 2113 3520 2113 3520 2202 3392 c 0,37,38
 2265.368 3300.864 2265.368 3300.864 2265.368 3193.505792 c 0,39,40
 2265.368 3150.08 2265.368 3150.08 2255 3104 c 1,41,42
 2214 2928 2214 2928 2069 2816 c 1,43,44
 1920 2688 1920 2688 1772 2688 c 0,45,46
 1608 2688 1608 2688 1534 2816 c 1,47,48
 1468.54814815 2893.98518519 1468.54814815 2893.98518519 1468.54814815 3002.99939643 c 0,49,50
 1468.54814815 3050.54814815 1468.54814815 3050.54814815 1481 3104 c 0,31,32
EndSplineSet
EndChar

StartChar: AE
Encoding: 198 198 136
Width: 2534
GlyphClass: 2
Flags: W
LayerCount: 2
Fore
SplineSet
1419 688 m 1,0,-1
 927 688 l 1,1,-1
 486 0 l 1,2,-1
 233 0 l 1,3,-1
 1788 2352 l 1,4,-1
 2859 2352 l 1,5,-1
 2796 2080 l 1,6,-1
 1933 2080 l 1,7,-1
 1771 1376 l 1,8,-1
 2470 1376 l 1,9,-1
 2404 1088 l 1,10,-1
 1704 1088 l 1,11,-1
 1516 272 l 1,12,-1
 2379 272 l 1,13,-1
 2316 0 l 1,14,-1
 1260 0 l 1,15,-1
 1419 688 l 1,0,-1
1684 1840 m 1,16,-1
 1109 960 l 1,17,-1
 1481 960 l 1,18,-1
 1684 1840 l 1,16,-1
EndSplineSet
EndChar

StartChar: Ccedilla
Encoding: 199 199 137
Width: 2526
GlyphClass: 2
Flags: W
LayerCount: 2
Fore
SplineSet
1129 0 m 1,0,1
 709 48 709 48 476 392 c 0,2,3
 314.425595238 630.547619048 314.425595238 630.547619048 314.425595238 919.106363379 c 0,4,5
 314.425595238 1046.66666667 314.425595238 1046.66666667 346 1184 c 0,6,7
 453 1648 453 1648 869 2000 c 128,-1,8
 1285 2352 1285 2352 1869 2368 c 1,9,10
 2461 2352 2461 2352 2658.5 2144 c 0,11,12
 2820.01656315 1973.89648033 2820.01656315 1973.89648033 2820.01656315 1686.08316723 c 0,13,14
 2820.01656315 1621.96273292 2820.01656315 1621.96273292 2812 1552 c 1,15,-1
 2380 1552 l 1,16,17
 2368 1824 2368 1824 2241.5 1952 c 128,-1,18
 2115 2080 2115 2080 1803 2080 c 0,19,20
 1461 2080 1461 2080 1178.5 1856 c 128,-1,21
 896 1632 896 1632 793 1184 c 0,22,23
 758.547663551 1034.70654206 758.547663551 1034.70654206 758.547663551 906.020089091 c 0,24,25
 758.547663551 676.127102804 758.547663551 676.127102804 868.5 512 c 0,26,27
 1040 256 1040 256 1337 256 c 0,28,29
 1635 256 1635 256 1865.5 384 c 128,-1,30
 2096 512 2096 512 2214 832 c 1,31,-1
 2646 832 l 1,32,33
 2539 432 2539 432 2202.5 232 c 128,-1,34
 1866 32 1866 32 1442 0 c 1,35,36
 1509 -32 1509 -32 1568 -32 c 1,37,38
 1769 -64 1769 -64 1797 -136 c 0,39,40
 1814.04347826 -179.826086957 1814.04347826 -179.826086957 1814.04347826 -226.616257089 c 0,41,42
 1814.04347826 -256.695652174 1814.04347826 -256.695652174 1807 -288 c 0,43,44
 1770 -448 1770 -448 1584 -512 c 128,-1,45
 1398 -576 1398 -576 1205 -576 c 1,46,47
 1168.6 -579.2 1168.6 -579.2 1133.8 -579.2 c 0,48,49
 994.6 -579.2 994.6 -579.2 881 -528 c 0,50,51
 739 -464 739 -464 695 -400 c 1,52,-1
 988 -288 l 1,53,-1
 1079.5 -344 l 2,54,55
 1171 -400 1171 -400 1245 -400 c 0,56,57
 1349 -400 1349 -400 1395.5 -392 c 128,-1,58
 1442 -384 1442 -384 1479 -288 c 0,59,60
 1488.25 -264 1488.25 -264 1488.25 -244 c 0,61,62
 1488.25 -184 1488.25 -184 1405 -160 c 1,63,64
 1178 -112 1178 -112 1129 0 c 1,0,1
EndSplineSet
EndChar

StartChar: Egrave
Encoding: 200 200 138
Width: 2149
GlyphClass: 2
Flags: W
LayerCount: 2
Fore
SplineSet
2518 2352 m 1,0,-1
 2455 2080 l 1,1,-1
 1027 2080 l 1,2,-1
 864 1376 l 1,3,-1
 2054 1376 l 1,4,-1
 1988 1088 l 1,5,-1
 798 1088 l 1,6,-1
 609 272 l 1,7,-1
 2038 272 l 1,8,-1
 1975 0 l 1,9,-1
 189 0 l 1,10,-1
 732 2352 l 1,11,-1
 2518 2352 l 1,0,-1
1348 3536 m 1,12,-1
 1928 3536 l 1,13,-1
 2231 2720 l 1,14,-1
 1903 2720 l 1,15,-1
 1348 3536 l 1,12,-1
EndSplineSet
EndChar

StartChar: Eacute
Encoding: 201 201 139
Width: 2149
GlyphClass: 2
Flags: W
LayerCount: 2
Fore
SplineSet
2503 2352 m 1,0,-1
 2437 2064 l 1,1,-1
 1008 2064 l 1,2,-1
 846 1360 l 1,3,-1
 2036 1360 l 1,4,-1
 1973 1088 l 1,5,-1
 783 1088 l 1,6,-1
 595 272 l 1,7,-1
 2023 272 l 1,8,-1
 1960 0 l 1,9,-1
 175 0 l 1,10,-1
 718 2352 l 1,11,-1
 2503 2352 l 1,0,-1
2420 3536 m 1,12,-1
 1502 2720 l 1,13,-1
 1160 2720 l 1,14,-1
 1854 3536 l 1,15,-1
 2420 3536 l 1,12,-1
EndSplineSet
EndChar

StartChar: Ecircumflex
Encoding: 202 202 140
Width: 2149
GlyphClass: 2
Flags: W
LayerCount: 2
Fore
SplineSet
2518 2352 m 1,0,-1
 2455 2080 l 1,1,-1
 1027 2080 l 1,2,-1
 864 1376 l 1,3,-1
 2054 1376 l 1,4,-1
 1988 1088 l 1,5,-1
 798 1088 l 1,6,-1
 609 272 l 1,7,-1
 2038 272 l 1,8,-1
 1975 0 l 1,9,-1
 189 0 l 1,10,-1
 732 2352 l 1,11,-1
 2518 2352 l 1,0,-1
1809 3536 m 1,12,-1
 1973 3536 l 1,13,-1
 2376 2768 l 1,14,-1
 2123 2576 l 1,15,-1
 1817 3184 l 1,16,-1
 1216 2576 l 1,17,-1
 1037 2768 l 1,18,-1
 1809 3536 l 1,12,-1
EndSplineSet
EndChar

